<svg width="206" height="99" viewBox="0 0 206 99" fill="none" xmlns="http://www.w3.org/2000/svg">
<g clip-path="url(#clip0_4137_93446)">
<path d="M98.5953 55.0458L95.2563 51.3232L89.7053 37.0417C89.2816 35.9588 88.629 35.0366 87.8154 34.3174C87.7222 33.6998 87.5188 33.0991 87.2137 32.5322L81.9679 22.8787C80.6882 20.5182 77.8915 19.4268 75.3406 20.2982L68.349 22.6841C66.6116 23.2764 65.2811 24.6977 64.8065 26.4745L63.2556 32.3123L56.0521 32.1769L33.9923 25.07C32.8228 24.6893 31.5686 24.7147 30.416 25.1377L18.3903 29.5034L14.8309 26.356C12.7038 24.4693 9.48338 24.5201 7.40707 26.466L1.73747 31.7792C-0.016806 33.4291 -0.499866 36.018 0.551002 38.1839L3.12732 43.4972C3.73751 44.7578 4.80532 45.7307 6.11043 46.2384L6.424 46.3568L4.18667 60.6552C4.10192 61.1798 4.10192 61.7212 4.16972 62.2458L7.263 84.8778C7.61046 87.3991 9.63593 89.3535 12.1699 89.6073L27.6278 91.1471C29.5092 91.3333 31.3482 90.5464 32.5177 89.0658C33.3991 87.9406 33.7974 86.5277 33.6618 85.1317L34.272 85.174C36.272 85.3263 38.1873 84.3702 39.2891 82.7035C40.2213 81.2821 40.4331 79.5223 39.8992 77.9402C41.7213 78.6255 43.7383 78.6762 45.6197 78.0502C45.7553 78.0079 45.8909 77.9571 46.0265 77.8979L49.196 76.5696L49.2215 77.6271C49.2469 78.5747 49.5181 79.5054 50.0011 80.3261L56.0097 90.3265C57.0013 91.9847 58.7979 93 60.7302 93H73.4168C75.4593 93 77.3322 91.8747 78.2814 90.0726C79.0441 88.6259 79.1204 86.9338 78.5271 85.4532C79.1966 84.9625 79.7644 84.311 80.1627 83.5411C81.2221 81.5021 80.8916 79.0231 79.3492 77.3225L73.6965 71.104L75.9169 66.4422L89.29 68.845C91.1714 69.1835 93.0952 68.5235 94.3664 67.1022L98.5953 62.3896C100.468 60.2999 100.468 57.1441 98.5953 55.0543V55.0458Z" fill="white"/>
<path d="M73.0096 60.1885L90.1116 63.2597L94.2981 58.5895L90.3319 54.1646L84.4759 39.1048C84.1878 38.3518 83.3488 38.0049 82.6284 38.2587L81.3911 38.2418L82.2979 35.2637L77.1029 25.7117L70.179 28.0806L67.8061 36.9981L68.5773 38.0134H68.2807L55.3313 37.7595L32.28 30.3819L17.0169 35.9405L11.1355 30.6865L5.67773 35.839L8.08456 41.1015L11.1694 42.0914L12.7202 42.7005L9.83883 61.5591L12.8389 84.0558L28.085 85.5703L25.551 78.9456L34.4664 79.5802L31.2715 73.4547L28.0341 72.0587L32.2291 66.7286L41.3056 72.3971C42.0683 72.854 43.3564 72.8371 44.2039 72.5579L54.7041 68.1584L54.9245 77.1774L60.8737 87.0762L73.213 87.3893L68.2383 80.0878L75.052 80.9762L66.9417 72.0418L72.8824 59.9093L73.0096 60.1885V60.1885Z" fill="#26272E" fill-opacity="0.5"/>
<g opacity="0.97">
<path d="M66.6726 79.9856L75.2745 81.0093L66.3336 71.1697L62.6641 76.0937L66.6726 79.9856Z" fill="#D3D3D3"/>
<path d="M24.2636 78.9197L34.6706 79.6896L31.3146 73.3442L28.1789 72.0159L32.7807 66.0935L24.8907 60.6533L16.4414 74.8756L24.2636 78.9197Z" fill="#D3D3D3"/>
<path d="M55.1379 37.6741L32.2984 30.3049L17.188 35.7874L11.1794 30.4741L5.50977 35.7874L8.08609 41.1006L12.5523 42.8181L9.63697 61.5075L12.7302 84.1396L28.1882 85.6794L25.0271 76.8212L21.5186 75.2645L26.4509 70.205L26.8407 63.5888L41.324 72.5401C42.0952 73.0055 43.0359 73.107 43.8919 72.8278L54.5023 68.386L54.7226 77.498L60.7312 87.4984H73.4179L65.4093 75.7213L83.2655 38.2156L55.1379 37.6741V37.6741Z" fill="url(#paint0_linear_4137_93446)"/>
<path d="M73.7234 44.8074L67.7402 36.9052L70.1301 27.9031L77.1303 25.5088L82.3761 35.1623L80.1642 42.4215L73.7234 44.8074Z" fill="url(#paint1_linear_4137_93446)"/>
<path d="M65.4 75.7148L60.7305 87.492L66.9086 78.0669L65.4 75.7148Z" fill="url(#paint2_linear_4137_93446)"/>
<path d="M21.5012 75.2583L12.7383 84.0996L23.2639 76.0621L21.5012 75.2583Z" fill="url(#paint3_linear_4137_93446)"/>
<path d="M54.4926 68.3876L55.1367 37.6757L51.6875 36.6436L53.4333 68.7938L54.4926 68.3876Z" fill="url(#paint4_linear_4137_93446)"/>
<path d="M76.0357 42.3958L75.1543 35.6527L76.4764 35.4412L76.8577 41.9897L76.0357 42.3958Z" fill="url(#paint5_linear_4137_93446)"/>
<path d="M75.1048 35.6541L75.9862 42.3971L73.198 43.9454L67.7402 36.9062L75.1048 35.6541Z" fill="url(#paint6_linear_4137_93446)"/>
<path d="M67.7402 36.904L75.1726 35.5842L82.3761 35.1611L81.7829 37.0225L69.3843 39.0192L67.7402 36.904Z" fill="url(#paint7_linear_4137_93446)"/>
<path d="M70.1289 27.9031L82.3749 35.1623L77.129 25.5088L70.1289 27.9031Z" fill="url(#paint8_linear_4137_93446)"/>
<path d="M81.4517 38.1675L81.0195 39.6481L83.4857 38.1844L81.4517 38.1675Z" fill="#D8D8D8"/>
<path d="M73.7233 44.8066L68.5113 37.9281L65.8672 37.8943L72.5029 45.9234L73.7233 44.8066Z" fill="url(#paint9_linear_4137_93446)"/>
<path d="M72.8257 60.07L67.3086 48.0137L71.8341 62.1259L72.8257 60.07Z" fill="url(#paint10_linear_4137_93446)"/>
<path d="M67.3073 48.0141L72.9939 60.3243L90.2654 63.4293L94.4943 58.7168L90.4857 54.2496L84.5704 39.0375C84.2398 38.1745 83.1974 37.8361 82.4178 38.3268L67.2988 48.0226L67.3073 48.0141Z" fill="url(#paint11_linear_4137_93446)"/>
<path d="M90.4935 54.2482L82.1035 61.9473L90.0359 53.1567L90.4935 54.2482Z" fill="url(#paint12_linear_4137_93446)"/>
<path d="M82.1035 61.9501L90.4935 54.251L94.4936 58.7097L90.2732 63.4307L82.1035 61.9501Z" fill="url(#paint13_linear_4137_93446)"/>
<path d="M32.2982 30.2981L26.832 63.5905L33.4423 30.6788L32.2982 30.2981Z" fill="url(#paint14_linear_4137_93446)"/>
<path d="M54.4932 68.3886L55.1373 37.6767L53.7305 37.2537L54.4932 68.3886Z" fill="url(#paint15_linear_4137_93446)"/>
<path d="M22.9082 75.9949L25.0099 76.8156L28.1795 85.6738L24.9421 85.3438L22.9082 75.9949Z" fill="url(#paint16_linear_4137_93446)"/>
<path d="M12.5521 42.8208L17.1878 35.79L10.5352 42.0424L12.5521 42.8208Z" fill="url(#paint17_linear_4137_93446)"/>
<path d="M26.4428 70.1976L26.8326 63.5899L10.756 54.7063L9.62891 61.5001L12.7307 83.9545L26.4428 70.1976Z" fill="url(#paint18_linear_4137_93446)"/>
</g>
<path d="M96.9994 34.76C103.673 32.1478 121.294 29.4973 128.311 32.0945" stroke="#9E8AFF" stroke-width="1.2" stroke-linecap="round"/>
<path d="M116.652 30.8553C112.559 40.9351 107.694 60.4998 120.976 58.1199" stroke="#9E8AFF" stroke-width="1.2"/>
<path d="M131.514 32.5986C129.705 37.7418 127.194 46.8346 127.455 52.7304M129.539 57.9559C128.173 57.1474 127.566 55.2251 127.455 52.7304M127.455 52.7304C127.936 49.5149 131.514 44.9874 134.623 47.1118C137.733 49.2362 134.245 54.277 135.991 57.1625" stroke="#9E8AFF" stroke-width="1.2" stroke-linecap="round"/>
<path d="M144.08 54.521C144.461 53.4955 144.788 50.745 144.08 49.6354C142.136 47.4392 138.981 52.1463 138.664 53.3654C138.05 54.9322 137.775 56.8176 139.581 57.7208C141.069 58.4653 142.387 57.0652 143.213 55.9581C144.114 54.7513 144.567 53.5371 144.81 52.075C144.878 51.6656 144.978 51.2546 145.074 50.8507C145.193 50.3464 145.039 51.8854 145.024 52.4029C144.976 54.071 145.312 57.927 147.793 56.2297" stroke="#9E8AFF" stroke-width="1.2" stroke-linecap="round"/>
<path d="M147.719 52.9313C146.776 52.3229 149.316 49.5985 149.961 49.2743C151.544 48.4787 151.168 50.7293 151.01 51.5426C150.71 53.0853 150.422 54.6198 150.215 56.1779C150.153 56.6481 150.205 56.3627 150.241 56.1084C150.327 55.5103 150.425 54.9267 150.616 54.3514C151.045 53.0582 151.526 51.789 152.514 50.8119C153.222 50.1123 154.672 49.0383 155.379 50.316C156.536 52.4065 155.543 54.7794 155.905 56.9567" stroke="#9E8AFF" stroke-width="1.2" stroke-linecap="round"/>
<path d="M161.381 37.8623C162.638 40.2082 162.035 43.103 161.494 45.5744C160.781 48.829 159.558 51.9352 158.701 55.1498C158.52 55.8276 158.354 56.5011 158.128 57.1651C157.98 57.5975 158.103 57.3524 158.268 57.1698" stroke="#9E8AFF" stroke-width="1.2" stroke-linecap="round"/>
<path d="M169.35 40.0665C169.404 39.9808 169.812 39.3567 169.486 39.9117C169.065 40.6286 168.623 41.3314 168.127 41.9994C166.573 44.0898 164.768 46.0019 162.913 47.8269C162.578 48.1561 161.275 49.716 160.703 49.6475C160.328 49.6025 161.863 48.1141 162.008 48.0055C162.45 47.6761 163.238 47.0433 163.502 47.8159C163.975 49.2014 164.083 50.6991 164.462 52.1131C164.858 53.5871 165.427 54.7489 166.319 55.976C166.712 56.516 167.448 56.7128 167.683 57.2234" stroke="#9E8AFF" stroke-width="1.2" stroke-linecap="round"/>
<path d="M178.391 39.6461C175.773 50.2444 178.391 58.262 183.799 56.4803C188.258 55.0115 189.896 47.5517 190.933 41.3359C191.379 38.6634 191.138 37.5706 190.944 36.1178" stroke="#9E8AFF" stroke-width="1.2" stroke-linecap="round"/>
<path d="M198.058 45.5732C197.592 46.0568 196.947 47.7396 198.028 46.7196C198.634 46.1481 198.508 45.4732 197.793 46.3668" stroke="#9E8AFF" stroke-width="1.2" stroke-linecap="round"/>
<path d="M198.323 51.1318C197.43 54.1462 199.86 50.3885 198.059 52.19" stroke="#9E8AFF" stroke-width="1.2" stroke-linecap="round"/>
<path d="M204.013 44.7803C207.877 44.9834 205.266 51.6175 203.219 52.9809" stroke="#9E8AFF" stroke-width="1.2" stroke-linecap="round"/>
</g>
<defs>
<linearGradient id="paint0_linear_4137_93446" x1="5.50977" y1="58.8932" x2="83.2571" y2="58.8932" gradientUnits="userSpaceOnUse">
<stop stop-color="#F0F0F0"/>
<stop offset="1" stop-color="#E6E6E6"/>
</linearGradient>
<linearGradient id="paint1_linear_4137_93446" x1="67.7402" y1="35.1623" x2="82.3761" y2="35.1623" gradientUnits="userSpaceOnUse">
<stop stop-color="#F6F6F6"/>
<stop offset="1" stop-color="#CCCCCC"/>
</linearGradient>
<linearGradient id="paint2_linear_4137_93446" x1="63.9117" y1="82.1813" x2="62.1964" y2="81.0849" gradientUnits="userSpaceOnUse">
<stop stop-color="#F6F6F6" stop-opacity="0"/>
<stop offset="0.03" stop-color="#F1F1F1" stop-opacity="0.06"/>
<stop offset="0.2" stop-color="#DADADA" stop-opacity="0.34"/>
<stop offset="0.37" stop-color="#C7C7C7" stop-opacity="0.58"/>
<stop offset="0.54" stop-color="#B8B8B8" stop-opacity="0.76"/>
<stop offset="0.7" stop-color="#AEAEAE" stop-opacity="0.89"/>
<stop offset="0.86" stop-color="#A8A8A8" stop-opacity="0.97"/>
<stop offset="1" stop-color="#A6A6A6"/>
</linearGradient>
<linearGradient id="paint3_linear_4137_93446" x1="18.2004" y1="80.3187" x2="17.3388" y2="79.4691" gradientUnits="userSpaceOnUse">
<stop stop-color="#F6F6F6" stop-opacity="0"/>
<stop offset="0.47" stop-color="#CFCFCF" stop-opacity="0.48"/>
<stop offset="1" stop-color="#A6A6A6"/>
</linearGradient>
<linearGradient id="paint4_linear_4137_93446" x1="53.2892" y1="52.7102" x2="54.6367" y2="52.6932" gradientUnits="userSpaceOnUse">
<stop stop-color="#D9D9D9" stop-opacity="0"/>
<stop offset="0.13" stop-color="#D9D9D9" stop-opacity="0.02"/>
<stop offset="0.26" stop-color="#D9D9D9" stop-opacity="0.08"/>
<stop offset="0.4" stop-color="#D9D9D9" stop-opacity="0.17"/>
<stop offset="0.54" stop-color="#D9D9D9" stop-opacity="0.31"/>
<stop offset="0.69" stop-color="#D9D9D9" stop-opacity="0.49"/>
<stop offset="0.83" stop-color="#D9D9D9" stop-opacity="0.7"/>
<stop offset="0.97" stop-color="#D9D9D9" stop-opacity="0.95"/>
<stop offset="1" stop-color="#D9D9D9"/>
</linearGradient>
<linearGradient id="paint5_linear_4137_93446" x1="76.6798" y1="38.8677" x2="75.6459" y2="38.9865" gradientUnits="userSpaceOnUse">
<stop stop-color="#CCCCCC" stop-opacity="0"/>
<stop offset="0.11" stop-color="#CCCCCC" stop-opacity="0.03"/>
<stop offset="0.24" stop-color="#CDCDCD" stop-opacity="0.1"/>
<stop offset="0.4" stop-color="#CECECE" stop-opacity="0.22"/>
<stop offset="0.56" stop-color="#D1D1D1" stop-opacity="0.38"/>
<stop offset="0.73" stop-color="#D3D3D3" stop-opacity="0.6"/>
<stop offset="0.91" stop-color="#D7D7D7" stop-opacity="0.86"/>
<stop offset="1" stop-color="#D9D9D9"/>
</linearGradient>
<linearGradient id="paint6_linear_4137_93446" x1="69.3759" y1="40.3835" x2="75.1977" y2="39.6705" gradientUnits="userSpaceOnUse">
<stop stop-color="white" stop-opacity="0"/>
<stop offset="0.08" stop-color="white" stop-opacity="0.03"/>
<stop offset="0.7" stop-color="white" stop-opacity="0.22"/>
<stop offset="1" stop-color="white" stop-opacity="0.3"/>
</linearGradient>
<linearGradient id="paint7_linear_4137_93446" x1="75.2743" y1="37.9277" x2="75.0293" y2="35.7448" gradientUnits="userSpaceOnUse">
<stop stop-color="#F6F6F6" stop-opacity="0"/>
<stop offset="0.17" stop-color="#E9E9E9" stop-opacity="0.08"/>
<stop offset="0.47" stop-color="#C9C9C9" stop-opacity="0.3"/>
<stop offset="0.86" stop-color="#949494" stop-opacity="0.66"/>
<stop offset="1" stop-color="#808080" stop-opacity="0.8"/>
</linearGradient>
<linearGradient id="paint8_linear_4137_93446" x1="78.8579" y1="28.3346" x2="76.3629" y2="31.4099" gradientUnits="userSpaceOnUse">
<stop stop-color="white" stop-opacity="0"/>
<stop offset="0.2" stop-color="white" stop-opacity="0.09"/>
<stop offset="0.72" stop-color="white" stop-opacity="0.31"/>
<stop offset="0.97" stop-color="white" stop-opacity="0.4"/>
<stop offset="0.99" stop-color="white" stop-opacity="0.28"/>
<stop offset="1" stop-color="white" stop-opacity="0.2"/>
</linearGradient>
<linearGradient id="paint9_linear_4137_93446" x1="69.3079" y1="41.82" x2="70.7047" y2="40.8364" gradientUnits="userSpaceOnUse">
<stop stop-color="#CCCCCC" stop-opacity="0"/>
<stop offset="0.12" stop-color="#CACACA" stop-opacity="0.04"/>
<stop offset="0.29" stop-color="#C5C5C5" stop-opacity="0.16"/>
<stop offset="0.5" stop-color="#BEBEBE" stop-opacity="0.36"/>
<stop offset="0.73" stop-color="#B3B3B3" stop-opacity="0.64"/>
<stop offset="0.99" stop-color="#A6A6A6" stop-opacity="0.98"/>
<stop offset="1" stop-color="#A6A6A6"/>
</linearGradient>
<linearGradient id="paint10_linear_4137_93446" x1="69.029" y1="55.3321" x2="70.4942" y2="54.6364" gradientUnits="userSpaceOnUse">
<stop stop-color="#CCCCCC" stop-opacity="0"/>
<stop offset="0.12" stop-color="#CACACA" stop-opacity="0.04"/>
<stop offset="0.29" stop-color="#C5C5C5" stop-opacity="0.16"/>
<stop offset="0.5" stop-color="#BEBEBE" stop-opacity="0.36"/>
<stop offset="0.73" stop-color="#B3B3B3" stop-opacity="0.64"/>
<stop offset="0.99" stop-color="#A6A6A6" stop-opacity="0.98"/>
<stop offset="1" stop-color="#A6A6A6"/>
</linearGradient>
<linearGradient id="paint11_linear_4137_93446" x1="67.3073" y1="50.7554" x2="94.4943" y2="50.7554" gradientUnits="userSpaceOnUse">
<stop stop-color="#F6F6F6"/>
<stop offset="1" stop-color="#EBEBEB"/>
</linearGradient>
<linearGradient id="paint12_linear_4137_93446" x1="85.9934" y1="57.4716" x2="86.4248" y2="57.9461" gradientUnits="userSpaceOnUse">
<stop stop-color="#CCCCCC" stop-opacity="0"/>
<stop offset="0.12" stop-color="#CBCBCB" stop-opacity="0.03"/>
<stop offset="0.28" stop-color="#C9C9C9" stop-opacity="0.11"/>
<stop offset="0.44" stop-color="#C5C5C5" stop-opacity="0.25"/>
<stop offset="0.62" stop-color="#C0C0C0" stop-opacity="0.45"/>
<stop offset="0.81" stop-color="#BABABA" stop-opacity="0.69"/>
<stop offset="1" stop-color="#B3B3B3"/>
</linearGradient>
<linearGradient id="paint13_linear_4137_93446" x1="89.0613" y1="63.2107" x2="86.9154" y2="55.0699" gradientUnits="userSpaceOnUse">
<stop stop-color="#CCCCCC" stop-opacity="0"/>
<stop offset="0.11" stop-color="#CCCCCC" stop-opacity="0.02"/>
<stop offset="0.24" stop-color="#CECECE" stop-opacity="0.09"/>
<stop offset="0.38" stop-color="#D1D1D1" stop-opacity="0.2"/>
<stop offset="0.54" stop-color="#D5D5D5" stop-opacity="0.35"/>
<stop offset="0.7" stop-color="#DADADA" stop-opacity="0.54"/>
<stop offset="0.86" stop-color="#E0E0E0" stop-opacity="0.77"/>
<stop offset="1" stop-color="#E6E6E6"/>
</linearGradient>
<linearGradient id="paint14_linear_4137_93446" x1="30.2502" y1="47.0806" x2="29.54" y2="46.9578" gradientUnits="userSpaceOnUse">
<stop stop-color="#F6F6F6" stop-opacity="0"/>
<stop offset="0.47" stop-color="#CFCFCF" stop-opacity="0.48"/>
<stop offset="1" stop-color="#A6A6A6"/>
</linearGradient>
<linearGradient id="paint15_linear_4137_93446" x1="54.1204" y1="52.7594" x2="54.7226" y2="52.7623" gradientUnits="userSpaceOnUse">
<stop stop-color="#F6F6F6" stop-opacity="0"/>
<stop offset="0.47" stop-color="#CFCFCF" stop-opacity="0.48"/>
<stop offset="1" stop-color="#A6A6A6"/>
</linearGradient>
<linearGradient id="paint16_linear_4137_93446" x1="24.2981" y1="81.2658" x2="26.1534" y2="80.6209" gradientUnits="userSpaceOnUse">
<stop stop-color="white" stop-opacity="0"/>
<stop offset="0.08" stop-color="white" stop-opacity="0.03"/>
<stop offset="0.7" stop-color="white" stop-opacity="0.22"/>
<stop offset="1" stop-color="white" stop-opacity="0.3"/>
</linearGradient>
<linearGradient id="paint17_linear_4137_93446" x1="13.6546" y1="38.7428" x2="14.7117" y2="39.5108" gradientUnits="userSpaceOnUse">
<stop stop-color="#F6F6F6" stop-opacity="0"/>
<stop offset="0.47" stop-color="#CFCFCF" stop-opacity="0.48"/>
<stop offset="1" stop-color="#A6A6A6"/>
</linearGradient>
<linearGradient id="paint18_linear_4137_93446" x1="11.4086" y1="83.0408" x2="19.5708" y2="59.5965" gradientUnits="userSpaceOnUse">
<stop stop-color="#CCCCCC" stop-opacity="0"/>
<stop offset="0.11" stop-color="#CCCCCC" stop-opacity="0.02"/>
<stop offset="0.25" stop-color="#CECECE" stop-opacity="0.08"/>
<stop offset="0.38" stop-color="#D0D0D0" stop-opacity="0.18"/>
<stop offset="0.53" stop-color="#D4D4D4" stop-opacity="0.32"/>
<stop offset="0.68" stop-color="#D9D9D9" stop-opacity="0.5"/>
<stop offset="0.83" stop-color="#DEDEDE" stop-opacity="0.72"/>
<stop offset="0.99" stop-color="#E5E5E5" stop-opacity="0.98"/>
<stop offset="1" stop-color="#E6E6E6"/>
</linearGradient>
<clipPath id="clip0_4137_93446">
<rect width="206" height="99" fill="white"/>
</clipPath>
</defs>
</svg>
