<svg width="206" height="99" viewBox="0 0 206 99" fill="none" xmlns="http://www.w3.org/2000/svg">
<path d="M100.474 61.7459L75.0533 43.6764C74.4516 43.2498 73.7737 42.9342 73.0619 42.755L46.5225 36.1347L33.7527 22.8257C32.6342 21.6569 31.092 21 29.482 21H29.4736L18.9324 21.0171C17.2207 21.0171 15.5937 21.7678 14.4667 23.0646L1.45971 38.1225C0.26493 39.5046 -0.235015 41.3559 0.10393 43.156L1.77324 51.986C2.12913 53.8629 3.35781 55.4583 5.07796 56.2773L10.6197 58.9049C12.0941 59.6045 13.7889 59.6557 15.3141 59.0585L16.1022 58.7428L18.6697 68.7757C19.0171 70.1237 19.8136 71.3096 20.9406 72.1286L21.3304 72.4101L16.6953 81.1718C15.5344 83.3559 15.8395 86.0433 17.4664 87.9116C19.0934 89.78 21.6863 90.4455 23.9911 89.5838L37.837 84.4223L40.574 86.4186C41.7264 87.2633 43.1415 87.6557 44.5651 87.5277L73.2145 85.011C73.9686 84.9427 74.6974 84.738 75.3752 84.3882L84.0184 79.986L89.0602 88.1761C90.1533 89.9592 92.0768 91 94.102 91C94.4833 91 94.8731 90.9659 95.2629 90.8806C97.6863 90.3943 99.559 88.4406 99.9573 85.975L102.923 67.5643C103.287 65.312 102.338 63.0512 100.491 61.7288L100.474 61.7459Z" fill="white"/>
<path d="M96.9761 66.6763L71.4366 48.6239L44.3548 41.867H44.3463L43.5159 41.6623L29.7039 27.2528L18.9424 26.9883L6.11328 42.0547L7.66396 50.8164L13.1295 53.4953L20.2304 50.6117L24.6705 67.1711L29.2124 70.4727L22.2047 83.7049L38.8554 77.5026L38.813 77.5197L40.1095 78.4155L44.1006 81.3247L72.4788 78.8335L86.24 72.0766L94.0612 84.9078L96.9761 66.6763Z" fill="#26272E"/>
<g opacity="0.97">
<path d="M43.4301 41.5155L29.4825 26.9609L18.9413 26.9865L5.92578 42.0359L7.58661 50.8659L13.1284 53.4935L43.4301 41.5155Z" fill="#EFEFEF"/>
<path d="M20.1621 50.7059L43.4307 41.5176L71.631 48.556L97.0604 66.6254L72.6902 79.0642L44.0323 81.581L24.3989 67.2824L20.1621 50.7059Z" fill="url(#paint0_linear_4137_94012)"/>
<path d="M21.9062 83.9845L53.2502 72.305L44.2767 41.7285L21.9062 83.9845Z" fill="url(#paint1_linear_4137_94012)"/>
<path d="M43.4307 41.5176L20.6875 52.7193L20.1621 50.7059L43.4307 41.5176Z" fill="url(#paint2_linear_4137_94012)"/>
<path d="M71.6306 48.5542L72.6899 79.0624L58.9626 80.2142L58.6914 45.3379L71.6306 48.5542Z" fill="url(#paint3_linear_4137_94012)"/>
<path d="M72.6895 79.0627L85.3491 58.7324L91.9839 69.2431L72.6895 79.0627Z" fill="url(#paint4_linear_4137_94012)"/>
<path d="M71.6309 48.5527L97.0602 66.6222L94.0945 85.0415L71.6309 48.5527Z" fill="url(#paint5_linear_4137_94012)"/>
<path d="M86.1716 72.1591L82.4432 74.0701L71.6309 48.5527L86.1716 72.1591Z" fill="url(#paint6_linear_4137_94012)"/>
<path d="M53.2517 72.3066L40.626 79.0806L38.6855 77.7326L53.2517 72.3066Z" fill="url(#paint7_linear_4137_94012)"/>
<path d="M5.92578 42.0359L18.9413 26.9865L29.4825 26.9609L7.58661 50.8659L5.92578 42.0359Z" fill="url(#paint8_linear_4137_94012)"/>
</g>
<path d="M60.5724 10.0707C61.6801 7.41945 62.3183 2.21308 57.6923 1.01239C51.2674 0.570523 47.5497 12.0598 47.058 17.8033C46.6378 22.7127 48.4065 31.0556 55.4289 30.4429C59.2273 30.1114 61.9205 26.3822 63.4525 23.3267" stroke="#F9F7D8" stroke-width="1.2" stroke-linecap="round"/>
<path d="M70.9166 2.14844C72.0642 8.8716 68.5137 17.7956 65.5598 23.6129C65.5148 23.7014 61.6234 30.7426 61.9161 27.824C62.103 25.96 63.1404 23.6826 64.0637 22.0969C65.3828 19.8314 69.6136 16.0467 71.8336 19.2093C73.6803 21.8403 72.1974 26.3156 71.8818 29.1475" stroke="#F9F7D8" stroke-width="1.2" stroke-linecap="round"/>
<path d="M72.9785 23.1799C73.8964 29.0708 83.8343 22.6626 84.4989 17.5709C84.4989 15.8137 83.6168 15.1848 82.1115 15.4029C79.8949 15.724 78.897 17.8484 78.2597 19.3809C77.1459 22.0589 76.5637 27.4045 79.6163 29.4652C82.8436 31.6439 86.7515 27.4457 89.5945 23.9882C90.2591 23.1799 93.3608 18.9068 91.3669 16.9184C87.7999 13.3613 82.7266 25.2859 85.6067 28.8487C89.5945 31.1757 92.6444 28.8487 93.3608 28.1859C95.7978 25.9314 97.1271 23.1799 98.4564 17.5709" stroke="#F9F7D8" stroke-width="1.2" stroke-linecap="round"/>
<path d="M98.5594 17.0602C98.5594 15.2554 98.6527 20.6752 98.5112 22.4745C98.3314 24.76 96.819 31.4593 97.546 29.2844C99.017 24.8835 102.002 17.0602 106.655 17.581" stroke="#F9F7D8" stroke-width="1.2" stroke-linecap="round"/>
<path d="M113.071 19.187C110.711 20.8164 107.426 28.1003 112.202 28.8394C116.159 29.4518 119.419 21.57 120.373 18.898C121.746 15.0513 119.627 20.7038 119.446 22.3081C119.189 24.5772 118.742 27.444 120.373 29.0706" stroke="#F9F7D8" stroke-width="1.2" stroke-linecap="round"/>
<path d="M124.82 17.582C123.708 23.1272 123.467 28.9549 122.572 34.5638C122.419 35.5241 120.893 41.8898 121.366 40.896" stroke="#F9F7D8" stroke-width="1.2" stroke-linecap="round"/>
<path d="M124.821 18.9066C126.739 17.624 131.926 17.339 131.424 19.8758C130.579 24.1544 126.696 25.6748 123.049 28.6277" stroke="#F9F7D8" stroke-width="1.2" stroke-linecap="round"/>
<path d="M139.001 11.3965C137.893 13.5879 136.785 18.6968 136.785 22.4431" stroke="#F9F7D8" stroke-width="1.2" stroke-linecap="round"/>
<path d="M136.785 26.8622V25.9785" stroke="#F9F7D8" stroke-width="1.2" stroke-linecap="round"/>
<defs>
<linearGradient id="paint0_linear_4137_94012" x1="20.1621" y1="61.5493" x2="97.0604" y2="61.5493" gradientUnits="userSpaceOnUse">
<stop stop-color="#F6F6F6"/>
<stop offset="1" stop-color="#CCCCCC"/>
</linearGradient>
<linearGradient id="paint1_linear_4137_94012" x1="17.4406" y1="68.4659" x2="47.0077" y2="58.0054" gradientUnits="userSpaceOnUse">
<stop stop-color="#F6F6F6"/>
<stop offset="1" stop-color="#CCCCCC"/>
</linearGradient>
<linearGradient id="paint2_linear_4137_94012" x1="32.4743" y1="48.1294" x2="31.6085" y2="46.0519" gradientUnits="userSpaceOnUse">
<stop stop-color="#F6F6F6" stop-opacity="0"/>
<stop offset="1" stop-color="#B3B3B3"/>
</linearGradient>
<linearGradient id="paint3_linear_4137_94012" x1="58.6914" y1="62.776" x2="72.6899" y2="62.776" gradientUnits="userSpaceOnUse">
<stop stop-color="#F6F6F6" stop-opacity="0"/>
<stop offset="1" stop-color="white" stop-opacity="0.7"/>
</linearGradient>
<linearGradient id="paint4_linear_4137_94012" x1="76.3246" y1="64.2266" x2="83.1709" y2="75.3785" gradientUnits="userSpaceOnUse">
<stop stop-color="#F6F6F6"/>
<stop offset="1" stop-color="white" stop-opacity="0"/>
</linearGradient>
<linearGradient id="paint5_linear_4137_94012" x1="71.6309" y1="66.7928" x2="97.0602" y2="66.7928" gradientUnits="userSpaceOnUse">
<stop stop-color="#F6F6F6"/>
<stop offset="1" stop-color="#D9D9D9"/>
</linearGradient>
<linearGradient id="paint6_linear_4137_94012" x1="76.3128" y1="61.8229" x2="78.6932" y2="60.5373" gradientUnits="userSpaceOnUse">
<stop stop-color="#F6F6F6" stop-opacity="0"/>
<stop offset="1" stop-color="#A6A6A6"/>
</linearGradient>
<linearGradient id="paint7_linear_4137_94012" x1="46.5282" y1="76.3792" x2="45.9406" y2="74.9783" gradientUnits="userSpaceOnUse">
<stop stop-color="#F6F6F6" stop-opacity="0"/>
<stop offset="1" stop-color="#B3B3B3"/>
</linearGradient>
<linearGradient id="paint8_linear_4137_94012" x1="20.5002" y1="41.3138" x2="13.1481" y2="31.6373" gradientUnits="userSpaceOnUse">
<stop stop-color="#F6F6F6" stop-opacity="0"/>
<stop offset="1" stop-color="white" stop-opacity="0.6"/>
</linearGradient>
</defs>
</svg>
