<svg width="206" height="99" viewBox="0 0 206 99" fill="none" xmlns="http://www.w3.org/2000/svg">
<path d="M50.9939 71.7462L49.7181 42.7487C49.6551 41.3864 49.0802 40.0942 48.1036 39.1289L38.2671 29.4216L39.2201 28.3317C40.2596 27.1485 40.7164 25.5993 40.5274 24.0891L44.7487 20.8274C46.5994 19.3951 47.3318 16.9585 46.5679 14.7632C45.804 12.568 43.7091 11.0889 41.3543 11.0889H35.1878C34.1167 9.73441 32.4314 8.94817 30.6279 9.00266L19.1769 9.46195C16.2157 9.57872 13.664 11.556 12.8292 14.3662L0.220514 56.94C0.0708796 57.4382 0 57.952 0 58.4736V66.9432C0 68.5546 0.724547 70.0881 1.96888 71.1235L3.86688 72.696L8.36379 94.6329C8.88358 97.1706 11.1438 99 13.7664 99H31.0531C32.1715 99 33.2425 98.6653 34.1403 98.0659H41.4567C43.7642 98.0659 45.8276 96.6413 46.6309 94.5083C47.4342 92.3675 46.7963 89.9621 45.0479 88.4831L42.5041 86.3267L50.0883 74.9924C50.7262 74.0349 51.0491 72.8984 50.9939 71.7462V71.7462Z" fill="white"/>
<path d="M35.094 87.199L45.2298 72.0503L43.9697 43.4342L30.4474 29.8502L34.8971 24.8213L33.8103 22.1434L40.9927 16.7176L31.5815 16.8655L30.7467 14.7637L19.4138 15.3164C18.8232 15.3397 18.39 16.1338 18.2167 16.6942L5.77344 58.7153V67.0759L9.10478 69.8317L9.17566 70.1431L13.9246 93.3333H30.9908L31.6051 92.4069H41.2526L35.094 87.1913V87.199Z" fill="#26272E"/>
<g opacity="0.97">
<path d="M30.8652 92.4929H41.4105L32.6451 85.0742L30.8652 92.4929Z" fill="#E5E5E5"/>
<path d="M41.2831 92.4714L31.5254 92.4947L35.0615 87.2168L41.2831 92.4714Z" fill="url(#paint0_linear_4137_94208)"/>
<path d="M8.0957 65.5831L13.8054 93.4285H31.0371L45.4256 71.9275L44.1498 43.0234L27.5955 26.6914L8.0957 65.5831Z" fill="url(#paint1_linear_4137_94208)"/>
<path d="M28.959 16.6562H41.3078L31.739 24.0438L28.959 16.6562Z" fill="#E5E5E5"/>
<path d="M24.8082 36.686V82.8251L5.57617 66.9057V58.4595L24.8082 32.4668V36.686Z" fill="url(#paint2_linear_4137_94208)"/>
<path d="M31.1016 16.7264L41.2767 16.6719L33.9525 22.2612L31.1016 16.7264Z" fill="url(#paint3_linear_4137_94208)"/>
<path d="M31.6602 16.6797L35.5743 16.7342L35.338 21.2337L33.9598 22.3313L31.6602 16.6797Z" fill="url(#paint4_linear_4137_94208)"/>
<path d="M30.7148 29.7812L33.55 32.5759L5.57617 58.4596L30.7148 29.7812Z" fill="url(#paint5_linear_4137_94208)"/>
<path d="M24.8086 82.8259L9.37261 71.6629L8.93945 69.7012L24.8086 82.8259Z" fill="url(#paint6_linear_4137_94208)"/>
<path d="M24.8086 36.5221L26.6042 34.5059L24.8086 82.8247V36.5221Z" fill="url(#paint7_linear_4137_94208)"/>
<path d="M35.0615 87.2168L37.7943 89.5833L35.1954 92.4792L31.5254 92.4947L35.0615 87.2168Z" fill="url(#paint8_linear_4137_94208)"/>
<path d="M30.8329 14.5703L35.0227 24.8537L5.57617 58.4597L18.1455 16.0182C18.3109 15.45 18.8307 15.053 19.4292 15.0296L30.8408 14.5703H30.8329Z" fill="url(#paint9_linear_4137_94208)"/>
</g>
<path d="M129.001 44.3813C128.104 46.2628 127.889 54.1602 127.889 51.6428" stroke="#648DF5" stroke-width="1.2" stroke-linecap="round"/>
<path d="M128.26 56.1943L127.889 55.4561" stroke="#648DF5" stroke-width="1.2" stroke-linecap="round"/>
<path d="M107.871 50.1911C108.242 48.2028 109.93 47.8465 110.782 47.2587C111.547 46.7303 111.643 46.9929 111.521 47.8861C111.326 49.3216 110.98 50.7426 110.782 52.1823C110.684 52.892 110.582 57.92 112.042 56.1512C113.44 54.4571 114.787 52.1993 115.644 50.1911C116.194 48.9024 116.315 47.2861 116.315 49.8092C116.315 51.6935 116.017 53.9276 116.616 55.742C117.439 58.2302 119.465 54.1062 119.972 53.2598C121.299 51.0445 122.259 48.6113 123.218 46.2222" stroke="#648DF5" stroke-width="1.2" stroke-linecap="round"/>
<path d="M105.32 47.334C102.373 47.837 100.045 52.6226 101.811 55.1784C103.429 57.5185 106.989 55.3868 107.521 53.2667C108.23 50.4415 106.368 47.3325 103.235 48.2239" stroke="#648DF5" stroke-width="1.2" stroke-linecap="round"/>
<path d="M71.343 18.572C67.6359 8.23601 61.35 14.3269 58.6505 20.4177C56.8583 24.4617 55.4027 34.1795 60.5923 36.4755C67.1429 38.2431 68.748 33.3378 71.8991 28.9081" stroke="#648DF5" stroke-width="1.2" stroke-linecap="round"/>
<path d="M67.6367 28.171C71.7146 27.051 74.4377 25.0333 74.4377 27.051C73.9079 29.2523 71.0553 34.132 72.8672 35.9094" stroke="#648DF5" stroke-width="1.2" stroke-linecap="round"/>
<path d="M77.0024 30.544C78.65 31.7186 84.3759 27.3711 82.2921 25.6257C80.2083 23.8802 77.5042 26.8542 77.0024 28.3565C76.4049 30.1456 76.5747 33.8762 79.182 34.729C81.9795 35.644 85.068 32.7805 86.1234 31.2758" stroke="#648DF5" stroke-width="1.2" stroke-linecap="round"/>
<path d="M89.996 21.5254C89.1001 21.9714 87.8199 24.5766 87.5323 25.5397C86.858 27.7982 85.2072 32.601 86.968 34.6593C88.5735 36.536 91.0682 34.8629 92.446 33.6869" stroke="#648DF5" stroke-width="1.2" stroke-linecap="round"/>
<path d="M102.722 21.5254C101.981 23.5557 102.019 24.0229 101.732 24.986C100.175 30.2003 100.9 33.104 101.732 34.0763C103.337 35.953 105.268 34.3092 106.646 33.1332" stroke="#648DF5" stroke-width="1.2" stroke-linecap="round"/>
<path d="M85.002 26.8635C85.9658 27.3253 87.6273 27.1274 87.7575 27.1023C89.6442 26.7387 90.6691 26.4332 92.4494 25.9736" stroke="#648DF5" stroke-width="1.2" stroke-linecap="round"/>
<path d="M97.8477 25.7386C98.8115 26.2003 100.473 26.0024 100.603 25.9773C102.482 25.7386 102.667 25.7386 104.706 25.4023" stroke="#648DF5" stroke-width="1.2" stroke-linecap="round"/>
<path d="M110.383 27.6218C107.748 28.0163 105.596 35.0147 108.956 35.1573C111.61 35.2699 112.838 31.6377 112.827 29.6267C112.808 26.0066 108.044 27.6409 107.755 30.3863" stroke="#648DF5" stroke-width="1.2" stroke-linecap="round"/>
<path d="M82.6621 39.3979C82.923 41.9819 82.8473 44.1967 82.4765 47.7034C81.8131 50.7238 81.711 51.5349 80.9131 54.5181C80.7449 55.1472 80.5898 55.7721 80.3791 56.3884C80.2419 56.7897 80.3561 56.5621 80.51 56.3927" stroke="#648DF5" stroke-width="1.2" stroke-linecap="round"/>
<path d="M89.8604 40.5202C89.9108 40.4407 90.2911 39.8615 89.9875 40.3765C89.5953 41.0419 89.184 41.6941 88.7217 42.3141C87.2754 44.254 85.5951 46.0285 83.8676 47.7221C83.556 48.0277 82.343 49.4753 81.8106 49.4118C81.4611 49.37 82.89 47.9887 83.0255 47.888C83.4365 47.5822 84.1705 46.995 84.4162 47.7119C84.8568 48.9977 84.9571 50.3877 85.3102 51.7C85.6783 53.0678 86.2087 54.1461 87.0389 55.2849C87.4043 55.786 88.0902 55.9687 88.3088 56.4425" stroke="#648DF5" stroke-width="1.2" stroke-linecap="round"/>
<path d="M89.4002 51.8783C88.287 51.1306 91.4457 47.5368 92.2339 47.0968C94.1688 46.0166 93.6336 48.9227 93.4135 49.9736C92.996 51.9673 92.5939 53.9497 92.2876 55.9597C92.1952 56.5663 92.2681 56.1976 92.3212 55.8695C92.4461 55.0977 92.5863 54.344 92.837 53.5977C93.4005 51.9202 94.0259 50.2715 95.252 48.9798C96.1299 48.055 97.9149 46.6219 98.7196 48.2382C100.036 50.8827 96.9346 58.0382 101.198 54.7159" stroke="#648DF5" stroke-width="1.2" stroke-linecap="round"/>
<defs>
<linearGradient id="paint0_linear_4137_94208" x1="36.3651" y1="92.3626" x2="35.1456" y2="87.9131" gradientUnits="userSpaceOnUse">
<stop stop-color="#F6F6F6" stop-opacity="0"/>
<stop offset="0.5" stop-color="#BEBEBE" stop-opacity="0.31"/>
<stop offset="1" stop-color="#8C8C8C" stop-opacity="0.6"/>
</linearGradient>
<linearGradient id="paint1_linear_4137_94208" x1="39.5977" y1="48.3481" x2="7.44006" y2="85.8424" gradientUnits="userSpaceOnUse">
<stop stop-color="#EDEDED"/>
<stop offset="1" stop-color="#EBEBEB"/>
</linearGradient>
<linearGradient id="paint2_linear_4137_94208" x1="31.3842" y1="71.304" x2="10.1901" y2="42.3435" gradientUnits="userSpaceOnUse">
<stop stop-color="#F6F6F6"/>
<stop offset="1" stop-color="#F0F0F0"/>
</linearGradient>
<linearGradient id="paint3_linear_4137_94208" x1="37.6934" y1="19.6067" x2="35.3175" y2="15.4414" gradientUnits="userSpaceOnUse">
<stop stop-color="#F6F6F6" stop-opacity="0"/>
<stop offset="0.13" stop-color="#EFEFEF" stop-opacity="0.22"/>
<stop offset="0.29" stop-color="#E8E8E8" stop-opacity="0.46"/>
<stop offset="0.45" stop-color="#E3E3E3" stop-opacity="0.65"/>
<stop offset="0.6" stop-color="#DEDEDE" stop-opacity="0.8"/>
<stop offset="0.75" stop-color="#DBDBDB" stop-opacity="0.91"/>
<stop offset="0.88" stop-color="#D9D9D9" stop-opacity="0.98"/>
<stop offset="1" stop-color="#D9D9D9"/>
</linearGradient>
<linearGradient id="paint4_linear_4137_94208" x1="36.5392" y1="17.6872" x2="32.7498" y2="19.4586" gradientUnits="userSpaceOnUse">
<stop stop-color="#F6F6F6" stop-opacity="0"/>
<stop offset="0.1" stop-color="#F3F3F3" stop-opacity="0.05"/>
<stop offset="0.28" stop-color="#EEEEEE" stop-opacity="0.19"/>
<stop offset="0.5" stop-color="#E4E4E4" stop-opacity="0.41"/>
<stop offset="0.77" stop-color="#D8D8D8" stop-opacity="0.71"/>
<stop offset="1" stop-color="#CCCCCC"/>
</linearGradient>
<linearGradient id="paint5_linear_4137_94208" x1="19.7654" y1="45.7354" x2="18.159" y2="44.2535" gradientUnits="userSpaceOnUse">
<stop stop-color="#F6F6F6" stop-opacity="0"/>
<stop offset="1" stop-color="#B3B3B3" stop-opacity="0.8"/>
</linearGradient>
<linearGradient id="paint6_linear_4137_94208" x1="16.3671" y1="76.687" x2="16.779" y2="76.1638" gradientUnits="userSpaceOnUse">
<stop stop-color="#969696" stop-opacity="0"/>
<stop offset="0.15" stop-color="#969696" stop-opacity="0.04"/>
<stop offset="0.35" stop-color="#969696" stop-opacity="0.15"/>
<stop offset="0.57" stop-color="#979797" stop-opacity="0.34"/>
<stop offset="0.82" stop-color="#989898" stop-opacity="0.59"/>
<stop offset="0.99" stop-color="#999999" stop-opacity="0.8"/>
</linearGradient>
<linearGradient id="paint7_linear_4137_94208" x1="26.3326" y1="58.803" x2="24.6123" y2="58.7628" gradientUnits="userSpaceOnUse">
<stop stop-color="#F6F6F6" stop-opacity="0"/>
<stop offset="0.64" stop-color="#BBBBBB" stop-opacity="0.44"/>
<stop offset="1" stop-color="#999999" stop-opacity="0.7"/>
</linearGradient>
<linearGradient id="paint8_linear_4137_94208" x1="38.2009" y1="90.8639" x2="32.3426" y2="89.5662" gradientUnits="userSpaceOnUse">
<stop stop-color="#F6F6F6" stop-opacity="0"/>
<stop offset="0.11" stop-color="#F2F2F2" stop-opacity="0.06"/>
<stop offset="0.3" stop-color="#E7E7E7" stop-opacity="0.21"/>
<stop offset="0.55" stop-color="#D6D6D6" stop-opacity="0.46"/>
<stop offset="0.85" stop-color="#BFBFBF" stop-opacity="0.81"/>
<stop offset="1" stop-color="#B3B3B3"/>
</linearGradient>
<linearGradient id="paint9_linear_4137_94208" x1="22.1856" y1="41.8319" x2="8.05103" y2="22.517" gradientUnits="userSpaceOnUse">
<stop stop-color="#F6F6F6"/>
<stop offset="1" stop-color="#EBEBEB"/>
</linearGradient>
</defs>
</svg>
