<svg width="206" height="99" viewBox="0 0 206 99" fill="none" xmlns="http://www.w3.org/2000/svg">
<path d="M76.4169 44.3368H68.42L41.5508 16.2764C40.1925 14.855 38.2855 14.0273 36.3245 14.0003C34.3276 13.9823 32.4295 14.747 31.0263 16.1325L2.10613 44.6966C0.72984 46.0641 -0.0347665 47.9534 0.00121501 49.8967C0.0371965 51.8399 0.891757 53.6932 2.33102 55.0067L29.3171 79.4864L29.0203 92.0906C28.9843 93.8989 29.6859 95.6713 30.9543 96.9668C32.2226 98.2623 33.9857 99 35.7848 99H65.1277C68.8608 99 71.9012 95.9592 71.9012 92.2256V87.1425L76.291 87.2145C78.3239 87.2415 80.2759 86.4678 81.7332 85.0283C83.1724 83.6068 84 81.6366 84 79.6124V51.9299C84 47.7375 80.5908 44.3278 76.3989 44.3278L76.4169 44.3368Z" fill="white"/>
<path d="M75.9217 50.7158H67.583C67.3941 50.6978 67.1872 50.6978 66.9623 50.7158H65.2802V50.5988L37.0707 21.144C36.6569 20.7122 35.9643 20.7032 35.5415 21.126L7.03514 49.2853C6.71131 49.6002 6.7203 50.122 7.06212 50.4279L35.7664 76.464L35.4155 91.7132C35.4155 91.9741 35.6224 92.19 35.8833 92.19H64.8124C65.0733 92.19 65.2802 91.9831 65.2802 91.7222V80.4045L75.9037 80.5754C76.6233 80.5844 77.208 80.0087 77.208 79.2889V52.0023C77.208 51.2916 76.6323 50.7158 75.9217 50.7158V50.7158Z" fill="#26272E"/>
<g opacity="0.97">
<path d="M46.0137 50.6523H76.2651C76.9847 50.6523 77.5604 51.2371 77.5604 51.9478V79.5134C77.5604 80.2421 76.9667 80.8179 76.2471 80.8089L55.117 80.458" fill="url(#paint0_linear_4137_94311)"/>
<path d="M35.7136 76.6605L6.71252 50.3635C6.37069 50.0576 6.3617 49.5268 6.68553 49.2119L35.4797 20.7647C35.9115 20.3419 36.6041 20.3509 37.0269 20.7827L65.5153 50.5344V92.0626C65.5153 92.3235 65.3084 92.5304 65.0475 92.5304H35.8215C35.5607 92.5304 35.3448 92.3145 35.3538 92.0536L35.7136 76.6515V76.6605Z" fill="url(#paint1_linear_4137_94311)"/>
<path d="M36.7314 49.338L6.56091 49.7878C6.56091 49.7878 6.52493 49.7338 6.56091 49.7338L36.8843 45.5234L36.7314 49.338Z" fill="url(#paint2_linear_4137_94311)"/>
<path d="M65.6329 80.4107L65.543 50.695L65.6959 50.677C67.9627 50.857 68.7813 49.6784 69.312 53.439C70.1216 59.2508 68.9522 72.1519 68.4845 76.3982C67.9807 80.9325 65.6419 80.4107 65.6419 80.4107H65.6329Z" fill="url(#paint3_linear_4137_94311)"/>
<path d="M65.5235 50.6797L65.0468 91.6501L50.1055 91.5691L51.5087 51.3904L65.5235 50.6797Z" fill="url(#paint4_linear_4137_94311)"/>
<path d="M36.7305 49.3379L65.5067 50.5614V50.6424C64.5082 53.7282 61.9445 55.4196 59.8486 56.1933C52.3105 58.9732 43.513 57.5968 36.7934 54.4659L36.7305 49.3469V49.3379Z" fill="url(#paint5_linear_4137_94311)"/>
<path d="M35.8479 49.6602L7.81836 50.2899L13.7553 55.7059L35.9559 54.4553L35.8479 49.6602Z" fill="url(#paint6_linear_4137_94311)"/>
<path d="M36.1626 49.2637L35.1551 76.1095L9.41039 51.9087C8.7897 51.3239 9.17651 50.2713 10.0311 50.2443L36.1626 49.2637V49.2637Z" fill="url(#paint7_linear_4137_94311)"/>
<path d="M37.3681 49.0244L65.0738 50.3019L57.1489 42.4569L36.9453 41.998L37.3681 49.0244Z" fill="url(#paint8_linear_4137_94311)"/>
<path d="M36.7114 49.3373L36.3516 20.7012L36.8193 20.7911C37.368 21.5558 37.2871 21.5738 37.6469 22.4465C41.0741 30.6964 41.6318 39.459 37.8268 47.6189L36.7114 49.3463V49.3373Z" fill="url(#paint9_linear_4137_94311)"/>
<path d="M36.6485 49.5605L35.713 76.6582L32.1328 73.3475L36.6485 49.5605Z" fill="url(#paint10_linear_4137_94311)"/>
</g>
<path d="M76.1053 3.88249C67.9626 -2.10994 62.7465 7.84063 61.3243 11.007C59.4768 15.12 56.8076 23.435 62.1572 25.7703C68.9097 27.568 72.4296 22.3974 76.1053 18.6266" stroke="white" stroke-width="1.3" stroke-linecap="round"/>
<path d="M71.1465 16.9904C71.4285 14.6701 79.5328 12.8677 78.4315 17.3821C77.8854 19.621 74.9449 24.5842 76.8126 26.392" stroke="white" stroke-width="1.3" stroke-linecap="round"/>
<path d="M88.5398 15.2887C80.9041 11.5407 77.7833 24.2017 84.6241 24.075C89.2061 23.9901 91.0614 14.7488 88.229 14.9226C87.3134 14.9788 90.0563 20.4756 90.2179 20.8106C91.5424 23.5558 92.6461 26.3519 92.3311 29.4443C91.7725 34.9276 88.2611 37.0575 84.0647 40.0001" stroke="white" stroke-width="1.3" stroke-linecap="round"/>
<path d="M97.5584 14.5947C94.521 15.1063 92.1209 19.9738 93.9417 22.5733C95.6087 24.9534 99.2787 22.7853 99.8273 20.6289C100.558 17.7554 98.6384 14.5932 95.4088 15.4999" stroke="white" stroke-width="1.3" stroke-linecap="round"/>
<path d="M104.186 17.1489C105.566 17.5662 106.799 17.4876 108.178 17.1489" stroke="white" stroke-width="1.3" stroke-linecap="round"/>
<path d="M119.037 16.4251C119.424 14.7758 117.01 13.0522 115 13.2493C112.718 13.4731 111.913 16.5393 111.913 18.1566C111.913 22.6032 117.835 19.4107 118.694 16.8787C119.349 14.9483 119.098 18.6812 119.129 19.4304C119.224 21.7626 119.154 23.9873 118.225 26.1686C116.767 29.5889 113.252 29.9903 109.934 29.9903" stroke="white" stroke-width="1.3" stroke-linecap="round"/>
<path d="M122.57 16.8433C122.421 18.486 123.694 18.8055 125.383 18.0548C126.845 17.4054 128.103 16.5153 128.542 14.7612C128.981 13.0071 126.684 12.0871 124.709 13.4109C121.745 15.3981 121.896 19.9081 123.667 22.5195C125.327 24.9658 128.882 22.99 130.246 21.4154" stroke="white" stroke-width="1.3" stroke-linecap="round"/>
<path d="M130.082 18.7784C131.78 19.973 137.682 15.5512 135.534 13.7759C133.386 12.0006 130.599 15.0254 130.082 16.5534C129.466 18.3731 129.641 22.1675 132.328 23.0349C135.212 23.9655 138.396 21.0531 139.484 19.5226" stroke="white" stroke-width="1.3" stroke-linecap="round"/>
<path d="M143.473 9.60547C142.549 10.0591 141.23 12.7089 140.933 13.6885C140.238 15.9856 138.537 20.8705 140.352 22.9639C142.007 24.8728 144.578 23.1711 145.998 21.975" stroke="white" stroke-width="1.3" stroke-linecap="round"/>
<path d="M138.322 15.034C139.316 15.5037 141.029 15.3024 141.163 15.2769C143.108 14.907 144.164 14.5964 145.999 14.1289" stroke="white" stroke-width="1.3" stroke-linecap="round"/>
<defs>
<linearGradient id="paint0_linear_4137_94311" x1="46.0137" y1="65.7306" x2="77.5694" y2="65.7306" gradientUnits="userSpaceOnUse">
<stop stop-color="#B3B3B3"/>
<stop offset="1" stop-color="#E7E7E7"/>
</linearGradient>
<linearGradient id="paint1_linear_4137_94311" x1="6.45165" y1="56.4991" x2="65.5153" y2="56.4991" gradientUnits="userSpaceOnUse">
<stop stop-color="#F0F0F0"/>
<stop offset="1" stop-color="#E0E0E0"/>
</linearGradient>
<linearGradient id="paint2_linear_4137_94311" x1="21.6551" y1="46.9269" x2="21.8351" y2="49.392" gradientUnits="userSpaceOnUse">
<stop stop-color="#F6F6F6" stop-opacity="0"/>
<stop offset="0.08" stop-color="#ECECEC" stop-opacity="0.11"/>
<stop offset="0.29" stop-color="#D8D8D8" stop-opacity="0.36"/>
<stop offset="0.49" stop-color="#C7C7C7" stop-opacity="0.55"/>
<stop offset="0.68" stop-color="#BCBCBC" stop-opacity="0.69"/>
<stop offset="0.86" stop-color="#B5B5B5" stop-opacity="0.77"/>
<stop offset="1" stop-color="#B3B3B3" stop-opacity="0.8"/>
</linearGradient>
<linearGradient id="paint3_linear_4137_94311" x1="69.294" y1="65.6023" x2="65.7319" y2="65.5124" gradientUnits="userSpaceOnUse">
<stop stop-color="#BFBFBF" stop-opacity="0"/>
<stop offset="0.13" stop-color="#BEBEBE" stop-opacity="0.06"/>
<stop offset="0.37" stop-color="#BBBBBB" stop-opacity="0.22"/>
<stop offset="0.67" stop-color="#B7B7B7" stop-opacity="0.47"/>
<stop offset="1" stop-color="#B3B3B3" stop-opacity="0.8"/>
</linearGradient>
<linearGradient id="paint4_linear_4137_94311" x1="49.3858" y1="70.841" x2="65.4786" y2="71.3807" gradientUnits="userSpaceOnUse">
<stop stop-color="white" stop-opacity="0"/>
<stop offset="0.14" stop-color="white" stop-opacity="0.03"/>
<stop offset="0.34" stop-color="white" stop-opacity="0.1"/>
<stop offset="0.58" stop-color="white" stop-opacity="0.22"/>
<stop offset="0.84" stop-color="white" stop-opacity="0.38"/>
<stop offset="1" stop-color="white" stop-opacity="0.5"/>
</linearGradient>
<linearGradient id="paint5_linear_4137_94311" x1="51.4109" y1="56.6881" x2="50.88" y2="48.3753" gradientUnits="userSpaceOnUse">
<stop stop-color="#F6F6F6" stop-opacity="0"/>
<stop offset="0.12" stop-color="#F0F0F0" stop-opacity="0.06"/>
<stop offset="0.33" stop-color="#E3E3E3" stop-opacity="0.23"/>
<stop offset="0.6" stop-color="#CDCDCD" stop-opacity="0.51"/>
<stop offset="0.91" stop-color="#AEAEAE" stop-opacity="0.89"/>
<stop offset="1" stop-color="#A6A6A6"/>
</linearGradient>
<linearGradient id="paint6_linear_4137_94311" x1="22.4628" y1="56.7585" x2="21.959" y2="51.3065" gradientUnits="userSpaceOnUse">
<stop stop-color="white" stop-opacity="0"/>
<stop offset="0.31" stop-color="white" stop-opacity="0.03"/>
<stop offset="0.75" stop-color="white" stop-opacity="0.1"/>
<stop offset="1" stop-color="white" stop-opacity="0.15"/>
</linearGradient>
<linearGradient id="paint7_linear_4137_94311" x1="28.8404" y1="55.5343" x2="20.2934" y2="65.6633" gradientUnits="userSpaceOnUse">
<stop stop-color="#CCCCCC" stop-opacity="0"/>
<stop offset="0.11" stop-color="#CCCCCC" stop-opacity="0.02"/>
<stop offset="0.24" stop-color="#CDCDCD" stop-opacity="0.09"/>
<stop offset="0.39" stop-color="#D0D0D0" stop-opacity="0.2"/>
<stop offset="0.54" stop-color="#D3D3D3" stop-opacity="0.36"/>
<stop offset="0.71" stop-color="#D7D7D7" stop-opacity="0.56"/>
<stop offset="0.87" stop-color="#DBDBDB" stop-opacity="0.8"/>
<stop offset="1" stop-color="#E0E0E0"/>
</linearGradient>
<linearGradient id="paint8_linear_4137_94311" x1="51.167" y1="49.5642" x2="50.8431" y2="42.6908" gradientUnits="userSpaceOnUse">
<stop stop-color="#F0F0F0" stop-opacity="0.5"/>
<stop offset="0.17" stop-color="#EEEEEE" stop-opacity="0.45"/>
<stop offset="0.47" stop-color="#E9E9E9" stop-opacity="0.3"/>
<stop offset="0.89" stop-color="#E2E2E2" stop-opacity="0.07"/>
<stop offset="1" stop-color="#E0E0E0" stop-opacity="0"/>
</linearGradient>
<linearGradient id="paint9_linear_4137_94311" x1="40.3275" y1="35.1227" x2="35.6319" y2="35.0058" gradientUnits="userSpaceOnUse">
<stop stop-color="#F6F6F6" stop-opacity="0"/>
<stop offset="0.14" stop-color="#EFEFEF" stop-opacity="0.06"/>
<stop offset="0.39" stop-color="#DEDEDE" stop-opacity="0.23"/>
<stop offset="0.7" stop-color="#C3C3C3" stop-opacity="0.51"/>
<stop offset="1" stop-color="#A6A6A6" stop-opacity="0.8"/>
</linearGradient>
<linearGradient id="paint10_linear_4137_94311" x1="33.1583" y1="62.8035" x2="37.1343" y2="63.2172" gradientUnits="userSpaceOnUse">
<stop stop-color="#F6F6F6" stop-opacity="0"/>
<stop offset="1" stop-color="#B3B3B3" stop-opacity="0.8"/>
</linearGradient>
</defs>
</svg>
