<svg width="206" height="99" viewBox="0 0 206 99" fill="none" xmlns="http://www.w3.org/2000/svg">
<path d="M72.8168 55.4231L63.0552 42.9934C62.2861 42.0106 61.2033 41.3266 59.987 41.0357L46.6079 37.8988L58.6687 8.4951C59.6339 6.13651 58.857 3.41627 56.7854 1.93036C55.8438 1.25423 54.7452 0.916168 53.6545 0.900444C53.6231 0.876859 53.5917 0.861135 53.5525 0.837549C51.3553 -0.538294 48.4991 -0.192368 46.6943 1.67878L24.9033 24.219L24.762 24.3448L2.80626 36.6881C0.303081 38.0954 -0.693482 41.193 0.507101 43.8031L3.74789 50.8003C4.37565 52.1525 5.5213 53.1982 6.93375 53.6856L16.9543 57.1606L18.1941 61.9328L17.2211 74.0717C17.0406 76.3202 18.2491 78.4587 20.2736 79.4493C20.6659 79.6379 21.0661 79.7795 21.4742 79.8738C20.8542 81.2025 20.7758 82.7591 21.3251 84.19C21.8822 85.6288 22.9965 86.7373 24.3697 87.3034C25.3819 88.7971 27.0769 89.7248 28.9209 89.7248H52.3127L67.1826 90C67.1826 90 67.2533 90 67.2847 90C70.2116 90 72.6284 87.6965 72.7697 84.7561L73.9938 59.0789C74.0566 57.7581 73.6407 56.453 72.8246 55.4153L72.8168 55.4231Z" fill="white"/>
<path d="M68.1072 58.7478L58.4633 46.4753L41.7572 42.5522L39.0813 41.8367L53.457 6.75667L48.6468 10.9943L50.5771 5.73462L28.794 28.5107L28.0642 29.1554L5.87305 41.6244L9.0746 48.5351L21.7082 52.9221L23.8975 61.3422L22.8617 74.2437L31.2893 66.5704L38.1789 71.8773L26.6125 82.1214L31.0696 82.0978L29.0529 84.1105L52.1622 83.8432L66.9066 84.1105L68.1072 58.7478Z" fill="#26272E"/>
<g opacity="0.97">
<path d="M23.7781 61.3267L22.7188 74.5426L34.6383 63.6852L23.7781 61.3267Z" fill="#E5E5E5"/>
<path d="M28.0879 28.9911L38.5636 38.96L50.6086 5.68823L28.0879 28.9911Z" fill="#D3D3D3"/>
<path d="M26.4707 82.2244H64.4186L43.271 67.0037L26.4707 82.2244Z" fill="#D6D6D6"/>
<path d="M28.9258 84.2377H66.8815L44.5569 67.6726L28.9258 84.2377Z" fill="#EDEDED"/>
<path d="M67.2051 84.5112L49.4318 80.1163L23.7723 61.3263L21.8184 51.8133L37.0101 41.4041L58.6833 46.4829L68.4214 58.889L67.2051 84.5112Z" fill="url(#paint0_linear_4137_93727)"/>
<path d="M23.7714 61.5147L39.1043 41.8048L53.5505 6.58325L27.9695 28.9898L5.55859 41.5847L8.79154 48.574L21.5585 53.0003L23.7714 61.5147Z" fill="url(#paint1_linear_4137_93727)"/>
<path d="M39.1044 41.8059L23.7715 61.5001L42.5335 42.7258L39.1044 41.8059Z" fill="url(#paint2_linear_4137_93727)"/>
<path d="M21.5586 53.0002L23.7714 61.499L28.5267 55.3824L21.5586 53.0002Z" fill="url(#paint3_linear_4137_93727)"/>
<path d="M27.9688 28.9898L39.1036 41.8048L53.5498 6.58325L27.9688 28.9898Z" fill="url(#paint4_linear_4137_93727)"/>
<path d="M38.0225 71.7585L49.4319 80.1158L67.2053 84.5106L51.3466 84.2119L35.127 74.408L38.0225 71.7585Z" fill="url(#paint5_linear_4137_93727)"/>
</g>
<path d="M64 33.7698C65.5631 34.8177 67.638 34.7251 69.3076 34.0005C73.1829 32.3186 76.5213 28.9569 79.4106 26.0187C82.2096 23.1722 85.3128 19.9835 87.046 16.3297C87.9615 14.3998 88.5067 10.8592 85.1372 12.3619C81.0501 14.1845 77.6407 19.8198 75.8722 23.6656C73.1523 29.5805 71.1115 35.3677 72.7958 42.6006C73.4863 45.5654 74.9357 48.938 78.0359 49.4625C81.1361 49.9871 82.5274 48.5352 84.586 45.7534C87.046 42.429 89.2811 40.2237 91.7484 37.507" stroke="#F6523D" stroke-width="1.2" stroke-linecap="round"/>
<path d="M97.1586 41.4981C96.5766 43.7656 92.5494 48.6343 90.0616 45.1957C89.4536 44.6393 88.6024 42.7476 90.0616 39.6319C90.434 38.5246 92.7133 36.2687 94.179 36.4691C96.9889 36.8531 97.8023 38.9906 97.1586 41.4981Z" stroke="#F6523D" stroke-width="1.2" stroke-linecap="round"/>
<path d="M97.125 42.0442C98.435 37.9641 98.7596 37.4046 99.6758 35.3366C100.366 33.7776 100.306 38.9419 100.306 39.4478C100.306 43.6591 100.312 50.2487 105.734 43.4568C108.046 40.5605 108.754 35.3366 108.354 35.3366C107.547 35.3366 107.396 42.7512 107.404 43.4568C107.441 46.377 109.311 45.5529 110.787 43.0416" stroke="#F6523D" stroke-width="1.2" stroke-linecap="round"/>
<path d="M111.937 37.0378C111.227 38.1193 111.566 39.9652 112.847 40.747C114.39 41.6888 116.115 39.8963 117.008 38.7098C119.71 35.1167 117.008 32.9577 113.596 35.1832C110.789 37.0143 109.969 42.7209 111.35 44.6416C112.731 46.5623 116.137 44.9443 117.613 43.9695" stroke="#F6523D" stroke-width="1.2" stroke-linecap="round"/>
<path d="M127.067 36.3838C125.304 38.3497 123.512 47.2296 129.602 45.1895C132.307 43.5204 133.744 38.7425 134.185 36.7404C134.399 35.7742 133.96 35.2483 133.731 36.3838C133.222 38.9049 133.375 41.7051 132.935 44.2854C132.095 49.2187 131.2 54.2485 129.602 59.0002" stroke="#F6523D" stroke-width="1.2" stroke-linecap="round"/>
<path d="M143.328 39.287C143.367 38.2299 143.53 37.4731 142.606 36.6446C140.465 34.7256 137.757 36.9608 136.789 39.2031C134.172 43.6966 137.528 49.4989 141.714 45.1172C142.97 43.456 143.916 41.112 144.304 39.0773C144.728 36.8545 143.709 37.8652 143.328 39.287ZM143.328 39.287C142.737 41.4904 142.338 43.9115 144.474 45.1172" stroke="#F6523D" stroke-width="1.2" stroke-linecap="round"/>
<path d="M155.483 45.3822C152.546 45.0752 151.7 42.6003 150.835 40.5603C149.848 38.2313 149.044 35.4633 150.629 33.2036C151.703 31.6719 153.338 31.2932 154.434 33.0733C154.751 33.5892 155.483 34.4402 155.483 35.182C155.483 36.1439 154.805 36.8287 154.204 36.4802C153.501 36.0726 153.83 34.9966 155.483 33.4642C155.905 33.0733 159.394 30.3929 161.343 31.7558C163.808 33.4791 158.604 37.6404 157.779 38.5462C155.679 40.8519 153.097 43.0434 152.291 45.7131" stroke="#F6523D" stroke-width="1.2" stroke-linecap="round"/>
<defs>
<linearGradient id="paint0_linear_4137_93727" x1="41.475" y1="71.2009" x2="61.4365" y2="51.2696" gradientUnits="userSpaceOnUse">
<stop stop-color="#F0F0F0"/>
<stop offset="1" stop-color="#E0E0E0"/>
</linearGradient>
<linearGradient id="paint1_linear_4137_93727" x1="5.55859" y1="34.0529" x2="53.5505" y2="34.0529" gradientUnits="userSpaceOnUse">
<stop stop-color="#F6F6F6"/>
<stop offset="1" stop-color="#D9D9D9"/>
</linearGradient>
<linearGradient id="paint2_linear_4137_93727" x1="32.9655" y1="51.9826" x2="31.3427" y2="50.4574" gradientUnits="userSpaceOnUse">
<stop stop-color="#F6F6F6" stop-opacity="0"/>
<stop offset="0.07" stop-color="#EDEDED" stop-opacity="0.13"/>
<stop offset="0.23" stop-color="#DBDBDB" stop-opacity="0.39"/>
<stop offset="0.4" stop-color="#CDCDCD" stop-opacity="0.61"/>
<stop offset="0.56" stop-color="#C1C1C1" stop-opacity="0.78"/>
<stop offset="0.71" stop-color="#B9B9B9" stop-opacity="0.9"/>
<stop offset="0.86" stop-color="#B4B4B4" stop-opacity="0.98"/>
<stop offset="1" stop-color="#B3B3B3"/>
</linearGradient>
<linearGradient id="paint3_linear_4137_93727" x1="23.3235" y1="59.8448" x2="24.7685" y2="54.6387" gradientUnits="userSpaceOnUse">
<stop stop-color="#F6F6F6" stop-opacity="0"/>
<stop offset="0.13" stop-color="#F5F5F5" stop-opacity="0.02"/>
<stop offset="0.27" stop-color="#F2F2F2" stop-opacity="0.09"/>
<stop offset="0.41" stop-color="#EDEDED" stop-opacity="0.19"/>
<stop offset="0.56" stop-color="#E7E7E7" stop-opacity="0.34"/>
<stop offset="0.72" stop-color="#DFDFDF" stop-opacity="0.54"/>
<stop offset="0.87" stop-color="#D5D5D5" stop-opacity="0.77"/>
<stop offset="1" stop-color="#CCCCCC"/>
</linearGradient>
<linearGradient id="paint4_linear_4137_93727" x1="53.9318" y1="16.9526" x2="35.7884" y2="33.2957" gradientUnits="userSpaceOnUse">
<stop stop-color="#F5F5F5" stop-opacity="0.02"/>
<stop offset="0.16" stop-color="#EEEEEE" stop-opacity="0.28"/>
<stop offset="0.31" stop-color="#E7E7E7" stop-opacity="0.5"/>
<stop offset="0.46" stop-color="#E2E2E2" stop-opacity="0.68"/>
<stop offset="0.6" stop-color="#DEDEDE" stop-opacity="0.82"/>
<stop offset="0.74" stop-color="#DBDBDB" stop-opacity="0.92"/>
<stop offset="0.88" stop-color="#D9D9D9" stop-opacity="0.98"/>
<stop offset="1" stop-color="#D9D9D9"/>
</linearGradient>
<linearGradient id="paint5_linear_4137_93727" x1="49.2201" y1="83.0011" x2="50.9357" y2="79.8906" gradientUnits="userSpaceOnUse">
<stop stop-color="#F6F6F6" stop-opacity="0"/>
<stop offset="0.16" stop-color="#EEEEEE" stop-opacity="0.07"/>
<stop offset="0.44" stop-color="#DADADA" stop-opacity="0.24"/>
<stop offset="0.8" stop-color="#B9B9B9" stop-opacity="0.53"/>
<stop offset="1" stop-color="#A6A6A6" stop-opacity="0.7"/>
</linearGradient>
</defs>
</svg>
