<svg width="206" height="99" viewBox="0 0 206 99" fill="none" xmlns="http://www.w3.org/2000/svg">
<path d="M79.0493 29.7524L78.0007 28.1809L77.8778 22.8444C77.8532 21.7968 77.5419 20.7819 76.9848 19.8979L74.7483 16.3866L76.2393 13.0718C77.2142 10.8946 76.7391 8.34918 75.0515 6.6713C73.3638 4.99342 70.8078 4.52689 68.6369 5.50906L50.4008 13.7593C48.9754 14.4059 47.8776 15.6009 47.3615 17.0742L44.9366 23.9412C44.7809 24.0967 44.6416 24.2522 44.5024 24.4159L38.6039 28.762C38.2926 28.9912 38.0141 29.2449 37.7519 29.5314L29.2975 38.8784C29.1828 38.993 29.0763 39.1076 28.978 39.2304L25.6928 42.8644L25.4962 43.069C25.4471 43.0936 25.3979 43.1181 25.3488 43.1509C23.571 44.1167 22.3504 45.8928 22.0964 47.898L19.1062 71.0282L17.1974 71.1019C16.6485 70.5208 15.985 70.0297 15.2477 69.6614C13.4536 68.7774 11.3809 68.7201 9.54582 69.5059L3.75386 71.9695C1.68121 72.8534 0.32129 74.8587 0.272136 77.1013L0.00179036 87.8152C-0.0391711 89.4522 0.624405 91.0237 1.82048 92.145C3.01656 93.2581 4.63863 93.8228 6.2689 93.6592L22.8501 92.0959C23.8086 93.3727 25.2914 94.2239 26.9545 94.3712L45.764 95.9754C45.9278 95.9918 46.0917 96 46.2555 96C46.7143 96 47.1567 95.9427 47.5909 95.8445L54.2102 95.7299C56.3648 95.6972 58.3146 94.5677 59.4205 92.7261C59.7728 92.1368 60.0268 91.4984 60.1661 90.8436L62.2305 92.2432C64.1803 93.7328 66.8919 93.9211 69.0547 92.6115C71.537 91.1055 72.6102 88.0444 71.6025 85.3189C71.5124 85.0815 71.4141 84.8523 71.2912 84.6232L69.9722 82.135C69.9313 82.0449 69.8821 81.9549 69.8412 81.8731L69.2431 80.7599C69.0711 78.0344 68.5386 72.2969 67.3015 59.1439L68.8827 45.3444C68.9646 44.7387 68.9728 44.1249 68.9154 43.5192C69.0301 43.4864 69.153 43.4537 69.2677 43.4128L74.0848 41.7595C75.3628 41.3175 76.4442 40.4499 77.1323 39.2958L79.1804 35.891C80.3191 33.9921 80.27 31.6021 79.0411 29.7606L79.0493 29.7524Z" fill="white"/>
<path d="M72.0602 30.0175L71.9045 23.1095L69.1601 18.8125C69.0372 18.7061 68.857 18.7307 68.7669 18.8698L67.407 18.5424L70.7822 11.0288L52.7837 19.1727L49.687 27.9467C49.3593 27.824 48.9579 28.004 48.876 28.3887V28.4378L42.1665 33.3814L33.671 42.7776H33.6547L33.5646 42.8922L30.2139 46.5917L28.9195 47.9504L28.9605 47.9749L28.641 48.2204C28.2887 48.0486 27.9201 48.2041 27.8709 48.6133L28.0921 48.7115L27.8381 48.8916L24.6923 75.0502L24.766 76.7444L13.4852 77.0309L13.0019 75.2957C12.838 74.6491 12.6004 74.6 11.986 74.8619L6.10395 77.1864L5.8418 87.843L27.15 85.2811L27.789 87.9412L46.0168 90.0447L46.066 89.9137L53.775 89.7746C54.1108 89.7746 54.3238 89.4145 54.1682 89.1116L52.5215 85.7804L53.6193 85.764C54.1436 85.7559 54.5942 85.3057 54.3566 84.8392L50.6291 77.5874L50.9814 76.5562L51.0142 76.4661L51.8743 74.0434L52.6608 72.3901C53.0295 73.3641 53.2507 73.9534 53.2507 73.9616L60.8777 84.1926L65.4981 87.3273C65.7357 87.5974 66.1699 87.5156 66.0388 87.18L63.3927 82.2773C63.4665 81.9581 61.8444 63.1986 61.4266 58.7543L63.065 44.4964C63.1633 43.8007 62.893 43.1868 62.4506 42.6466L65.277 36.2789L67.2267 37.9404L71.9865 36.3034L74.0018 32.9476L72.0602 30.0339V30.0175Z" fill="#26272E"/>
<g opacity="0.97">
<path d="M45.2539 86.0323L53.8804 85.885C54.4129 85.8768 54.7488 85.3121 54.503 84.8455L48.6865 73.5342L45.2539 86.0405V86.0323Z" fill="url(#paint0_linear_4137_93340)"/>
<path d="M67.4977 18.4505L70.9057 10.855L52.727 19.0807L49.1797 29.1316L62.3283 43.234L69.0132 27.9939L68.874 18.7778L67.4977 18.4505Z" fill="#EFEFEF"/>
<path d="M42.0014 33.4369L28.5742 48.2841L50.9064 77.0454L62.3511 42.2274L49.2024 28.125L42.0014 33.4369Z" fill="url(#paint1_linear_4137_93340)"/>
<path d="M45.0352 90.0259L54.0713 89.8704C54.4153 89.8704 54.6283 89.5021 54.4727 89.1992L48.4677 77.5195L45.0352 90.0259V90.0259Z" fill="#F2F2F2"/>
<path d="M28.0593 85.7458L5.8418 87.8329L6.11214 77.1763L28.9195 76.3169L28.0593 85.7458Z" fill="url(#paint2_linear_4137_93340)"/>
<path d="M52.7266 19.0813L57.134 17.0924L68.5787 15.9956L67.4973 18.451L52.7266 19.0813Z" fill="url(#paint3_linear_4137_93340)"/>
<path d="M62.8686 27.4126L52.7266 19.0805L55.2498 19.0723L64.1548 25.5546L62.8686 27.4126Z" fill="url(#paint4_linear_4137_93340)"/>
<path d="M65.2934 36.4074L62.8684 27.6169L61.5413 26.4956L57.9121 32.0776L58.2644 38.2899L62.3278 43.2335L64.3103 38.6582L65.2934 36.4074Z" fill="url(#paint5_linear_4137_93340)"/>
<path d="M60.8299 32.4799L67.3264 38.0292L72.1353 36.3758L74.1751 32.9873L72.209 30.0408L72.0533 23.0674L69.2843 18.7213C69.1615 18.6149 68.973 18.6394 68.8829 18.7785L60.666 30.8184C60.3138 31.3422 60.3793 32.0379 60.8381 32.4799H60.8299Z" fill="#F6F6F6"/>
<path d="M60.8299 32.4799L67.3264 38.0292L72.1353 36.3758L74.1751 32.9873L72.209 30.0408L72.0533 23.0674L69.2843 18.7213C69.1615 18.6149 68.973 18.6394 68.8829 18.7785L60.666 30.8184C60.3138 31.3422 60.3793 32.0379 60.8381 32.4799H60.8299Z" fill="url(#paint6_linear_4137_93340)"/>
<path d="M62.3278 43.2344L49.4004 28.6L50.2196 26.251L64.9412 37.2595L62.3278 43.2344Z" fill="url(#paint7_linear_4137_93340)"/>
<path d="M28.3594 48.9459L42.36 72.4608L51.8057 74.4988L55.5496 66.6742L47.6359 55.6002L42.3764 37.5527L33.4058 42.9301L28.3594 48.9459Z" fill="url(#paint8_linear_4137_93340)"/>
<path d="M65.5863 87.5236L60.9003 84.3479L53.1995 74.4198C53.1995 74.4198 47.0389 57.9929 45.7937 54.9236C45.6544 54.5717 45.5971 54.1952 45.6462 53.8187L48.7757 28.3967C48.8822 27.8975 49.5048 27.7338 49.8407 28.1103C49.8407 28.1103 59.6059 39.3152 62.5142 42.6219C63.0057 43.1784 63.2187 43.9151 63.1122 44.6517L61.4574 59.0569C61.8834 63.5422 63.5956 81.9334 63.5136 82.2608L66.127 87.188C66.2581 87.5318 65.8157 87.7937 65.5699 87.5236H65.5863Z" fill="#F6F6F6"/>
<path d="M5.8418 87.8333L10.7326 86.0326L14.4683 79.7303L13.3705 75.4415C13.2067 74.7867 12.4939 74.443 11.8713 74.7049L6.10395 77.1603L5.84999 87.8333H5.8418Z" fill="#F6F6F6"/>
<path d="M5.8418 87.8333L10.7326 86.0326L14.4683 79.7303L13.3705 75.4415C13.2067 74.7867 12.4939 74.443 11.8713 74.7049L6.10395 77.1603L5.84999 87.8333H5.8418Z" fill="url(#paint9_linear_4137_93340)"/>
<path d="M40.807 57.3778L28.625 48.1535L30.4437 46.2383L40.1188 54.8487L40.807 57.3778Z" fill="url(#paint10_linear_4137_93340)"/>
<path d="M46.2871 89.9449L49.8098 80.0986L51.7514 83.8145L51.35 89.8713L46.2871 89.9449Z" fill="url(#paint11_linear_4137_93340)"/>
<path d="M27.4876 88.5459L24.3418 75.5239L27.8153 48.6451C27.8727 48.1949 28.3888 47.9739 28.7493 48.244L46.6085 61.6834C47.0263 61.9945 47.3458 62.4119 47.5506 62.8866L51.6549 72.5037C51.9908 73.1176 52.0482 73.846 51.8106 74.509L46.2316 90.1501L27.4795 88.5541L27.4876 88.5459Z" fill="#F6F6F6"/>
<path d="M60.9023 84.3459L63.5239 82.2588L64.7036 84.4523L62.8931 85.6718L60.9023 84.3459Z" fill="url(#paint12_linear_4137_93340)"/>
<path d="M50.1137 28.9766L62.3775 42.5715C62.91 43.1608 63.164 43.9547 63.0739 44.7486L61.46 59.0556L63.5163 82.2595L60.8947 84.3466L53.194 74.4185L50.1055 28.9766H50.1137Z" fill="url(#paint13_linear_4137_93340)"/>
<path d="M52.7232 19.0825L62.8653 27.6192L61.8167 28.9943L51.9531 21.3824L52.7232 19.0825Z" fill="url(#paint14_linear_4137_93340)"/>
</g>
<path d="M106.242 29.4912C102.873 24.5373 98.6458 25.1451 93.3851 29.4912C88.9132 34.3093 87.0329 37.2068 86.184 43.0602C85.8426 45.4145 85.7543 48.3894 87.9545 50.1658C91.1259 52.7263 96.7533 51.9501 100.093 50.1658C103.207 48.5021 107.588 44.7128 110.155 42.5" stroke="#FFF53E" stroke-width="1.2" stroke-linecap="round"/>
<path d="M113.574 36.5773C110.885 38.3654 108.092 46.0708 110.528 48.3175C113.079 50.6709 117.192 44.4818 117.646 42.8604C119.27 37.0742 112.19 33.969 109.189 39.3833" stroke="#FFF53E" stroke-width="1.2" stroke-linecap="round"/>
<path d="M118.365 41.9922C118.468 40.3021 120.382 38.6854 121.7 37.6163C123.863 35.8623 122.255 42.2092 122.05 42.9876C121.552 44.882 120.588 50.6264 120.588 48.6782C120.588 47.1306 121.346 45.592 121.906 44.152C122.817 41.8104 123.83 39.2187 125.776 37.4097C128.618 34.7678 128.719 39.0988 128.74 40.9405C128.754 42.1832 127.929 48.6129 129.275 49.2444C130.2 49.6783 131.551 44.4874 132.375 42.9876" stroke="#FFF53E" stroke-width="1.2" stroke-linecap="round"/>
<path d="M139.407 39.2957C138.841 37.6184 135.722 38.3595 134.771 39.2957C133.471 40.5746 131.094 44.3072 133.357 46.5163C135.054 47.954 137.876 45.2056 138.806 44.0676C140.034 42.5647 140.511 40.7193 139.835 38.9549C139.013 36.4524 139.388 38.8706 139.835 39.5674C140.833 41.1226 141.557 43.1659 141.557 44.9675C141.557 53.9445 135.823 62.504 129.963 57.5387" stroke="#FFF53E" stroke-width="1.2" stroke-linecap="round"/>
<path d="M141.555 44.2422C142.648 42.3301 143.713 40.4222 144.917 38.5558C145.118 38.2432 146.273 36.4854 145.71 37.7514C145.328 38.6111 145.317 39.6482 145.202 40.553C145.003 42.1205 144.753 46.6823 144.917 48.2596C145.03 49.3447 145.677 44.847 147.384 42.4095C148.996 40.1079 150.908 37.3141 154.115 37.0024" stroke="#FFF53E" stroke-width="1.2" stroke-linecap="round"/>
<path d="M158.357 40.1251C158.654 39.1356 158.458 36.6476 156.362 36.5773C154.038 36.4994 152.587 39.2926 152.057 41.2735C151.689 42.6529 151.218 46.2353 152.898 46.9466C156.094 48.2996 158.357 42.6415 158.357 40.1251ZM158.357 40.1251C158.357 39.6201 158.459 43.4243 158.467 43.9796" stroke="#FFF53E" stroke-width="1.2" stroke-linecap="round"/>
<path d="M158.465 44.0379C158.465 45.2026 158.84 46.5841 159.989 46.8939C161.905 47.4105 163.626 43.6192 164.152 42.298C164.875 40.4836 166.218 35.6621 165.912 33.6636C165.084 31.9327 164.07 35.4915 163.98 35.9714C163.68 37.5647 163.629 39.776 163.571 41.4116C163.519 42.883 163.099 45.4461 164.183 46.6313C166.199 48.8354 169.21 43.4488 170.059 41.9697" stroke="#FFF53E" stroke-width="1.2" stroke-linecap="round"/>
<path d="M160.396 38.6917C161.788 38.4801 163.333 38.3767 163.915 38.3324C165.308 38.2266 166.729 38.2843 168.127 38.2843" stroke="#FFF53E" stroke-width="1.2" stroke-linecap="round"/>
<path d="M177.788 36.5757C176.033 36.5757 174.263 36.7067 173.47 38.7506C173.022 39.9041 174.056 40.5366 174.745 41.1655C175.691 42.0303 175.979 43.2607 175.788 44.5879C175.273 48.1635 167.355 48.3898 169.441 42.7641" stroke="#FFF53E" stroke-width="1.2" stroke-linecap="round"/>
<path d="M186 34.4585C184.832 36.4097 184.551 44.5996 184.551 41.989" stroke="#FFF53E" stroke-width="1.2" stroke-linecap="round"/>
<path d="M184.553 46.3091L184.07 45.4629" stroke="#FFF53E" stroke-width="1.2" stroke-linecap="round"/>
<defs>
<linearGradient id="paint0_linear_4137_93340" x1="45.2539" y1="79.7792" x2="54.5849" y2="79.7792" gradientUnits="userSpaceOnUse">
<stop stop-color="#B3B3B3"/>
<stop offset="1" stop-color="#BFBFBF"/>
</linearGradient>
<linearGradient id="paint1_linear_4137_93340" x1="28.5742" y1="52.5811" x2="62.3511" y2="52.5811" gradientUnits="userSpaceOnUse">
<stop stop-color="#F6F6F6"/>
<stop offset="1" stop-color="#E7E7E7"/>
</linearGradient>
<linearGradient id="paint2_linear_4137_93340" x1="5.8418" y1="82.079" x2="28.9195" y2="82.079" gradientUnits="userSpaceOnUse">
<stop stop-color="#BFBFBF"/>
<stop offset="1" stop-color="#D4D4D4"/>
</linearGradient>
<linearGradient id="paint3_linear_4137_93340" x1="60.7618" y1="16.6384" x2="60.7771" y2="18.969" gradientUnits="userSpaceOnUse">
<stop stop-color="#F6F6F6" stop-opacity="0"/>
<stop offset="1" stop-color="#CCCCCC"/>
</linearGradient>
<linearGradient id="paint4_linear_4137_93340" x1="58.7315" y1="21.7732" x2="57.9625" y2="23.2225" gradientUnits="userSpaceOnUse">
<stop stop-color="#F6F6F6" stop-opacity="0"/>
<stop offset="0.27" stop-color="#F7F7F7" stop-opacity="0.06"/>
<stop offset="0.79" stop-color="#FCFCFC" stop-opacity="0.23"/>
<stop offset="1" stop-color="white" stop-opacity="0.3"/>
</linearGradient>
<linearGradient id="paint5_linear_4137_93340" x1="57.7974" y1="34.8686" x2="65.1787" y2="34.8686" gradientUnits="userSpaceOnUse">
<stop stop-color="#F6F6F6" stop-opacity="0"/>
<stop offset="0.07" stop-color="#F2F2F2" stop-opacity="0.13"/>
<stop offset="0.19" stop-color="#EBEBEB" stop-opacity="0.36"/>
<stop offset="0.32" stop-color="#E5E5E5" stop-opacity="0.56"/>
<stop offset="0.45" stop-color="#E1E1E1" stop-opacity="0.72"/>
<stop offset="0.59" stop-color="#DDDDDD" stop-opacity="0.84"/>
<stop offset="0.72" stop-color="#DBDBDB" stop-opacity="0.93"/>
<stop offset="0.86" stop-color="#D9D9D9" stop-opacity="0.98"/>
<stop offset="1" stop-color="#D9D9D9"/>
</linearGradient>
<linearGradient id="paint6_linear_4137_93340" x1="63.1483" y1="28.3466" x2="72.9545" y2="28.3466" gradientUnits="userSpaceOnUse">
<stop stop-color="#F6F6F6" stop-opacity="0"/>
<stop offset="1" stop-color="#F2F2F2"/>
</linearGradient>
<linearGradient id="paint7_linear_4137_93340" x1="57.9368" y1="32.7661" x2="54.8762" y2="36.4274" gradientUnits="userSpaceOnUse">
<stop stop-color="#F6F6F6" stop-opacity="0"/>
<stop offset="0.56" stop-color="#DEDEDE" stop-opacity="0.56"/>
<stop offset="1" stop-color="#CCCCCC"/>
</linearGradient>
<linearGradient id="paint8_linear_4137_93340" x1="34.6756" y1="41.0558" x2="48.4665" y2="72.8711" gradientUnits="userSpaceOnUse">
<stop stop-color="#F6F6F6" stop-opacity="0"/>
<stop offset="1" stop-color="#CCCCCC"/>
</linearGradient>
<linearGradient id="paint9_linear_4137_93340" x1="12.666" y1="77.7824" x2="6.26487" y2="83.5421" gradientUnits="userSpaceOnUse">
<stop stop-color="#F6F6F6" stop-opacity="0"/>
<stop offset="1" stop-color="#E6E6E6"/>
</linearGradient>
<linearGradient id="paint10_linear_4137_93340" x1="35.7961" y1="51.5757" x2="34.4638" y2="53.0832" gradientUnits="userSpaceOnUse">
<stop stop-color="#F6F6F6" stop-opacity="0"/>
<stop offset="0.11" stop-color="#F3F3F3" stop-opacity="0.06"/>
<stop offset="0.3" stop-color="#ECECEC" stop-opacity="0.22"/>
<stop offset="0.56" stop-color="#E1E1E1" stop-opacity="0.48"/>
<stop offset="0.87" stop-color="#D2D2D2" stop-opacity="0.84"/>
<stop offset="1" stop-color="#CCCCCC"/>
</linearGradient>
<linearGradient id="paint11_linear_4137_93340" x1="51.8728" y1="86.3973" x2="48.4449" y2="85.2064" gradientUnits="userSpaceOnUse">
<stop stop-color="#F6F6F6" stop-opacity="0"/>
<stop offset="0.1" stop-color="#F5F5F5" stop-opacity="0.05"/>
<stop offset="0.27" stop-color="#F2F2F2" stop-opacity="0.2"/>
<stop offset="0.51" stop-color="#EFEFEF" stop-opacity="0.43"/>
<stop offset="0.79" stop-color="#EAEAEA" stop-opacity="0.75"/>
<stop offset="1" stop-color="#E6E6E6"/>
</linearGradient>
<linearGradient id="paint12_linear_4137_93340" x1="63.3191" y1="85.3854" x2="62.1493" y2="83.1664" gradientUnits="userSpaceOnUse">
<stop stop-color="#F6F6F6" stop-opacity="0"/>
<stop offset="0.23" stop-color="#EDEDED" stop-opacity="0.06"/>
<stop offset="0.65" stop-color="#D5D5D5" stop-opacity="0.24"/>
<stop offset="1" stop-color="#BFBFBF" stop-opacity="0.4"/>
</linearGradient>
<linearGradient id="paint13_linear_4137_93340" x1="52.9318" y1="56.8703" x2="62.4102" y2="56.0913" gradientUnits="userSpaceOnUse">
<stop stop-color="#F6F6F6" stop-opacity="0"/>
<stop offset="1" stop-color="#F2F2F2"/>
</linearGradient>
<linearGradient id="paint14_linear_4137_93340" x1="56.6309" y1="24.8037" x2="57.7357" y2="23.4767" gradientUnits="userSpaceOnUse">
<stop stop-color="#F6F6F6" stop-opacity="0"/>
<stop offset="0.11" stop-color="#F2F2F2" stop-opacity="0.06"/>
<stop offset="0.32" stop-color="#E8E8E8" stop-opacity="0.24"/>
<stop offset="0.59" stop-color="#D9D9D9" stop-opacity="0.52"/>
<stop offset="0.92" stop-color="#C4C4C4" stop-opacity="0.9"/>
<stop offset="1" stop-color="#BFBFBF"/>
</linearGradient>
</defs>
</svg>
