<svg width="280" height="174" viewBox="0 0 280 174" fill="none" xmlns="http://www.w3.org/2000/svg">
<g clip-path="url(#clip0_4133_88401)">
<path fill-rule="evenodd" clip-rule="evenodd" d="M82.0522 174H82.0615H88V152H84.4918L84.9185 153.707C85.2989 155.232 84.9185 156.843 83.9074 158.013C82.5253 159.615 82.4232 162.012 83.6663 163.738L83.8982 164.055C84.6588 165.561 84.5846 167.373 83.7034 168.802L82.6737 170.471C82.1913 171.276 81.9594 172.216 82.0058 173.166L82.0522 174Z" fill="#26272E" fill-opacity="0.1"/>
<rect width="104" height="22" transform="translate(88 152)" fill="#26272E" fill-opacity="0.1"/>
<path d="M107.808 163.537H96.6386V164.576H101.574V165.861H97.8827V166.914H105.129V169.635H106.441V165.861H102.859V164.576H107.808V163.537ZM97.2401 161.951L97.6503 162.922C99.7489 162.73 101.458 162.026 102.217 160.871C102.969 162.026 104.671 162.73 106.783 162.922L107.193 161.951C104.739 161.726 103.064 160.837 102.934 159.613H106.687V158.588H102.859V157.371H101.574V158.588H97.7596V159.613H101.499C101.355 160.837 99.6737 161.726 97.2401 161.951ZM118.211 157.412H116.926V169.662H118.211V163.455H120.18V162.375H118.211V157.412ZM108.6 160.393H115.86V159.326H112.92V157.576H111.621V159.326H108.6V160.393ZM109.229 164.139C109.229 165.82 110.514 166.989 112.278 166.996C114.034 166.989 115.32 165.82 115.326 164.139C115.32 162.471 114.034 161.295 112.278 161.295C110.514 161.295 109.229 162.471 109.229 164.139ZM110.473 164.139C110.466 163.093 111.232 162.368 112.278 162.361C113.317 162.368 114.075 163.093 114.082 164.139C114.075 165.205 113.317 165.916 112.278 165.902C111.232 165.916 110.466 165.205 110.473 164.139ZM130.241 157.412H128.956V169.662H130.241V163.455H132.209V162.375H130.241V157.412ZM120.629 160.393H127.889V159.326H124.95V157.576H123.651V159.326H120.629V160.393ZM121.258 164.139C121.258 165.82 122.543 166.989 124.307 166.996C126.064 166.989 127.349 165.82 127.356 164.139C127.349 162.471 126.064 161.295 124.307 161.295C122.543 161.295 121.258 162.471 121.258 164.139ZM122.502 164.139C122.496 163.093 123.261 162.368 124.307 162.361C125.346 162.368 126.105 163.093 126.112 164.139C126.105 165.205 125.346 165.916 124.307 165.902C123.261 165.916 122.496 165.205 122.502 164.139ZM142.639 160.994H135.489V157.85H134.204V162.033H142.639V160.994ZM132.714 164.617H143.925V163.578H132.714V164.617ZM134.108 169.375H142.722V168.309H135.407V165.779H134.108V169.375ZM158.017 158.588H149.281V159.641H156.718V159.791C156.711 161.261 156.711 162.997 156.24 165.369L157.552 165.506C158.01 162.997 158.01 161.302 158.017 159.791V158.588ZM148.105 168.008H159.275V166.928H153.642V162.607H152.357V166.928H148.105V168.008ZM171.496 159.148H169.76V157.412H168.461V164.645H169.76V162.854H171.496V161.773H169.76V160.215H171.496V159.148ZM160.326 161.035C160.312 162.744 161.707 163.94 163.58 163.947C165.46 163.94 166.834 162.744 166.847 161.035C166.834 159.312 165.46 158.123 163.58 158.123C161.707 158.123 160.312 159.312 160.326 161.035ZM161.597 161.035C161.584 159.955 162.431 159.21 163.58 159.217C164.728 159.21 165.569 159.955 165.576 161.035C165.569 162.122 164.728 162.84 163.58 162.854C162.431 162.84 161.584 162.122 161.597 161.035ZM161.693 167.311C161.693 168.773 163.279 169.642 165.808 169.635C168.31 169.642 169.869 168.773 169.869 167.311C169.869 165.841 168.31 164.979 165.808 164.973C163.279 164.979 161.693 165.841 161.693 167.311ZM162.992 167.311C162.985 166.49 164.038 166.019 165.808 166.025C167.565 166.019 168.604 166.49 168.597 167.311C168.604 168.145 167.565 168.603 165.808 168.596C164.038 168.603 162.985 168.145 162.992 167.311ZM182.309 157.412H181.01V169.689H182.309V157.412ZM172.588 162.621C172.588 165.267 173.907 166.935 175.76 166.928C177.578 166.935 178.918 165.267 178.918 162.621C178.918 160.003 177.578 158.335 175.76 158.328C173.907 158.335 172.588 160.003 172.588 162.621ZM173.846 162.621C173.839 160.7 174.618 159.497 175.76 159.49C176.881 159.497 177.66 160.7 177.66 162.621C177.66 164.569 176.881 165.766 175.76 165.766C174.618 165.766 173.839 164.569 173.846 162.621Z" fill="#26272E" fill-opacity="0.7"/>
<path fill-rule="evenodd" clip-rule="evenodd" d="M192 152V155.5V174H194.623L197.518 171.133L194.503 169.761L198 166.27L193.418 164.65C193.418 164.65 197.397 161.907 197.397 161.533C197.397 161.533 193.566 159.739 192.982 159.413C192.982 159.413 197.193 157.418 197.981 157.332L192 155.5L194.948 152H192Z" fill="#26272E" fill-opacity="0.1"/>
<path d="M202.538 38.0806L200.926 35.6629L200.737 27.453C200.699 25.8412 200.221 24.2798 199.364 22.9199L195.926 17.5179L198.218 12.4182C199.717 9.06869 198.986 5.15259 196.392 2.57124C193.797 -0.0101188 189.867 -0.727861 186.529 0.783176L158.491 13.4759C156.3 14.4706 154.612 16.3091 153.818 18.5756L150.09 29.1403C149.851 29.3795 149.637 29.6188 149.422 29.8706L140.354 36.557C139.875 36.9095 139.447 37.2999 139.044 37.7406L126.045 52.1206C125.869 52.2969 125.705 52.4732 125.554 52.6621L120.503 58.2529L120.2 58.5677C120.125 58.6055 120.049 58.6433 119.974 58.6937C117.24 60.1795 115.364 62.912 114.973 65.997L110.376 101.582L107.441 101.695C106.597 100.801 105.577 100.046 104.443 99.479C101.685 98.1191 98.4981 98.031 95.6767 99.2398L86.7716 103.03C83.5849 104.39 81.494 107.475 81.4184 110.925L81.0028 127.408C80.9398 129.926 81.96 132.344 83.799 134.069C85.638 135.782 88.1319 136.651 90.6384 136.399L116.132 133.994C117.606 135.958 119.886 137.268 122.442 137.494L151.362 139.962C151.614 139.987 151.866 140 152.118 140C152.823 140 153.503 139.912 154.171 139.761L164.348 139.584C167.661 139.534 170.659 137.796 172.359 134.963C172.901 134.057 173.291 133.074 173.505 132.067L176.679 134.22C179.677 136.512 183.846 136.802 187.172 134.787C190.988 132.47 192.638 127.761 191.089 123.567C190.95 123.202 190.799 122.85 190.61 122.497L188.582 118.669C188.519 118.531 188.444 118.392 188.381 118.266L187.461 116.554C187.197 112.361 186.378 103.534 184.476 83.2984L186.907 62.0683C187.033 61.1365 187.046 60.1921 186.957 59.2603C187.134 59.2099 187.323 59.1596 187.499 59.0966L194.905 56.553C196.87 55.8731 198.533 54.5383 199.591 52.7628L202.74 47.5246C204.491 44.6032 204.415 40.9264 202.526 38.0932L202.538 38.0806Z" fill="white"/>
<path d="M191.793 38.4868L191.554 27.8592L187.334 21.2484C187.145 21.0847 186.868 21.1225 186.73 21.3365L184.639 20.8329L189.828 9.27344L162.156 21.8024L157.394 35.301C156.891 35.1122 156.273 35.3892 156.147 35.981V36.0566L145.832 43.6621L132.77 58.1177H132.745L132.606 58.294L127.455 63.9856L125.464 66.0758L125.527 66.1136L125.036 66.4914C124.495 66.2269 123.928 66.4662 123.852 67.0958L124.192 67.2469L123.802 67.5239L118.965 107.768L119.078 110.374L101.734 110.815L100.991 108.146C100.739 107.151 100.374 107.075 99.4292 107.478L90.3855 111.054L89.9824 127.449L122.744 123.508L123.726 127.6L151.752 130.836L151.827 130.635L163.68 130.421C164.196 130.421 164.524 129.867 164.284 129.401L161.753 124.276L163.44 124.251C164.246 124.238 164.939 123.546 164.574 122.828L158.843 111.671L159.385 110.085L159.435 109.946L160.757 106.219L161.967 103.675C162.533 105.174 162.874 106.081 162.874 106.093L174.6 121.833L181.704 126.656C182.069 127.071 182.737 126.945 182.535 126.429L178.467 118.887C178.58 118.395 176.086 89.5347 175.444 82.6972L177.963 60.762C178.114 59.6917 177.699 58.7473 177.018 57.9162L181.364 48.1197L184.362 50.6758L191.68 48.1574L194.778 42.9947L191.793 38.512V38.4868Z" fill="#26272E"/>
<g opacity="0.97">
<path d="M150.58 124.665L163.843 124.439C164.662 124.426 165.178 123.557 164.801 122.84L155.858 105.438L150.58 124.678V124.665Z" fill="url(#paint0_linear_4133_88401)"/>
<path d="M184.777 20.6932L190.017 9.00781L162.067 21.6627L156.613 37.1257L176.829 58.8216L187.107 35.3754L186.893 21.1968L184.777 20.6932Z" fill="#EFEFEF"/>
<path d="M145.58 43.7484L124.936 66.5902L159.271 110.838L176.867 57.2721L156.651 35.5762L145.58 43.7484Z" fill="url(#paint1_linear_4133_88401)"/>
<path d="M150.24 130.809L164.133 130.57C164.662 130.57 164.99 130.003 164.75 129.537L155.518 111.568L150.24 130.809Z" fill="#F2F2F2"/>
<path d="M124.142 124.225L89.9824 127.436L90.3981 111.041L125.464 109.719L124.142 124.225Z" fill="url(#paint2_linear_4133_88401)"/>
<path d="M162.066 21.6632L168.843 18.6033L186.439 16.916L184.776 20.6936L162.066 21.6632Z" fill="url(#paint3_linear_4133_88401)"/>
<path d="M177.66 34.4816L162.066 21.663L165.946 21.6504L179.637 31.6232L177.66 34.4816Z" fill="url(#paint4_linear_4133_88401)"/>
<path d="M181.39 48.3192L177.661 34.7954L175.621 33.0703L170.041 41.658L170.583 51.2153L176.83 58.8209L179.878 51.782L181.39 48.3192Z" fill="url(#paint5_linear_4133_88401)"/>
<path d="M174.525 42.2764L184.513 50.8138L191.907 48.2702L195.043 43.0571L192.02 38.524L191.781 27.7957L187.524 21.1093C187.335 20.9456 187.045 20.9834 186.907 21.1975L174.273 39.7203C173.731 40.5261 173.832 41.5965 174.538 42.2764H174.525Z" fill="#F6F6F6"/>
<path d="M174.525 42.2764L184.513 50.8138L191.907 48.2702L195.043 43.0571L192.02 38.524L191.781 27.7957L187.524 21.1093C187.335 20.9456 187.045 20.9834 186.907 21.1975L174.273 39.7203C173.731 40.5261 173.832 41.5965 174.538 42.2764H174.525Z" fill="url(#paint6_linear_4133_88401)"/>
<path d="M176.829 58.8217L156.953 36.3073L158.213 32.6934L180.847 49.6296L176.829 58.8217Z" fill="url(#paint7_linear_4133_88401)"/>
<path d="M124.607 67.6101L146.133 103.787L160.656 106.922L166.412 94.8843L154.245 77.8473L146.159 50.082L132.366 58.355L124.607 67.6101Z" fill="url(#paint8_linear_4133_88401)"/>
<path d="M181.843 126.959L174.638 122.073L162.798 106.799C162.798 106.799 153.326 81.5272 151.412 76.8053C151.197 76.2638 151.109 75.6846 151.185 75.1053L155.996 35.9947C156.16 35.2266 157.117 34.9747 157.634 35.554C157.634 35.554 172.648 52.7924 177.119 57.8795C177.875 58.7358 178.203 59.8691 178.039 61.0023L175.494 83.1642C176.149 90.0646 178.782 118.359 178.656 118.862L182.674 126.443C182.876 126.972 182.195 127.375 181.818 126.959H181.843Z" fill="#F6F6F6"/>
<path d="M89.9824 127.437L97.502 124.666L103.246 114.971L101.558 108.372C101.306 107.365 100.21 106.836 99.2528 107.239L90.3855 111.017L89.995 127.437H89.9824Z" fill="#F6F6F6"/>
<path d="M89.9824 127.437L97.502 124.666L103.246 114.971L101.558 108.372C101.306 107.365 100.21 106.836 99.2528 107.239L90.3855 111.017L89.995 127.437H89.9824Z" fill="url(#paint9_linear_4133_88401)"/>
<path d="M143.741 80.581L125.012 66.3899L127.808 63.4434L142.683 76.6901L143.741 80.581Z" fill="url(#paint10_linear_4133_88401)"/>
<path d="M152.168 130.683L157.584 115.535L160.569 121.252L159.952 130.57L152.168 130.683Z" fill="url(#paint11_linear_4133_88401)"/>
<path d="M123.261 128.531L118.424 108.498L123.764 67.1455C123.853 66.453 124.646 66.113 125.2 66.5285L152.659 87.2045C153.301 87.683 153.792 88.3252 154.107 89.0556L160.418 103.851C160.934 104.796 161.022 105.916 160.657 106.936L152.079 130.999L123.248 128.544L123.261 128.531Z" fill="#F6F6F6"/>
<path d="M174.639 122.072L178.669 118.861L180.483 122.236L177.699 124.112L174.639 122.072Z" fill="url(#paint12_linear_4133_88401)"/>
<path d="M158.05 36.8867L176.905 57.802C177.724 58.7086 178.115 59.93 177.976 61.1514L175.495 83.1622L178.656 118.86L174.626 122.071L162.786 106.797L158.037 36.8867H158.05Z" fill="url(#paint13_linear_4133_88401)"/>
<path d="M162.067 21.6641L177.66 34.7975L176.048 36.9129L160.883 25.2024L162.067 21.6641Z" fill="url(#paint14_linear_4133_88401)"/>
</g>
<path d="M33.3491 13.7548C29.5651 6.91148 23.9778 7.17686 16.5822 12.1636C10.1571 17.8602 7.34824 21.3863 5.52059 28.8744C4.78548 31.8862 4.30414 35.7344 6.95479 38.311C10.7755 42.025 18.2098 41.7146 22.7849 39.8133C27.0509 38.0405 33.23 33.6672 36.8506 31.1143" stroke="white" stroke-width="2" stroke-linecap="round"/>
<path d="M42.0384 23.8544C38.3107 25.841 33.7196 35.491 36.6199 38.707C39.6579 42.0757 45.7827 34.556 46.5756 32.509C49.4053 25.2039 40.5542 20.2996 35.9747 26.9517" stroke="white" stroke-width="2" stroke-linecap="round"/>
<path d="M47.6225 31.472C47.9648 29.2922 50.6593 27.4319 52.5101 26.2082C55.5467 24.2004 52.6681 32.2348 52.3053 33.2192C51.4221 35.615 49.4588 42.9475 49.6987 40.4202C49.8892 38.4127 51.0663 36.5106 51.974 34.7119C53.45 31.787 55.0904 28.5504 57.851 26.4446C61.8826 23.3692 61.4819 29 61.282 31.3917C61.1472 33.0055 59.2803 41.2441 60.9577 42.2299C62.1103 42.9072 64.5112 36.3406 65.7705 34.4971" stroke="white" stroke-width="2" stroke-linecap="round"/>
<path d="M75.3915 30.5768C74.8603 28.331 70.7018 28.9064 69.3456 30.0031C67.4931 31.5012 63.9338 36.0491 66.6125 39.1948C68.6485 41.2698 72.6671 38.0537 74.0199 36.6926C75.8065 34.8949 76.656 32.5602 75.9924 30.1877C75.2281 26.8397 75.4198 30.023 75.917 30.9823C77.0265 33.1232 77.7195 35.8634 77.4977 38.2005C76.3926 49.8456 67.8611 60.2396 60.8296 53.0732" stroke="white" stroke-width="2" stroke-linecap="round"/>
<path d="M77.5872 37.2606C79.2483 34.9155 80.8722 32.5723 82.672 30.3002C82.9734 29.9196 84.6951 27.7822 83.8051 29.3548C83.2007 30.4227 83.0597 31.7668 82.7984 32.9263C82.3457 34.935 81.4577 40.8218 81.4774 42.8881C81.4909 44.3098 82.8883 38.5553 85.4152 35.6046C87.8012 32.8185 90.6385 29.4309 94.859 29.4235" stroke="white" stroke-width="2" stroke-linecap="round"/>
<path d="M100.002 33.9989C100.511 32.752 100.563 29.5003 97.8366 29.1496C94.8166 28.761 92.5796 32.2048 91.6453 34.7089C90.9947 36.4527 89.9405 41.0417 92.0437 42.1723C96.0443 44.3229 99.6924 37.2632 100.002 33.9989ZM100.002 33.9989C100.064 33.3438 99.7291 38.2914 99.6705 39.0125" stroke="white" stroke-width="2" stroke-linecap="round"/>
<path d="M99.6629 39.0872C99.5195 40.5981 99.838 42.4365 101.299 42.9807C103.734 43.8879 106.445 39.1829 107.294 37.534C108.46 35.2698 110.806 29.1815 110.653 26.5512C109.785 24.2033 108.025 28.6943 107.848 29.3057C107.261 31.3355 106.922 34.1977 106.645 36.3123C106.396 38.2145 105.534 41.4875 106.801 43.1592C109.159 46.2678 113.748 39.6528 115.038 37.8393" stroke="white" stroke-width="2" stroke-linecap="round"/>
<path d="M102.84 32.3915C104.681 32.2892 106.709 32.3463 107.474 32.3609C109.302 32.3959 111.149 32.6467 112.972 32.8197" stroke="white" stroke-width="2" stroke-linecap="round"/>
<path d="M125.782 31.7998C123.494 31.5828 121.169 31.5337 119.883 34.0868C119.157 35.5277 120.428 36.4762 121.248 37.3772C122.377 38.6163 122.6 40.248 122.188 41.9459C121.075 46.5205 110.722 45.8342 114.135 38.7946" stroke="white" stroke-width="2" stroke-linecap="round"/>
<path d="M136.754 30.071C134.99 32.4576 133.615 43.0469 133.936 39.6604" stroke="white" stroke-width="2" stroke-linecap="round"/>
<path d="M133.405 45.2625L132.879 44.105" stroke="white" stroke-width="2" stroke-linecap="round"/>
</g>
<defs>
<linearGradient id="paint0_linear_4133_88401" x1="150.58" y1="115.045" x2="164.927" y2="115.045" gradientUnits="userSpaceOnUse">
<stop stop-color="#B3B3B3"/>
<stop offset="1" stop-color="#BFBFBF"/>
</linearGradient>
<linearGradient id="paint1_linear_4133_88401" x1="124.936" y1="73.201" x2="176.867" y2="73.201" gradientUnits="userSpaceOnUse">
<stop stop-color="#F6F6F6"/>
<stop offset="1" stop-color="#E7E7E7"/>
</linearGradient>
<linearGradient id="paint2_linear_4133_88401" x1="89.9824" y1="118.583" x2="125.464" y2="118.583" gradientUnits="userSpaceOnUse">
<stop stop-color="#BFBFBF"/>
<stop offset="1" stop-color="#D4D4D4"/>
</linearGradient>
<linearGradient id="paint3_linear_4133_88401" x1="174.421" y1="17.9049" x2="174.444" y2="21.4905" gradientUnits="userSpaceOnUse">
<stop stop-color="#F6F6F6" stop-opacity="0"/>
<stop offset="1" stop-color="#CCCCCC"/>
</linearGradient>
<linearGradient id="paint4_linear_4133_88401" x1="171.299" y1="25.8057" x2="170.116" y2="28.0348" gradientUnits="userSpaceOnUse">
<stop stop-color="#F6F6F6" stop-opacity="0"/>
<stop offset="0.27" stop-color="#F7F7F7" stop-opacity="0.06"/>
<stop offset="0.79" stop-color="#FCFCFC" stop-opacity="0.23"/>
<stop offset="1" stop-color="white" stop-opacity="0.3"/>
</linearGradient>
<linearGradient id="paint5_linear_4133_88401" x1="169.865" y1="45.9519" x2="181.213" y2="45.9519" gradientUnits="userSpaceOnUse">
<stop stop-color="#F6F6F6" stop-opacity="0"/>
<stop offset="0.07" stop-color="#F2F2F2" stop-opacity="0.13"/>
<stop offset="0.19" stop-color="#EBEBEB" stop-opacity="0.36"/>
<stop offset="0.32" stop-color="#E5E5E5" stop-opacity="0.56"/>
<stop offset="0.45" stop-color="#E1E1E1" stop-opacity="0.72"/>
<stop offset="0.59" stop-color="#DDDDDD" stop-opacity="0.84"/>
<stop offset="0.72" stop-color="#DBDBDB" stop-opacity="0.93"/>
<stop offset="0.86" stop-color="#D9D9D9" stop-opacity="0.98"/>
<stop offset="1" stop-color="#D9D9D9"/>
</linearGradient>
<linearGradient id="paint6_linear_4133_88401" x1="178.09" y1="35.9175" x2="193.167" y2="35.9175" gradientUnits="userSpaceOnUse">
<stop stop-color="#F6F6F6" stop-opacity="0"/>
<stop offset="1" stop-color="#F2F2F2"/>
</linearGradient>
<linearGradient id="paint7_linear_4133_88401" x1="170.078" y1="42.7166" x2="165.369" y2="48.3465" gradientUnits="userSpaceOnUse">
<stop stop-color="#F6F6F6" stop-opacity="0"/>
<stop offset="0.56" stop-color="#DEDEDE" stop-opacity="0.56"/>
<stop offset="1" stop-color="#CCCCCC"/>
</linearGradient>
<linearGradient id="paint8_linear_4133_88401" x1="134.319" y1="55.4714" x2="155.544" y2="104.408" gradientUnits="userSpaceOnUse">
<stop stop-color="#F6F6F6" stop-opacity="0"/>
<stop offset="1" stop-color="#CCCCCC"/>
</linearGradient>
<linearGradient id="paint9_linear_4133_88401" x1="100.475" y1="111.974" x2="90.6274" y2="120.829" gradientUnits="userSpaceOnUse">
<stop stop-color="#F6F6F6" stop-opacity="0"/>
<stop offset="1" stop-color="#E6E6E6"/>
</linearGradient>
<linearGradient id="paint10_linear_4133_88401" x1="136.037" y1="71.6548" x2="133.987" y2="73.9727" gradientUnits="userSpaceOnUse">
<stop stop-color="#F6F6F6" stop-opacity="0"/>
<stop offset="0.11" stop-color="#F3F3F3" stop-opacity="0.06"/>
<stop offset="0.3" stop-color="#ECECEC" stop-opacity="0.22"/>
<stop offset="0.56" stop-color="#E1E1E1" stop-opacity="0.48"/>
<stop offset="0.87" stop-color="#D2D2D2" stop-opacity="0.84"/>
<stop offset="1" stop-color="#CCCCCC"/>
</linearGradient>
<linearGradient id="paint11_linear_4133_88401" x1="160.756" y1="125.225" x2="155.485" y2="123.395" gradientUnits="userSpaceOnUse">
<stop stop-color="#F6F6F6" stop-opacity="0"/>
<stop offset="0.1" stop-color="#F5F5F5" stop-opacity="0.05"/>
<stop offset="0.27" stop-color="#F2F2F2" stop-opacity="0.2"/>
<stop offset="0.51" stop-color="#EFEFEF" stop-opacity="0.43"/>
<stop offset="0.79" stop-color="#EAEAEA" stop-opacity="0.75"/>
<stop offset="1" stop-color="#E6E6E6"/>
</linearGradient>
<linearGradient id="paint12_linear_4133_88401" x1="178.354" y1="123.671" x2="176.554" y2="120.259" gradientUnits="userSpaceOnUse">
<stop stop-color="#F6F6F6" stop-opacity="0"/>
<stop offset="0.23" stop-color="#EDEDED" stop-opacity="0.06"/>
<stop offset="0.65" stop-color="#D5D5D5" stop-opacity="0.24"/>
<stop offset="1" stop-color="#BFBFBF" stop-opacity="0.4"/>
</linearGradient>
<linearGradient id="paint13_linear_4133_88401" x1="162.383" y1="79.8002" x2="176.956" y2="78.6032" gradientUnits="userSpaceOnUse">
<stop stop-color="#F6F6F6" stop-opacity="0"/>
<stop offset="1" stop-color="#F2F2F2"/>
</linearGradient>
<linearGradient id="paint14_linear_4133_88401" x1="168.075" y1="30.4658" x2="169.775" y2="28.4255" gradientUnits="userSpaceOnUse">
<stop stop-color="#F6F6F6" stop-opacity="0"/>
<stop offset="0.11" stop-color="#F2F2F2" stop-opacity="0.06"/>
<stop offset="0.32" stop-color="#E8E8E8" stop-opacity="0.24"/>
<stop offset="0.59" stop-color="#D9D9D9" stop-opacity="0.52"/>
<stop offset="0.92" stop-color="#C4C4C4" stop-opacity="0.9"/>
<stop offset="1" stop-color="#BFBFBF"/>
</linearGradient>
<clipPath id="clip0_4133_88401">
<rect width="280" height="174" fill="white"/>
</clipPath>
</defs>
</svg>
