<svg width="280" height="174" viewBox="0 0 280 174" fill="none" xmlns="http://www.w3.org/2000/svg">
<g clip-path="url(#clip0_4133_88701)">
<path fill-rule="evenodd" clip-rule="evenodd" d="M74.0522 173.931H74.0615H80V151.931H76.4918L76.9185 153.638C77.2989 155.163 76.9185 156.774 75.9074 157.944C74.5253 159.546 74.4232 161.943 75.6663 163.669L75.8982 163.986C76.6588 165.492 76.5846 167.304 75.7034 168.733L74.6737 170.402C74.1913 171.207 73.9594 172.147 74.0058 173.097L74.0522 173.931Z" fill="#26272E" fill-opacity="0.1"/>
<rect width="120" height="22" transform="translate(80 151.931)" fill="#26272E" fill-opacity="0.1"/>
<path d="M99.108 157.357H97.8091V166.38H99.108V157.357ZM89.1548 163.933L89.7974 164.945C91.2603 164.48 92.3336 163.468 92.8804 162.19C93.4341 163.372 94.5074 164.295 95.9498 164.74L96.5787 163.714C94.6851 163.147 93.4957 161.739 93.5025 160.2V159.954H96.2095V158.915H93.5162V157.398H92.2037V158.915H89.483V159.954H92.2037V160.2C92.2105 161.827 91.0484 163.338 89.1548 163.933ZM91.0962 169.333H99.4771V168.281H92.4087V165.546H91.0962V169.333ZM107.036 159.366H104.643V157.698H103.358V159.366H100.952V160.419H107.036V159.366ZM101.349 163.974C101.342 165.649 102.463 166.824 104.001 166.818C105.553 166.824 106.66 165.649 106.667 163.974C106.66 162.326 105.553 161.157 104.001 161.157C102.463 161.157 101.342 162.326 101.349 163.974ZM102.497 163.974C102.49 162.955 103.119 162.244 104.001 162.238C104.883 162.244 105.518 162.955 105.518 163.974C105.518 165.013 104.883 165.71 104.001 165.71C103.119 165.71 102.49 165.013 102.497 163.974ZM107.597 169.019H108.827V163.509H110.235V169.593H111.466V157.343H110.235V162.443H108.827V157.616H107.597V169.019ZM117.521 160.952V159.654H120.31V158.573H113.405V159.654H116.208V160.952C116.195 163.065 114.827 165.362 112.982 166.23L113.734 167.255C115.162 166.558 116.311 165.068 116.878 163.318C117.446 164.951 118.594 166.305 120.036 166.941L120.747 165.929C118.861 165.122 117.514 163.003 117.521 160.952ZM121.855 169.593H123.154V157.343H121.855V169.593ZM134.951 158.519H126.214V159.572H133.652V159.722C133.645 161.192 133.645 162.928 133.173 165.3L134.486 165.437C134.944 162.928 134.944 161.233 134.951 159.722V158.519ZM125.039 167.939H136.209V166.859H130.576V162.538H129.291V166.859H125.039V167.939ZM150.574 157.357H149.276V164.152H150.574V157.357ZM140.457 162.894L141.1 163.919C142.569 163.42 143.663 162.367 144.217 161.034C144.778 162.272 145.858 163.236 147.293 163.7L147.922 162.675C146.042 162.101 144.866 160.604 144.873 158.984V157.794H143.547V158.984C143.54 160.679 142.371 162.265 140.457 162.894ZM142.248 169.443H150.779V168.39H149.043V165.861H150.656V164.822H142.358V165.861H143.998V168.39H142.248V169.443ZM145.283 168.39V165.861H147.758V168.39H145.283ZM163.616 163.741H152.446V164.781H163.616V163.741ZM153.649 160.2C153.642 161.745 155.358 162.682 158.024 162.689C160.676 162.682 162.392 161.745 162.399 160.2C162.392 158.662 160.676 157.746 158.024 157.753C155.358 157.746 153.642 158.662 153.649 160.2ZM153.854 169.333H162.358V168.281H155.166V165.779H153.854V169.333ZM154.989 160.2C154.982 159.325 156.144 158.792 158.024 158.792C159.897 158.792 161.066 159.325 161.059 160.2C161.066 161.11 159.897 161.622 158.024 161.622C156.144 161.622 154.982 161.11 154.989 160.2ZM178.31 157.343H177.079V164.917H178.31V157.343ZM167.755 163.099L167.892 164.193C169.519 164.186 172.055 164.158 174.017 163.823L173.962 162.853C173.566 162.901 173.142 162.942 172.704 162.969V159.435H173.702V158.368H167.974V159.435H168.931V163.099H167.755ZM170.052 167.323C170.045 168.732 171.645 169.538 174.235 169.538C176.792 169.538 178.378 168.732 178.378 167.323C178.378 165.936 176.792 165.115 174.235 165.122C171.645 165.115 170.045 165.936 170.052 167.323ZM170.134 163.078V159.435H171.528V163.037C171.064 163.058 170.592 163.072 170.134 163.078ZM171.351 167.323C171.351 166.558 172.431 166.127 174.235 166.134C175.992 166.127 177.072 166.558 177.079 167.323C177.072 168.103 175.992 168.533 174.235 168.527C172.431 168.533 171.351 168.103 171.351 167.323ZM173.306 161.663H174.782V164.534H175.999V157.575H174.782V160.611H173.306V161.663ZM179.839 162.415L180.003 163.495C181.029 163.495 182.225 163.489 183.476 163.427V166.011H184.775V163.352C185.834 163.27 186.914 163.147 187.947 162.962L187.865 162.032C187.42 162.094 186.969 162.142 186.511 162.19C186.757 160.563 186.757 159.366 186.757 158.656V158.163H180.947V159.202H185.486C185.472 159.941 185.424 160.959 185.206 162.292C183.298 162.415 181.377 162.422 179.839 162.415ZM181.589 169.333H190.326V168.281H182.874V165.615H181.589V169.333ZM188.671 166.517H189.97V157.343H188.671V166.517Z" fill="#26272E" fill-opacity="0.7"/>
<path fill-rule="evenodd" clip-rule="evenodd" d="M200 151.931V155.431V173.931H202.623L205.518 171.063L202.503 169.692L206 166.201L201.418 164.58C201.418 164.58 205.397 161.838 205.397 161.464C205.397 161.464 201.566 159.67 200.982 159.344C200.982 159.344 205.193 157.349 205.981 157.263L200 155.431L202.948 151.931H200Z" fill="#26272E" fill-opacity="0.1"/>
<path d="M175.991 99.0503L174.09 55.554C173.996 53.5106 173.139 51.5722 171.684 50.1243L157.026 35.5633L158.446 33.9285C159.995 32.1536 160.675 29.8299 160.394 27.5646L166.684 22.672C169.442 20.5235 170.534 16.8686 169.395 13.5758C168.257 10.2829 165.135 8.06429 161.626 8.06429H152.437C150.841 6.03252 148.329 4.85316 145.642 4.9349L128.577 5.62383C124.165 5.79898 120.362 8.7649 119.118 12.9802L100.329 76.8409C100.106 77.5882 100 78.3589 100 79.1413V91.8457C100 94.2628 101.08 96.5631 102.934 98.1161L105.762 100.475L112.464 133.38C113.238 137.187 116.607 139.931 120.515 139.931H146.275C147.942 139.931 149.538 139.429 150.876 138.53H161.779C165.217 138.53 168.292 136.393 169.489 133.193C170.686 129.982 169.736 126.374 167.13 124.155L163.34 120.921L174.641 103.92C175.592 102.483 176.073 100.778 175.991 99.0503Z" fill="white"/>
<path d="M152.295 122.23L167.399 99.5073L165.521 56.5832L145.371 36.2071L152.002 28.6639L150.382 24.647L161.085 16.5083L147.061 16.7301L145.817 13.5774L128.928 14.4064C128.048 14.4415 127.403 15.6325 127.145 16.4733L108.602 79.5049V92.0458L113.566 96.1794L113.672 96.6465L120.748 131.432H146.18L147.096 130.042H161.473L152.295 122.219V122.23Z" fill="#26272E"/>
<g opacity="0.97">
<path d="M145.992 130.17H161.707L148.645 119.042L145.992 130.17Z" fill="#E5E5E5"/>
<path d="M161.519 130.137L146.979 130.172L152.248 122.255L161.519 130.137Z" fill="url(#paint0_linear_4133_88701)"/>
<path d="M112.064 89.8055L120.573 131.574H146.252L167.693 99.3222L165.792 55.966L141.123 31.468L112.064 89.8055Z" fill="url(#paint1_linear_4133_88701)"/>
<path d="M143.152 16.4153H161.554L147.295 27.4966L143.152 16.4153Z" fill="#E5E5E5"/>
<path d="M136.968 46.4611V115.67L108.309 91.7906V79.1212L136.968 40.1322V46.4611Z" fill="url(#paint2_linear_4133_88701)"/>
<path d="M146.346 16.5205L161.509 16.4387L150.594 24.8227L146.346 16.5205Z" fill="url(#paint3_linear_4133_88701)"/>
<path d="M147.18 16.4504L153.013 16.5322L152.66 23.2814L150.607 24.9278L147.18 16.4504Z" fill="url(#paint4_linear_4133_88701)"/>
<path d="M145.77 36.1028L149.995 40.2948L108.309 79.1203L145.77 36.1028Z" fill="url(#paint5_linear_4133_88701)"/>
<path d="M136.968 115.669L113.966 98.9243L113.32 95.9817L136.968 115.669Z" fill="url(#paint6_linear_4133_88701)"/>
<path d="M136.969 46.215L139.645 43.1907L136.969 115.669V46.215Z" fill="url(#paint7_linear_4133_88701)"/>
<path d="M152.248 122.255L156.32 125.805L152.448 130.149L146.979 130.172L152.248 122.255Z" fill="url(#paint8_linear_4133_88701)"/>
<path d="M145.946 13.2864L152.19 28.7115L108.309 79.1204L127.039 15.4583C127.286 14.6059 128.06 14.0103 128.952 13.9753L145.958 13.2864H145.946Z" fill="url(#paint9_linear_4133_88701)"/>
</g>
<path d="M278 70.2454C276.681 73.0267 276.363 84.7012 276.363 80.9798" stroke="white" stroke-width="1.8" stroke-linecap="round"/>
<path d="M276.909 87.7078L276.363 86.6165" stroke="white" stroke-width="1.8" stroke-linecap="round"/>
<path d="M246.893 78.8371C247.438 75.8978 249.924 75.3712 251.177 74.5023C252.304 73.7212 252.445 74.1093 252.266 75.4297C251.979 77.5518 251.47 79.6524 251.177 81.7807C251.033 82.8298 250.883 90.2626 253.033 87.6478C255.091 85.1435 257.074 81.8059 258.336 78.8371C259.145 76.932 259.324 74.5428 259.324 78.2725C259.324 81.058 258.885 84.3608 259.767 87.043C260.978 90.7211 263.961 84.6247 264.708 83.3735C266.661 80.0988 268.074 76.5018 269.487 72.97" stroke="white" stroke-width="1.8" stroke-linecap="round"/>
<path d="M243.135 74.6086C238.797 75.3522 235.369 82.4267 237.97 86.2048C240.351 89.6641 245.592 86.5129 246.375 83.3789C247.42 79.2025 244.678 74.6065 240.065 75.9242" stroke="white" stroke-width="1.8" stroke-linecap="round"/>
<path d="M193.116 32.0917C187.658 16.8123 178.404 25.8162 174.43 34.8202C171.791 40.7982 169.648 55.1638 177.289 58.558C186.932 61.1709 189.295 53.9196 193.934 47.3712" stroke="white" stroke-width="1.8" stroke-linecap="round"/>
<path d="M187.658 46.2799C193.662 44.6242 197.671 41.6415 197.671 44.6242C196.891 47.8783 192.691 55.0918 195.359 57.7194" stroke="white" stroke-width="1.8" stroke-linecap="round"/>
<path d="M201.45 49.7902C203.875 51.5264 212.305 45.0997 209.237 42.5194C206.169 39.9392 202.188 44.3355 201.45 46.5563C200.57 49.2011 200.82 54.7159 204.659 55.9766C208.777 57.3293 213.324 53.0962 214.878 50.8719" stroke="white" stroke-width="1.8" stroke-linecap="round"/>
<path d="M220.578 36.4563C219.259 37.1157 217.375 40.9669 216.951 42.3906C215.959 45.7293 213.528 52.8291 216.121 55.8718C218.484 58.6461 222.157 56.1728 224.185 54.4344" stroke="white" stroke-width="1.8" stroke-linecap="round"/>
<path d="M239.309 36.4563C238.218 39.4576 238.275 40.1483 237.852 41.5721C235.56 49.2802 236.627 53.5726 237.852 55.01C240.215 57.7843 243.057 55.3543 245.086 53.6159" stroke="white" stroke-width="1.8" stroke-linecap="round"/>
<path d="M213.223 44.3461C214.642 45.0287 217.088 44.7361 217.279 44.699C220.057 44.1615 221.566 43.7099 224.187 43.0305" stroke="white" stroke-width="1.8" stroke-linecap="round"/>
<path d="M232.139 42.6838C233.558 43.3664 236.004 43.0738 236.195 43.0367C238.961 42.6838 239.234 42.6838 242.235 42.1868" stroke="white" stroke-width="1.8" stroke-linecap="round"/>
<path d="M250.59 45.4687C246.712 46.0519 243.544 56.3976 248.49 56.6084C252.397 56.7748 254.206 51.4054 254.19 48.4325C254.16 43.0811 247.148 45.497 246.722 49.5555" stroke="white" stroke-width="1.8" stroke-linecap="round"/>
<path d="M209.779 62.8762C210.163 66.6961 210.052 69.9701 209.506 75.154C208.529 79.6189 208.379 80.8179 207.204 85.2279C206.957 86.1579 206.729 87.0818 206.418 87.9927C206.216 88.5859 206.384 88.2496 206.611 87.9991" stroke="white" stroke-width="1.8" stroke-linecap="round"/>
<path d="M220.376 64.5364C220.45 64.4188 221.01 63.5627 220.563 64.324C219.986 65.3075 219.38 66.2718 218.7 67.1882C216.57 70.0559 214.097 72.6792 211.553 75.1828C211.094 75.6345 209.309 77.7745 208.525 77.6805C208.01 77.6189 210.114 75.5769 210.314 75.4279C210.919 74.976 211.999 74.1079 212.361 75.1678C213.01 77.0685 213.157 79.1232 213.677 81.0632C214.219 83.0852 215 84.6791 216.222 86.3626C216.76 87.1034 217.77 87.3734 218.092 88.0739" stroke="white" stroke-width="1.8" stroke-linecap="round"/>
<path d="M219.7 81.3265C218.061 80.2213 222.711 74.9087 223.872 74.2582C226.72 72.6614 225.932 76.9574 225.608 78.511C224.994 81.4581 224.402 84.3886 223.951 87.36C223.815 88.2567 223.922 87.7117 224 87.2266C224.184 86.0857 224.391 84.9716 224.76 83.8683C225.589 81.3885 226.51 78.9513 228.315 77.0418C229.607 75.6746 232.235 73.5562 233.42 75.9456C235.358 79.8548 230.792 90.4326 237.068 85.5214" stroke="white" stroke-width="1.8" stroke-linecap="round"/>
</g>
<defs>
<linearGradient id="paint0_linear_4133_88701" x1="154.191" y1="129.974" x2="152.351" y2="123.306" gradientUnits="userSpaceOnUse">
<stop stop-color="#F6F6F6" stop-opacity="0"/>
<stop offset="0.5" stop-color="#BEBEBE" stop-opacity="0.31"/>
<stop offset="1" stop-color="#8C8C8C" stop-opacity="0.6"/>
</linearGradient>
<linearGradient id="paint1_linear_4133_88701" x1="159.009" y1="63.953" x2="110.725" y2="119.882" gradientUnits="userSpaceOnUse">
<stop stop-color="#EDEDED"/>
<stop offset="1" stop-color="#EBEBEB"/>
</linearGradient>
<linearGradient id="paint2_linear_4133_88701" x1="146.768" y1="98.388" x2="114.914" y2="55.1463" gradientUnits="userSpaceOnUse">
<stop stop-color="#F6F6F6"/>
<stop offset="1" stop-color="#F0F0F0"/>
</linearGradient>
<linearGradient id="paint3_linear_4133_88701" x1="156.169" y1="20.8409" x2="152.593" y2="14.6132" gradientUnits="userSpaceOnUse">
<stop stop-color="#F6F6F6" stop-opacity="0"/>
<stop offset="0.13" stop-color="#EFEFEF" stop-opacity="0.22"/>
<stop offset="0.29" stop-color="#E8E8E8" stop-opacity="0.46"/>
<stop offset="0.45" stop-color="#E3E3E3" stop-opacity="0.65"/>
<stop offset="0.6" stop-color="#DEDEDE" stop-opacity="0.8"/>
<stop offset="0.75" stop-color="#DBDBDB" stop-opacity="0.91"/>
<stop offset="0.88" stop-color="#D9D9D9" stop-opacity="0.98"/>
<stop offset="1" stop-color="#D9D9D9"/>
</linearGradient>
<linearGradient id="paint4_linear_4133_88701" x1="154.45" y1="17.9616" x2="148.79" y2="20.5904" gradientUnits="userSpaceOnUse">
<stop stop-color="#F6F6F6" stop-opacity="0"/>
<stop offset="0.1" stop-color="#F3F3F3" stop-opacity="0.05"/>
<stop offset="0.28" stop-color="#EEEEEE" stop-opacity="0.19"/>
<stop offset="0.5" stop-color="#E4E4E4" stop-opacity="0.41"/>
<stop offset="0.77" stop-color="#D8D8D8" stop-opacity="0.71"/>
<stop offset="1" stop-color="#CCCCCC"/>
</linearGradient>
<linearGradient id="paint5_linear_4133_88701" x1="129.453" y1="60.034" x2="127.045" y2="57.827" gradientUnits="userSpaceOnUse">
<stop stop-color="#F6F6F6" stop-opacity="0"/>
<stop offset="1" stop-color="#B3B3B3" stop-opacity="0.8"/>
</linearGradient>
<linearGradient id="paint6_linear_4133_88701" x1="124.389" y1="106.46" x2="125.008" y2="105.68" gradientUnits="userSpaceOnUse">
<stop stop-color="#969696" stop-opacity="0"/>
<stop offset="0.15" stop-color="#969696" stop-opacity="0.04"/>
<stop offset="0.35" stop-color="#969696" stop-opacity="0.15"/>
<stop offset="0.57" stop-color="#979797" stop-opacity="0.34"/>
<stop offset="0.82" stop-color="#989898" stop-opacity="0.59"/>
<stop offset="0.99" stop-color="#999999" stop-opacity="0.8"/>
</linearGradient>
<linearGradient id="paint7_linear_4133_88701" x1="139.24" y1="79.6363" x2="136.676" y2="79.5768" gradientUnits="userSpaceOnUse">
<stop stop-color="#F6F6F6" stop-opacity="0"/>
<stop offset="0.64" stop-color="#BBBBBB" stop-opacity="0.44"/>
<stop offset="1" stop-color="#999999" stop-opacity="0.7"/>
</linearGradient>
<linearGradient id="paint8_linear_4133_88701" x1="156.926" y1="127.726" x2="148.191" y2="125.803" gradientUnits="userSpaceOnUse">
<stop stop-color="#F6F6F6" stop-opacity="0"/>
<stop offset="0.11" stop-color="#F2F2F2" stop-opacity="0.06"/>
<stop offset="0.3" stop-color="#E7E7E7" stop-opacity="0.21"/>
<stop offset="0.55" stop-color="#D6D6D6" stop-opacity="0.46"/>
<stop offset="0.85" stop-color="#BFBFBF" stop-opacity="0.81"/>
<stop offset="1" stop-color="#B3B3B3"/>
</linearGradient>
<linearGradient id="paint9_linear_4133_88701" x1="133.06" y1="54.1787" x2="111.816" y2="25.3392" gradientUnits="userSpaceOnUse">
<stop stop-color="#F6F6F6"/>
<stop offset="1" stop-color="#EBEBEB"/>
</linearGradient>
<clipPath id="clip0_4133_88701">
<rect width="280" height="174" fill="white"/>
</clipPath>
</defs>
</svg>
