<svg width="256" height="213" viewBox="0 0 256 213" fill="none" xmlns="http://www.w3.org/2000/svg">
<path d="M175.177 100.982L160.139 81.9231C158.954 80.4163 157.286 79.3675 155.412 78.9215L134.801 74.1115L153.382 29.0258C154.868 25.4093 153.672 21.2383 150.48 18.9599C149.03 17.9232 147.337 17.4048 145.657 17.3807C145.609 17.3445 145.56 17.3204 145.5 17.2842C142.115 15.1746 137.715 15.705 134.934 18.5741L101.365 53.1358L101.147 53.3287L67.3232 72.255C63.4669 74.4129 61.9317 79.1626 63.7812 83.1648L68.7738 93.8938C69.7409 95.9672 71.5058 97.5705 73.6817 98.3179L89.1188 103.646L91.0288 110.964L89.5298 129.577C89.2518 133.024 91.1134 136.303 94.2323 137.822C94.8367 138.112 95.4532 138.328 96.0818 138.473C95.1268 140.51 95.0059 142.897 95.8521 145.091C96.7104 147.297 98.427 148.997 100.542 149.865C102.102 152.156 104.713 153.578 107.554 153.578H143.59L166.498 154C166.498 154 166.606 154 166.655 154C171.164 154 174.887 150.468 175.105 145.959L176.99 106.588C177.087 104.562 176.446 102.561 175.189 100.97L175.177 100.982Z" fill="white"/>
<path d="M167.923 106.082L153.066 87.2644L127.33 81.249L123.208 80.152L145.354 26.3626L137.943 32.8602L140.917 24.7954L107.359 59.7187L106.235 60.7073L72.0488 79.8265L76.981 90.4228L96.4435 97.1495L99.8162 110.06L98.2205 129.843L111.204 118.077L121.817 126.214L103.999 141.922L110.865 141.886L107.758 144.972L143.359 144.562L166.074 144.972L167.923 106.082Z" fill="#26272E"/>
<g opacity="0.97">
<path d="M99.6359 110.037L98.0039 130.302L116.366 113.654L99.6359 110.037Z" fill="#E5E5E5"/>
<path d="M106.273 60.4564L122.412 75.7421L140.968 24.7253L106.273 60.4564Z" fill="#D3D3D3"/>
<path d="M103.781 142.082H162.241L129.663 118.743L103.781 142.082Z" fill="#D6D6D6"/>
<path d="M107.564 145.168H166.037L131.645 119.768L107.564 145.168Z" fill="#EDEDED"/>
<path d="M166.533 145.588L139.153 138.849L99.6233 110.038L96.6133 95.4511L120.017 79.4902L153.405 87.2778L168.407 106.301L166.533 145.588Z" fill="url(#paint0_linear_4132_88633)"/>
<path d="M99.622 110.327L123.243 80.1055L145.498 26.0991L106.089 60.4559L71.5645 79.768L76.5449 90.4849L96.213 97.2719L99.622 110.327Z" fill="url(#paint1_linear_4132_88633)"/>
<path d="M123.244 80.1069L99.623 110.305L128.527 81.5174L123.244 80.1069Z" fill="url(#paint2_linear_4132_88633)"/>
<path d="M96.2129 97.2705L99.6219 110.302L106.948 100.923L96.2129 97.2705Z" fill="url(#paint3_linear_4132_88633)"/>
<path d="M106.09 60.4559L123.243 80.1055L145.498 26.0991L106.09 60.4559Z" fill="url(#paint4_linear_4132_88633)"/>
<path d="M121.574 126.035L139.151 138.849L166.531 145.588L142.1 145.13L117.113 130.097L121.574 126.035Z" fill="url(#paint5_linear_4132_88633)"/>
</g>
<path d="M75 175.087C76.7067 176.246 78.9721 176.144 80.795 175.342C85.0262 173.481 88.6712 169.762 91.8258 166.511C94.8819 163.361 98.2701 159.833 100.162 155.79C101.162 153.655 101.757 149.738 98.0783 151.4C93.6159 153.417 89.8934 159.652 87.9625 163.907C84.9928 170.451 82.7646 176.855 84.6036 184.857C85.3574 188.137 86.94 191.869 90.3249 192.449C93.7098 193.03 95.2289 191.423 97.4765 188.345C100.162 184.667 102.603 182.227 105.297 179.221" stroke="#F6523D" stroke-width="1.7" stroke-linecap="round"/>
<path d="M111.203 183.639C110.567 186.148 106.17 191.535 103.454 187.73C102.79 187.115 101.861 185.022 103.454 181.575C103.861 180.349 106.349 177.853 107.949 178.075C111.017 178.5 111.906 180.865 111.203 183.639Z" stroke="#F6523D" stroke-width="1.7" stroke-linecap="round"/>
<path d="M111.168 184.24C112.598 179.726 112.953 179.107 113.953 176.819C114.707 175.094 114.642 180.808 114.642 181.368C114.642 186.027 114.648 193.318 120.567 185.803C123.092 182.599 123.865 176.819 123.428 176.819C122.547 176.819 122.382 185.023 122.391 185.803C122.431 189.034 124.473 188.122 126.084 185.344" stroke="#F6523D" stroke-width="1.7" stroke-linecap="round"/>
<path d="M127.338 178.703C126.563 179.9 126.934 181.942 128.332 182.807C130.017 183.849 131.9 181.866 132.875 180.553C135.826 176.578 132.875 174.189 129.149 176.651C126.084 178.677 125.19 184.991 126.697 187.116C128.205 189.241 131.924 187.451 133.535 186.373" stroke="#F6523D" stroke-width="1.7" stroke-linecap="round"/>
<path d="M143.861 177.977C141.935 180.152 139.978 189.977 146.628 187.72C149.582 185.873 151.15 180.586 151.633 178.371C151.865 177.302 151.386 176.72 151.136 177.977C150.581 180.766 150.747 183.864 150.268 186.719C149.35 192.178 148.373 197.743 146.628 203" stroke="#F6523D" stroke-width="1.7" stroke-linecap="round"/>
<path d="M161.61 181.189C161.654 180.019 161.832 179.182 160.822 178.265C158.485 176.142 155.528 178.615 154.471 181.096C151.614 186.068 155.278 192.488 159.849 187.64C161.221 185.802 162.253 183.208 162.677 180.957C163.139 178.498 162.026 179.616 161.61 181.189ZM161.61 181.189C160.966 183.627 160.53 186.306 162.862 187.64" stroke="#F6523D" stroke-width="1.7" stroke-linecap="round"/>
<path d="M174.884 187.934C171.678 187.594 170.754 184.856 169.81 182.599C168.732 180.022 167.854 176.959 169.584 174.459C170.757 172.764 172.543 172.345 173.738 174.315C174.085 174.886 174.884 175.827 174.884 176.648C174.884 177.712 174.144 178.47 173.488 178.084C172.72 177.633 173.079 176.443 174.884 174.747C175.345 174.315 179.155 171.349 181.283 172.857C183.974 174.764 178.292 179.368 177.391 180.37C175.098 182.921 172.279 185.346 171.399 188.3" stroke="#F6523D" stroke-width="1.7" stroke-linecap="round"/>
<defs>
<linearGradient id="paint0_linear_4132_88633" x1="126.895" y1="125.179" x2="157.503" y2="94.4739" gradientUnits="userSpaceOnUse">
<stop stop-color="#F0F0F0"/>
<stop offset="1" stop-color="#E0E0E0"/>
</linearGradient>
<linearGradient id="paint1_linear_4132_88633" x1="71.5645" y1="68.2193" x2="145.498" y2="68.2193" gradientUnits="userSpaceOnUse">
<stop stop-color="#F6F6F6"/>
<stop offset="1" stop-color="#D9D9D9"/>
</linearGradient>
<linearGradient id="paint2_linear_4132_88633" x1="113.787" y1="95.7112" x2="111.298" y2="93.3609" gradientUnits="userSpaceOnUse">
<stop stop-color="#F6F6F6" stop-opacity="0"/>
<stop offset="0.07" stop-color="#EDEDED" stop-opacity="0.13"/>
<stop offset="0.23" stop-color="#DBDBDB" stop-opacity="0.39"/>
<stop offset="0.4" stop-color="#CDCDCD" stop-opacity="0.61"/>
<stop offset="0.56" stop-color="#C1C1C1" stop-opacity="0.78"/>
<stop offset="0.71" stop-color="#B9B9B9" stop-opacity="0.9"/>
<stop offset="0.86" stop-color="#B4B4B4" stop-opacity="0.98"/>
<stop offset="1" stop-color="#B3B3B3"/>
</linearGradient>
<linearGradient id="paint3_linear_4132_88633" x1="98.9318" y1="107.766" x2="101.139" y2="99.7775" gradientUnits="userSpaceOnUse">
<stop stop-color="#F6F6F6" stop-opacity="0"/>
<stop offset="0.13" stop-color="#F5F5F5" stop-opacity="0.02"/>
<stop offset="0.27" stop-color="#F2F2F2" stop-opacity="0.09"/>
<stop offset="0.41" stop-color="#EDEDED" stop-opacity="0.19"/>
<stop offset="0.56" stop-color="#E7E7E7" stop-opacity="0.34"/>
<stop offset="0.72" stop-color="#DFDFDF" stop-opacity="0.54"/>
<stop offset="0.87" stop-color="#D5D5D5" stop-opacity="0.77"/>
<stop offset="1" stop-color="#CCCCCC"/>
</linearGradient>
<linearGradient id="paint4_linear_4132_88633" x1="146.087" y1="41.9988" x2="118.254" y2="67.1881" gradientUnits="userSpaceOnUse">
<stop stop-color="#F5F5F5" stop-opacity="0.02"/>
<stop offset="0.16" stop-color="#EEEEEE" stop-opacity="0.28"/>
<stop offset="0.31" stop-color="#E7E7E7" stop-opacity="0.5"/>
<stop offset="0.46" stop-color="#E2E2E2" stop-opacity="0.68"/>
<stop offset="0.6" stop-color="#DEDEDE" stop-opacity="0.82"/>
<stop offset="0.74" stop-color="#DBDBDB" stop-opacity="0.92"/>
<stop offset="0.88" stop-color="#D9D9D9" stop-opacity="0.98"/>
<stop offset="1" stop-color="#D9D9D9"/>
</linearGradient>
<linearGradient id="paint5_linear_4132_88633" x1="138.824" y1="143.273" x2="141.448" y2="138.493" gradientUnits="userSpaceOnUse">
<stop stop-color="#F6F6F6" stop-opacity="0"/>
<stop offset="0.16" stop-color="#EEEEEE" stop-opacity="0.07"/>
<stop offset="0.44" stop-color="#DADADA" stop-opacity="0.24"/>
<stop offset="0.8" stop-color="#B9B9B9" stop-opacity="0.53"/>
<stop offset="1" stop-color="#A6A6A6" stop-opacity="0.7"/>
</linearGradient>
</defs>
</svg>
