<svg width="256" height="213" viewBox="0 0 256 213" fill="none" xmlns="http://www.w3.org/2000/svg">
<path d="M180.657 58.0885L179.176 55.8608L179.002 48.296C178.968 46.8108 178.528 45.3721 177.741 44.119L174.582 39.1415L176.688 34.4424C178.065 31.3562 177.394 27.7477 175.01 25.3692C172.626 22.9907 169.016 22.3293 165.95 23.7216L140.191 35.4171C138.178 36.3337 136.627 38.0276 135.898 40.1161L132.473 49.8507C132.253 50.0711 132.056 50.2916 131.86 50.5237L123.528 56.6846C123.088 57.0095 122.695 57.3692 122.325 57.7753L110.383 71.0254C110.221 71.1879 110.07 71.3503 109.931 71.5244L105.291 76.6759L105.013 76.966C104.944 77.0008 104.875 77.0356 104.805 77.082C102.294 78.4511 100.57 80.9689 100.211 83.8115L95.9876 116.6L93.2914 116.705C92.5161 115.881 91.5788 115.185 90.5373 114.663C88.0031 113.41 85.0755 113.329 82.4835 114.442L74.3023 117.935C71.3747 119.188 69.4538 122.03 69.3844 125.21L69.0025 140.397C68.9447 142.718 69.882 144.946 71.5714 146.535C73.2609 148.113 75.5521 148.914 77.8548 148.682L101.276 146.466C102.63 148.276 104.724 149.482 107.073 149.691L133.642 151.965C133.873 151.988 134.104 152 134.336 152C134.984 152 135.609 151.919 136.222 151.78L145.572 151.617C148.615 151.571 151.369 149.97 152.932 147.359C153.429 146.524 153.788 145.619 153.985 144.69L156.901 146.674C159.655 148.786 163.485 149.053 166.54 147.197C170.046 145.062 171.562 140.722 170.139 136.859C170.011 136.522 169.872 136.197 169.699 135.872L167.836 132.345C167.778 132.218 167.708 132.09 167.651 131.974L166.806 130.396C166.563 126.532 165.811 118.399 164.063 99.7535L166.297 80.1915C166.412 79.3329 166.424 78.4627 166.343 77.6041C166.505 77.5577 166.679 77.5113 166.841 77.4533L173.645 75.1096C175.45 74.483 176.977 73.2532 177.949 71.6172L180.842 66.7905C182.451 64.0987 182.381 60.7107 180.646 58.1002L180.657 58.0885Z" fill="white"/>
<path d="M170.787 58.4632L170.567 48.6706L166.691 42.5792C166.517 42.4284 166.263 42.4632 166.136 42.6605L164.215 42.1964L168.982 31.5452L143.559 43.0898L139.185 55.5277C138.722 55.3537 138.155 55.609 138.04 56.1543V56.2239L128.562 63.2319L116.563 76.5517H116.54L116.412 76.7141L111.679 81.9585L109.851 83.8845L109.909 83.9193L109.458 84.2674C108.96 84.0237 108.439 84.2442 108.37 84.8243L108.682 84.9635L108.324 85.2188L103.88 122.301L103.984 124.702L88.0502 125.109L87.3675 122.649C87.1361 121.732 86.8005 121.663 85.9326 122.034L77.6242 125.329L77.2539 140.436L107.352 136.804L108.254 140.575L134.001 143.557L134.071 143.371L144.959 143.174C145.434 143.174 145.735 142.663 145.515 142.234L143.189 137.512L144.74 137.489C145.48 137.477 146.117 136.839 145.781 136.177L140.516 125.898L141.014 124.436L141.06 124.308L142.275 120.874L143.386 118.53C143.906 119.911 144.219 120.746 144.219 120.758L154.992 135.261L161.518 139.705C161.854 140.087 162.467 139.971 162.282 139.496L158.545 132.546C158.649 132.093 156.358 105.5 155.767 99.1999L158.082 78.9882C158.221 78.002 157.839 77.1318 157.214 76.366L161.206 67.3392L163.96 69.6945L170.683 67.374L173.53 62.6169L170.787 58.4864V58.4632Z" fill="#26272E"/>
<g opacity="0.97">
<path d="M132.926 137.868L145.111 137.659C145.863 137.647 146.337 136.847 145.99 136.185L137.774 120.15L132.926 137.879V137.868Z" fill="url(#paint0_linear_4132_88551)"/>
<path d="M164.343 42.066L169.157 31.2988L143.479 42.9594L138.469 57.2074L157.041 77.1987L166.484 55.5947L166.287 42.5301L164.343 42.066Z" fill="#EFEFEF"/>
<path d="M128.331 63.3094L109.365 84.3565L140.909 125.128L157.075 75.7706L138.503 55.7793L128.331 63.3094Z" fill="url(#paint1_linear_4132_88551)"/>
<path d="M132.613 143.53L145.377 143.309C145.863 143.309 146.164 142.787 145.944 142.358L137.462 125.801L132.613 143.53V143.53Z" fill="#F2F2F2"/>
<path d="M108.636 137.464L77.2539 140.423L77.6358 125.316L109.851 124.098L108.636 137.464Z" fill="url(#paint2_linear_4132_88551)"/>
<path d="M143.479 42.9601L149.704 40.1407L165.87 38.5859L164.342 42.0667L143.479 42.9601Z" fill="url(#paint3_linear_4132_88551)"/>
<path d="M157.804 54.7723L143.479 42.9608L147.043 42.9492L159.621 52.1385L157.804 54.7723Z" fill="url(#paint4_linear_4132_88551)"/>
<path d="M161.229 67.5215L157.804 55.0603L155.929 53.4707L150.803 61.3837L151.3 70.1901L157.04 77.198L159.84 70.7122L161.229 67.5215Z" fill="url(#paint5_linear_4132_88551)"/>
<path d="M154.922 61.953L164.098 69.8195L170.891 67.4758L173.772 62.6723L170.995 58.4954L170.775 48.61L166.864 42.449C166.69 42.2982 166.424 42.333 166.297 42.5302L154.69 59.5976C154.193 60.3402 154.285 61.3264 154.933 61.953H154.922Z" fill="#F6F6F6"/>
<path d="M154.922 61.953L164.098 69.8195L170.891 67.4758L173.772 62.6723L170.995 58.4954L170.775 48.61L166.864 42.449C166.69 42.2982 166.424 42.333 166.297 42.5302L154.69 59.5976C154.193 60.3402 154.285 61.3264 154.933 61.953H154.922Z" fill="url(#paint6_linear_4132_88551)"/>
<path d="M157.039 77.1984L138.779 56.453L139.936 53.123L160.731 68.7285L157.039 77.1984Z" fill="url(#paint7_linear_4132_88551)"/>
<path d="M109.064 85.2973L128.84 118.632L142.182 121.521L147.471 110.429L136.292 94.7302L128.864 69.1465L116.193 76.7694L109.064 85.2973Z" fill="url(#paint8_linear_4132_88551)"/>
<path d="M161.645 139.983L155.026 135.481L144.149 121.407C144.149 121.407 135.447 98.1206 133.688 93.7696C133.491 93.2707 133.41 92.737 133.48 92.2032L137.9 56.1656C138.05 55.4578 138.93 55.2257 139.404 55.7595C139.404 55.7595 153.198 71.6434 157.306 76.3309C158 77.1199 158.301 78.1641 158.15 79.2083L155.813 99.6289C156.415 105.987 158.833 132.058 158.717 132.522L162.409 139.507C162.594 139.994 161.969 140.366 161.622 139.983H161.645Z" fill="#F6F6F6"/>
<path d="M77.2539 140.423L84.1622 137.871L89.4388 128.937L87.8882 122.857C87.6568 121.929 86.6501 121.441 85.7706 121.813L77.6242 125.293L77.2655 140.423H77.2539Z" fill="#F6F6F6"/>
<path d="M77.2539 140.423L84.1622 137.871L89.4388 128.937L87.8882 122.857C87.6568 121.929 86.6501 121.441 85.7706 121.813L77.6242 125.293L77.2655 140.423H77.2539Z" fill="url(#paint9_linear_4132_88551)"/>
<path d="M126.643 97.2482L109.436 84.172L112.004 81.457L125.671 93.663L126.643 97.2482Z" fill="url(#paint10_linear_4132_88551)"/>
<path d="M134.383 143.413L139.359 129.455L142.101 134.723L141.534 143.309L134.383 143.413Z" fill="url(#paint11_linear_4132_88551)"/>
<path d="M107.826 141.431L103.383 122.971L108.289 84.868C108.37 84.2299 109.099 83.9166 109.608 84.2995L134.834 103.351C135.425 103.792 135.876 104.384 136.165 105.057L141.963 118.69C142.437 119.56 142.518 120.592 142.182 121.532L134.302 143.705L107.815 141.442L107.826 141.431Z" fill="#F6F6F6"/>
<path d="M155.027 135.48L158.73 132.521L160.397 135.631L157.839 137.36L155.027 135.48Z" fill="url(#paint12_linear_4132_88551)"/>
<path d="M139.787 56.9863L157.11 76.2583C157.862 77.0936 158.221 78.2191 158.093 79.3445L155.814 99.6259L158.718 132.519L155.015 135.478L144.138 121.404L139.775 56.9863H139.787Z" fill="url(#paint13_linear_4132_88551)"/>
<path d="M143.478 42.9609L157.804 55.0624L156.323 57.0117L142.391 46.2213L143.478 42.9609Z" fill="url(#paint14_linear_4132_88551)"/>
</g>
<path d="M97.849 165.597C94.3787 160.493 90.0251 161.119 84.6066 165.597C80.0006 170.561 78.0639 173.547 77.1895 179.577C76.8379 182.003 76.747 185.068 79.0131 186.898C82.2796 189.536 88.0757 188.737 91.5157 186.898C94.7232 185.184 99.2349 181.28 101.879 179" stroke="#FFF53E" stroke-width="1.7" stroke-linecap="round"/>
<path d="M105.401 172.898C102.631 174.74 99.754 182.679 102.263 184.994C104.891 187.419 109.127 181.042 109.595 179.372C111.268 173.41 103.975 170.211 100.885 175.789" stroke="#FFF53E" stroke-width="1.7" stroke-linecap="round"/>
<path d="M110.336 178.477C110.442 176.736 112.413 175.07 113.771 173.969C115.998 172.161 114.342 178.701 114.131 179.503C113.618 181.455 112.626 187.373 112.626 185.366C112.626 183.771 113.406 182.186 113.983 180.702C114.921 178.29 115.964 175.62 117.969 173.756C120.896 171.034 121.001 175.496 121.022 177.394C121.036 178.674 120.187 185.299 121.573 185.949C122.526 186.396 123.917 181.048 124.766 179.503" stroke="#FFF53E" stroke-width="1.7" stroke-linecap="round"/>
<path d="M132.008 175.699C131.426 173.97 128.213 174.734 127.233 175.699C125.895 177.016 123.446 180.862 125.777 183.138C127.525 184.619 130.431 181.788 131.389 180.615C132.654 179.067 133.145 177.165 132.45 175.347C131.603 172.769 131.989 175.26 132.45 175.979C133.477 177.581 134.223 179.686 134.223 181.542C134.223 190.791 128.317 199.61 122.281 194.495" stroke="#FFF53E" stroke-width="1.7" stroke-linecap="round"/>
<path d="M134.221 180.795C135.347 178.825 136.444 176.859 137.684 174.936C137.891 174.614 139.08 172.803 138.5 174.108C138.107 174.993 138.096 176.062 137.978 176.994C137.773 178.609 137.515 183.309 137.684 184.934C137.8 186.052 138.466 181.418 140.225 178.907C141.886 176.536 143.855 173.657 147.158 173.336" stroke="#FFF53E" stroke-width="1.7" stroke-linecap="round"/>
<path d="M151.525 176.554C151.831 175.534 151.63 172.971 149.47 172.898C147.077 172.818 145.582 175.696 145.037 177.737C144.657 179.158 144.173 182.849 145.903 183.582C149.194 184.976 151.525 179.146 151.525 176.554ZM151.525 176.554C151.525 176.033 151.63 179.953 151.638 180.525" stroke="#FFF53E" stroke-width="1.7" stroke-linecap="round"/>
<path d="M151.637 180.584C151.637 181.784 152.023 183.208 153.206 183.527C155.18 184.059 156.953 180.153 157.494 178.792C158.239 176.922 159.623 171.955 159.308 169.896C158.454 168.112 157.41 171.779 157.317 172.273C157.008 173.915 156.955 176.193 156.896 177.879C156.842 179.394 156.41 182.035 157.527 183.256C159.603 185.527 162.704 179.977 163.579 178.454" stroke="#FFF53E" stroke-width="1.7" stroke-linecap="round"/>
<path d="M153.627 175.077C155.06 174.859 156.652 174.752 157.251 174.706C158.685 174.597 160.149 174.657 161.589 174.657" stroke="#FFF53E" stroke-width="1.7" stroke-linecap="round"/>
<path d="M171.541 172.896C169.734 172.896 167.91 173.032 167.093 175.137C166.632 176.326 167.697 176.977 168.406 177.625C169.382 178.516 169.678 179.784 169.481 181.152C168.95 184.836 160.795 185.069 162.944 179.272" stroke="#FFF53E" stroke-width="1.7" stroke-linecap="round"/>
<path d="M179.999 170.715C178.795 172.725 178.506 181.163 178.506 178.474" stroke="#FFF53E" stroke-width="1.7" stroke-linecap="round"/>
<path d="M178.509 182.925L178.012 182.053" stroke="#FFF53E" stroke-width="1.7" stroke-linecap="round"/>
<defs>
<linearGradient id="paint0_linear_4132_88551" x1="132.926" y1="129.003" x2="146.106" y2="129.003" gradientUnits="userSpaceOnUse">
<stop stop-color="#B3B3B3"/>
<stop offset="1" stop-color="#BFBFBF"/>
</linearGradient>
<linearGradient id="paint1_linear_4132_88551" x1="109.365" y1="90.4479" x2="157.075" y2="90.4479" gradientUnits="userSpaceOnUse">
<stop stop-color="#F6F6F6"/>
<stop offset="1" stop-color="#E7E7E7"/>
</linearGradient>
<linearGradient id="paint2_linear_4132_88551" x1="77.2539" y1="132.266" x2="109.851" y2="132.266" gradientUnits="userSpaceOnUse">
<stop stop-color="#BFBFBF"/>
<stop offset="1" stop-color="#D4D4D4"/>
</linearGradient>
<linearGradient id="paint3_linear_4132_88551" x1="154.828" y1="39.4971" x2="154.85" y2="42.801" gradientUnits="userSpaceOnUse">
<stop stop-color="#F6F6F6" stop-opacity="0"/>
<stop offset="1" stop-color="#CCCCCC"/>
</linearGradient>
<linearGradient id="paint4_linear_4132_88551" x1="151.961" y1="46.7781" x2="150.868" y2="48.8293" gradientUnits="userSpaceOnUse">
<stop stop-color="#F6F6F6" stop-opacity="0"/>
<stop offset="0.27" stop-color="#F7F7F7" stop-opacity="0.06"/>
<stop offset="0.79" stop-color="#FCFCFC" stop-opacity="0.23"/>
<stop offset="1" stop-color="white" stop-opacity="0.3"/>
</linearGradient>
<linearGradient id="paint5_linear_4132_88551" x1="150.641" y1="65.3402" x2="161.067" y2="65.3402" gradientUnits="userSpaceOnUse">
<stop stop-color="#F6F6F6" stop-opacity="0"/>
<stop offset="0.07" stop-color="#F2F2F2" stop-opacity="0.13"/>
<stop offset="0.19" stop-color="#EBEBEB" stop-opacity="0.36"/>
<stop offset="0.32" stop-color="#E5E5E5" stop-opacity="0.56"/>
<stop offset="0.45" stop-color="#E1E1E1" stop-opacity="0.72"/>
<stop offset="0.59" stop-color="#DDDDDD" stop-opacity="0.84"/>
<stop offset="0.72" stop-color="#DBDBDB" stop-opacity="0.93"/>
<stop offset="0.86" stop-color="#D9D9D9" stop-opacity="0.98"/>
<stop offset="1" stop-color="#D9D9D9"/>
</linearGradient>
<linearGradient id="paint6_linear_4132_88551" x1="158.197" y1="56.0937" x2="172.048" y2="56.0937" gradientUnits="userSpaceOnUse">
<stop stop-color="#F6F6F6" stop-opacity="0"/>
<stop offset="1" stop-color="#F2F2F2"/>
</linearGradient>
<linearGradient id="paint7_linear_4132_88551" x1="150.837" y1="62.3587" x2="146.496" y2="67.5337" gradientUnits="userSpaceOnUse">
<stop stop-color="#F6F6F6" stop-opacity="0"/>
<stop offset="0.56" stop-color="#DEDEDE" stop-opacity="0.56"/>
<stop offset="1" stop-color="#CCCCCC"/>
</linearGradient>
<linearGradient id="paint8_linear_4132_88551" x1="117.986" y1="74.1124" x2="137.584" y2="119.162" gradientUnits="userSpaceOnUse">
<stop stop-color="#F6F6F6" stop-opacity="0"/>
<stop offset="1" stop-color="#CCCCCC"/>
</linearGradient>
<linearGradient id="paint9_linear_4132_88551" x1="86.8931" y1="126.175" x2="77.8224" y2="134.308" gradientUnits="userSpaceOnUse">
<stop stop-color="#F6F6F6" stop-opacity="0"/>
<stop offset="1" stop-color="#E6E6E6"/>
</linearGradient>
<linearGradient id="paint10_linear_4132_88551" x1="119.565" y1="89.0233" x2="117.675" y2="91.1535" gradientUnits="userSpaceOnUse">
<stop stop-color="#F6F6F6" stop-opacity="0"/>
<stop offset="0.11" stop-color="#F3F3F3" stop-opacity="0.06"/>
<stop offset="0.3" stop-color="#ECECEC" stop-opacity="0.22"/>
<stop offset="0.56" stop-color="#E1E1E1" stop-opacity="0.48"/>
<stop offset="0.87" stop-color="#D2D2D2" stop-opacity="0.84"/>
<stop offset="1" stop-color="#CCCCCC"/>
</linearGradient>
<linearGradient id="paint11_linear_4132_88551" x1="142.273" y1="138.384" x2="137.427" y2="136.706" gradientUnits="userSpaceOnUse">
<stop stop-color="#F6F6F6" stop-opacity="0"/>
<stop offset="0.1" stop-color="#F5F5F5" stop-opacity="0.05"/>
<stop offset="0.27" stop-color="#F2F2F2" stop-opacity="0.2"/>
<stop offset="0.51" stop-color="#EFEFEF" stop-opacity="0.43"/>
<stop offset="0.79" stop-color="#EAEAEA" stop-opacity="0.75"/>
<stop offset="1" stop-color="#E6E6E6"/>
</linearGradient>
<linearGradient id="paint12_linear_4132_88551" x1="158.441" y1="136.954" x2="156.779" y2="133.813" gradientUnits="userSpaceOnUse">
<stop stop-color="#F6F6F6" stop-opacity="0"/>
<stop offset="0.23" stop-color="#EDEDED" stop-opacity="0.06"/>
<stop offset="0.65" stop-color="#D5D5D5" stop-opacity="0.24"/>
<stop offset="1" stop-color="#BFBFBF" stop-opacity="0.4"/>
</linearGradient>
<linearGradient id="paint13_linear_4132_88551" x1="143.768" y1="96.528" x2="157.156" y2="95.4316" gradientUnits="userSpaceOnUse">
<stop stop-color="#F6F6F6" stop-opacity="0"/>
<stop offset="1" stop-color="#F2F2F2"/>
</linearGradient>
<linearGradient id="paint14_linear_4132_88551" x1="148.998" y1="51.0712" x2="150.565" y2="49.1957" gradientUnits="userSpaceOnUse">
<stop stop-color="#F6F6F6" stop-opacity="0"/>
<stop offset="0.11" stop-color="#F2F2F2" stop-opacity="0.06"/>
<stop offset="0.32" stop-color="#E8E8E8" stop-opacity="0.24"/>
<stop offset="0.59" stop-color="#D9D9D9" stop-opacity="0.52"/>
<stop offset="0.92" stop-color="#C4C4C4" stop-opacity="0.9"/>
<stop offset="1" stop-color="#BFBFBF"/>
</linearGradient>
</defs>
</svg>
