<svg width="280" height="174" viewBox="0 0 280 174" fill="none" xmlns="http://www.w3.org/2000/svg">
<g clip-path="url(#clip0_4133_88501)">
<path fill-rule="evenodd" clip-rule="evenodd" d="M74.0522 174H74.0615H80V152H76.4918L76.9185 153.707C77.2989 155.232 76.9185 156.843 75.9074 158.013C74.5253 159.615 74.4232 162.012 75.6663 163.738L75.8982 164.055C76.6588 165.561 76.5846 167.373 75.7034 168.802L74.6737 170.471C74.1913 171.276 73.9594 172.216 74.0058 173.166L74.0522 174Z" fill="#26272E" fill-opacity="0.1"/>
<rect width="120" height="22" transform="translate(80 152)" fill="#26272E" fill-opacity="0.1"/>
<path d="M93.2017 160.529V158.438H91.9029V160.529C91.8961 162.771 90.6246 165.123 88.7447 166.025L89.5513 167.078C90.9459 166.354 92.0191 164.884 92.566 163.147C93.106 164.781 94.1382 166.148 95.4712 166.846L96.2779 165.807C94.4527 164.918 93.188 162.696 93.2017 160.529ZM97.1939 169.662H98.4927V163.4H100.461V162.293H98.4927V157.412H97.1939V169.662ZM110.604 157.426H109.306V164.795H110.604V161.5H112.395V160.42H110.604V157.426ZM101.472 159.217H105.778V160.598H101.485V164.152H102.47C104.821 164.166 106.441 164.091 108.335 163.756L108.198 162.703C106.414 163.004 104.91 163.086 102.784 163.086V161.596H107.05V158.164H101.472V159.217ZM102.524 167.393C102.524 168.814 104.09 169.635 106.64 169.635C109.155 169.635 110.714 168.814 110.714 167.393C110.714 165.971 109.155 165.123 106.64 165.123C104.09 165.123 102.524 165.971 102.524 167.393ZM103.796 167.393C103.789 166.6 104.842 166.142 106.64 166.148C108.41 166.142 109.449 166.6 109.442 167.393C109.449 168.192 108.41 168.65 106.64 168.637C104.842 168.65 103.789 168.192 103.796 167.393ZM123.154 157.412H121.855V169.689H123.154V157.412ZM113.433 162.621C113.433 165.267 114.752 166.935 116.605 166.928C118.423 166.935 119.763 165.267 119.763 162.621C119.763 160.003 118.423 158.335 116.605 158.328C114.752 158.335 113.433 160.003 113.433 162.621ZM114.691 162.621C114.684 160.7 115.463 159.497 116.605 159.49C117.726 159.497 118.505 160.7 118.505 162.621C118.505 164.569 117.726 165.766 116.605 165.766C115.463 165.766 114.684 164.569 114.691 162.621ZM138.599 165.014H130.574V169.512H138.599V165.014ZM129.111 163.77H130.068C132.037 163.77 133.766 163.667 135.674 163.277L135.523 162.184C133.78 162.532 132.167 162.655 130.396 162.662V158.123H129.111V163.77ZM131.859 168.459V166.053H137.328V168.459H131.859ZM133.937 160.693H137.301V164.453H138.599V157.412H137.301V159.641H133.937V160.693ZM150.561 157.412H149.262V169.662H150.561V157.412ZM140.594 166.312L141.319 167.311C142.74 166.668 143.855 165.308 144.408 163.667C144.976 165.212 146.097 166.49 147.512 167.105L148.223 166.107C146.316 165.301 145.03 163.305 145.024 161.35V160.543H147.772V159.504H145.024V157.658H143.738V159.504H140.963V160.543H143.752V161.35C143.745 163.4 142.487 165.465 140.594 166.312ZM162.358 160.994H155.208V157.85H153.922V162.033H162.358V160.994ZM152.432 164.617H163.643V163.578H152.432V164.617ZM153.827 169.375H162.44V168.309H155.125V165.779H153.827V169.375ZM177.763 163.688H170.544V162.02H177.38V160.994H170.544V159.422H177.64V158.355H169.232V164.727H172.759V167.119H167.823V168.186H179.034V167.119H174.058V164.727H177.763V163.688ZM190.025 157.412H188.712V169.662H190.025V157.412ZM179.826 166.148L180.837 166.9C183.032 164.569 183.674 161.746 183.681 158.725H180.318V159.791H182.444C182.307 162.238 181.576 164.323 179.826 166.148ZM183.408 167.01L184.501 167.707C186.675 165.075 187.113 161.787 187.113 158.725H184.105V159.791H185.875C185.766 162.402 185.192 164.891 183.408 167.01Z" fill="#26272E" fill-opacity="0.7"/>
<path fill-rule="evenodd" clip-rule="evenodd" d="M200 152V155.5V174H202.623L205.518 171.133L202.503 169.761L206 166.27L201.418 164.65C201.418 164.65 205.397 161.907 205.397 161.533C205.397 161.533 201.566 159.739 200.982 159.413C200.982 159.413 205.193 157.418 205.981 157.332L200 155.5L202.948 152H200Z" fill="#26272E" fill-opacity="0.1"/>
<path d="M181.161 86.2137L165.991 66.8786C164.796 65.3498 163.113 64.2859 161.223 63.8334L140.431 58.9537L159.174 13.2146C160.674 9.54568 159.467 5.3142 156.248 3.00278C154.784 1.95103 153.077 1.42515 151.382 1.40069C151.333 1.364 151.284 1.33954 151.223 1.30285C147.809 -0.837346 143.37 -0.299239 140.565 2.61143L106.701 37.674L106.482 37.8697L72.3611 57.0703C68.471 59.2595 66.9223 64.078 68.7881 68.1382L73.8244 79.0227C74.8 81.1262 76.5804 82.7527 78.7754 83.511L94.3479 88.9165L96.2747 96.3399L94.7625 115.223C94.4821 118.72 96.36 122.047 99.5062 123.588C100.116 123.881 100.738 124.101 101.372 124.248C100.409 126.315 100.287 128.736 101.14 130.962C102.006 133.2 103.738 134.925 105.872 135.805C107.445 138.129 110.079 139.572 112.945 139.572H149.297L172.405 140C172.405 140 172.515 140 172.564 140C177.113 140 180.869 136.417 181.088 131.843L182.99 91.9006C183.088 89.846 182.442 87.8158 181.173 86.2015L181.161 86.2137Z" fill="white"/>
<path d="M173.844 91.3866L158.857 72.296L132.895 66.1934L128.736 65.0805L151.077 10.5115L143.602 17.1033L146.601 8.92163L112.749 44.3511L111.615 45.3539L77.1289 64.7503L82.1043 75.5002L101.738 82.3243L105.14 95.4224L103.53 115.491L116.627 103.555L127.334 111.81L109.359 127.745L116.286 127.709L113.152 130.84L149.065 130.424L171.978 130.84L173.844 91.3866Z" fill="#26272E"/>
<g opacity="0.97">
<path d="M104.959 95.3982L103.312 115.956L121.836 99.0671L104.959 95.3982Z" fill="#E5E5E5"/>
<path d="M111.652 45.0979L127.932 60.6051L146.651 8.849L111.652 45.0979Z" fill="#D3D3D3"/>
<path d="M109.141 127.905H168.114L135.249 104.229L109.141 127.905Z" fill="#D6D6D6"/>
<path d="M112.957 131.036H171.942L137.249 105.268L112.957 131.036Z" fill="#EDEDED"/>
<path d="M172.444 131.463L144.823 124.627L104.947 95.398L101.91 80.6001L125.519 64.408L159.2 72.3084L174.334 91.6068L172.444 131.463Z" fill="url(#paint0_linear_4133_88501)"/>
<path d="M104.946 95.6913L128.774 65.0314L151.225 10.2423L111.47 45.097L76.6426 64.689L81.6667 75.5612L101.507 82.4465L104.946 95.6913Z" fill="url(#paint1_linear_4133_88501)"/>
<path d="M128.774 65.0331L104.945 95.6685L134.103 66.464L128.774 65.0331Z" fill="url(#paint2_linear_4133_88501)"/>
<path d="M101.508 82.4475L104.947 95.6678L112.337 86.1531L101.508 82.4475Z" fill="url(#paint3_linear_4133_88501)"/>
<path d="M111.471 45.097L128.775 65.0314L151.225 10.2423L111.471 45.097Z" fill="url(#paint4_linear_4133_88501)"/>
<path d="M127.092 111.627L144.823 124.627L172.443 131.464L147.798 130.999L122.592 115.748L127.092 111.627Z" fill="url(#paint5_linear_4133_88501)"/>
</g>
<path d="M151 50.0866C152.723 51.246 155.009 51.1436 156.849 50.3418C161.12 48.4809 164.799 44.7615 167.983 41.5105C171.068 38.3611 174.488 34.8331 176.398 30.7905C177.407 28.6552 178.008 24.7378 174.294 26.4004C169.79 28.4169 166.033 34.652 164.084 38.9071C161.086 45.4514 158.837 51.8545 160.693 59.8571C161.454 63.1375 163.052 66.869 166.468 67.4493C169.885 68.0297 171.418 66.4234 173.687 63.3454C176.398 59.6673 178.861 57.2273 181.58 54.2215" stroke="white" stroke-width="1.6" stroke-linecap="round"/>
<path d="M187.541 58.6394C186.9 61.1483 182.462 66.5352 179.72 62.7305C179.05 62.115 178.112 60.022 179.72 56.5747C180.13 55.3495 182.642 52.8536 184.258 53.0752C187.354 53.5002 188.251 55.8651 187.541 58.6394Z" stroke="white" stroke-width="1.6" stroke-linecap="round"/>
<path d="M187.506 59.2403C188.95 54.726 189.307 54.107 190.317 51.8189C191.078 50.094 191.012 55.8078 191.012 56.3676C191.012 61.027 191.018 68.3179 196.993 60.8033C199.541 57.5988 200.322 51.8189 199.88 51.8189C198.991 51.8189 198.825 60.0226 198.834 60.8033C198.874 64.0342 200.935 63.1225 202.562 60.3439" stroke="white" stroke-width="1.6" stroke-linecap="round"/>
<path d="M203.827 53.7031C203.045 54.8997 203.419 56.942 204.831 57.807C206.531 58.8491 208.432 56.8658 209.416 55.5531C212.394 51.5776 209.416 49.1888 205.656 51.6512C202.562 53.6771 201.659 59.991 203.181 62.1161C204.702 64.2412 208.457 62.451 210.083 61.3725" stroke="white" stroke-width="1.6" stroke-linecap="round"/>
<path d="M220.505 52.9766C218.562 55.1518 216.586 64.9767 223.298 62.7195C226.28 60.8728 227.862 55.5864 228.349 53.3712C228.584 52.3022 228.101 51.7203 227.848 52.9766C227.288 55.7661 227.456 58.8643 226.972 61.7192C226.046 67.1775 225.06 72.7425 223.298 77.9999" stroke="white" stroke-width="1.6" stroke-linecap="round"/>
<path d="M238.421 56.1891C238.465 55.0195 238.644 54.1822 237.626 53.2655C235.266 51.1423 232.282 53.6154 231.215 56.0963C228.331 61.068 232.03 67.4878 236.643 62.6397C238.027 60.8018 239.07 58.2084 239.497 55.9571C239.964 53.4978 238.841 54.616 238.421 56.1891ZM238.421 56.1891C237.77 58.627 237.331 61.3057 239.684 62.6397" stroke="white" stroke-width="1.6" stroke-linecap="round"/>
<path d="M251.818 62.9338C248.581 62.594 247.649 59.8559 246.696 57.5987C245.608 55.0219 244.722 51.9592 246.468 49.4591C247.652 47.7644 249.454 47.3454 250.661 49.3149C251.011 49.8857 251.818 50.8273 251.818 51.6481C251.818 52.7123 251.071 53.4699 250.408 53.0844C249.633 52.6334 249.996 51.4429 251.818 49.7475C252.283 49.315 256.128 46.3492 258.276 47.8572C260.992 49.7639 255.258 54.3681 254.348 55.3703C252.034 57.9214 249.189 60.346 248.3 63.2999" stroke="white" stroke-width="1.6" stroke-linecap="round"/>
</g>
<defs>
<linearGradient id="paint0_linear_4133_88501" x1="132.458" y1="110.759" x2="163.509" y2="79.7844" gradientUnits="userSpaceOnUse">
<stop stop-color="#F0F0F0"/>
<stop offset="1" stop-color="#E0E0E0"/>
</linearGradient>
<linearGradient id="paint1_linear_4133_88501" x1="76.6426" y1="52.9729" x2="151.225" y2="52.9729" gradientUnits="userSpaceOnUse">
<stop stop-color="#F6F6F6"/>
<stop offset="1" stop-color="#D9D9D9"/>
</linearGradient>
<linearGradient id="paint2_linear_4133_88501" x1="119.233" y1="80.8636" x2="116.709" y2="78.4934" gradientUnits="userSpaceOnUse">
<stop stop-color="#F6F6F6" stop-opacity="0"/>
<stop offset="0.07" stop-color="#EDEDED" stop-opacity="0.13"/>
<stop offset="0.23" stop-color="#DBDBDB" stop-opacity="0.39"/>
<stop offset="0.4" stop-color="#CDCDCD" stop-opacity="0.61"/>
<stop offset="0.56" stop-color="#C1C1C1" stop-opacity="0.78"/>
<stop offset="0.71" stop-color="#B9B9B9" stop-opacity="0.9"/>
<stop offset="0.86" stop-color="#B4B4B4" stop-opacity="0.98"/>
<stop offset="1" stop-color="#B3B3B3"/>
</linearGradient>
<linearGradient id="paint3_linear_4133_88501" x1="104.251" y1="93.0947" x2="106.5" y2="84.9973" gradientUnits="userSpaceOnUse">
<stop stop-color="#F6F6F6" stop-opacity="0"/>
<stop offset="0.13" stop-color="#F5F5F5" stop-opacity="0.02"/>
<stop offset="0.27" stop-color="#F2F2F2" stop-opacity="0.09"/>
<stop offset="0.41" stop-color="#EDEDED" stop-opacity="0.19"/>
<stop offset="0.56" stop-color="#E7E7E7" stop-opacity="0.34"/>
<stop offset="0.72" stop-color="#DFDFDF" stop-opacity="0.54"/>
<stop offset="0.87" stop-color="#D5D5D5" stop-opacity="0.77"/>
<stop offset="1" stop-color="#CCCCCC"/>
</linearGradient>
<linearGradient id="paint4_linear_4133_88501" x1="151.819" y1="26.3724" x2="123.599" y2="51.768" gradientUnits="userSpaceOnUse">
<stop stop-color="#F5F5F5" stop-opacity="0.02"/>
<stop offset="0.16" stop-color="#EEEEEE" stop-opacity="0.28"/>
<stop offset="0.31" stop-color="#E7E7E7" stop-opacity="0.5"/>
<stop offset="0.46" stop-color="#E2E2E2" stop-opacity="0.68"/>
<stop offset="0.6" stop-color="#DEDEDE" stop-opacity="0.82"/>
<stop offset="0.74" stop-color="#DBDBDB" stop-opacity="0.92"/>
<stop offset="0.88" stop-color="#D9D9D9" stop-opacity="0.98"/>
<stop offset="1" stop-color="#D9D9D9"/>
</linearGradient>
<linearGradient id="paint5_linear_4133_88501" x1="144.493" y1="129.116" x2="147.163" y2="124.279" gradientUnits="userSpaceOnUse">
<stop stop-color="#F6F6F6" stop-opacity="0"/>
<stop offset="0.16" stop-color="#EEEEEE" stop-opacity="0.07"/>
<stop offset="0.44" stop-color="#DADADA" stop-opacity="0.24"/>
<stop offset="0.8" stop-color="#B9B9B9" stop-opacity="0.53"/>
<stop offset="1" stop-color="#A6A6A6" stop-opacity="0.7"/>
</linearGradient>
<clipPath id="clip0_4133_88501">
<rect width="280" height="174" fill="white"/>
</clipPath>
</defs>
</svg>
