<svg width="256" height="213" viewBox="0 0 256 213" fill="none" xmlns="http://www.w3.org/2000/svg">
<path d="M187.877 90.0815L184.699 72.5897C184.246 70.0995 182.694 67.9373 180.469 66.6862L164.405 57.7095C164.295 56.932 164.087 56.1546 163.744 55.4015L152.986 31.3138C151.861 28.7872 149.563 26.9651 146.837 26.4185L99.9523 17.1624C96.2969 16.4457 92.6049 18.1463 90.8077 21.3774C89.6097 23.5153 89.4263 26.0055 90.172 28.2163L73.6311 28.0826H73.5577C70.1468 28.0826 67.0538 30.0991 65.6968 33.2087C64.3398 36.3548 64.9999 39.999 67.3717 42.4648L106.102 82.7082L84.9762 106.359C82.4456 109.189 82.1033 113.355 84.1449 116.562L107.447 153.052C109.024 155.53 111.762 157 114.672 157C115.026 157 115.369 156.976 115.723 156.939C119 156.538 121.762 154.291 122.802 151.169L134.893 114.91L156.25 112.044C158.549 111.74 160.615 110.525 161.984 108.667L171.092 96.4223L174.894 98.791C177.767 100.589 181.435 100.516 184.234 98.6331C187.034 96.7503 188.464 93.3855 187.865 90.0815H187.877Z" fill="white"/>
<path d="M175.959 74.0506L154.907 62.3165L153.269 60.6401L155.775 58.9396L145.261 35.2284L98.9756 26.0938L109.551 37.3177L74.5859 37.0383L118.194 82.347L92.1661 111.476L114.697 147.589L128.414 107.042L155.078 103.191L168.722 84.8494L179.101 91.3238L175.959 74.0506Z" fill="#26272E"/>
<g opacity="0.97">
<path d="M128.45 107.142L114.721 148.32L91.4805 111.94L154.93 62.3066L176.129 74.1501L179.296 91.5812L168.806 85.046L155.028 103.57L128.45 107.142Z" fill="url(#paint0_linear_4132_88715)"/>
<path d="M150.395 62.5978L155.835 58.9415L145.113 34.9267L98.3633 25.707L133.585 63.0837L150.395 62.5978Z" fill="#D6D6D6"/>
<path d="M176.13 74.1484L168.807 85.0444L170.139 85.8461L176.13 74.1484Z" fill="url(#paint1_linear_4132_88715)"/>
<path d="M154.93 62.3066L155.027 103.57L167.253 85.4105L154.93 62.3066Z" fill="url(#paint2_linear_4132_88715)"/>
<path d="M154.93 62.3066L155.027 103.57L156.568 63.3634L154.93 62.3066Z" fill="url(#paint3_linear_4132_88715)"/>
<path d="M155.028 103.57L130.235 83.4062L91.4805 111.94L131.201 106.717L155.028 103.57Z" fill="url(#paint4_linear_4132_88715)"/>
<path d="M91.4803 111.939L128.169 91.9931L154.93 62.3056L131.164 37.2096L73.7168 36.748L117.765 82.5184L91.4803 111.939Z" fill="url(#paint5_linear_4132_88715)"/>
<path d="M155.029 103.567L127.645 92.2213L144.821 73.4297L155.029 103.567Z" fill="url(#paint6_linear_4132_88715)"/>
<path d="M131.396 94.156L91.4805 111.939L127.643 92.2246L131.396 94.156Z" fill="url(#paint7_linear_4132_88715)"/>
<path d="M125.284 115.874L91.4805 111.939L128.45 107.141L125.284 115.874Z" fill="url(#paint8_linear_4132_88715)"/>
<path d="M130.175 94.5086L154.932 62.3066L127.645 92.225L130.175 94.5086Z" fill="url(#paint9_linear_4132_88715)"/>
<path d="M127.645 92.2272L131.165 37.2129L154.932 62.3088L127.645 92.2272Z" fill="url(#paint10_linear_4132_88715)"/>
<path d="M127.643 92.2272L88.2773 51.7165L131.164 37.2129L127.643 92.2272Z" fill="url(#paint11_linear_4132_88715)"/>
<path d="M127.642 92.2231L117.764 82.5176L113.375 87.7044L127.642 92.2231Z" fill="url(#paint12_linear_4132_88715)"/>
</g>
<path d="M80.9266 161.562C80.0515 160.236 79.5053 161.522 79.0094 162.677C76.7109 168.029 75.7138 173.916 75.2622 179.694C75.0841 181.973 73.9549 198.046 78.3123 196.946" stroke="#37BFA8" stroke-width="1.7" stroke-linecap="round"/>
<path d="M75.4707 178.829C75.0612 178.737 76.2258 178.45 76.6275 178.328C80.7932 177.062 84.9777 175.855 89.1533 174.623" stroke="#37BFA8" stroke-width="1.7" stroke-linecap="round"/>
<path d="M91.8315 167.416C90.6965 169.5 89.6132 171.366 88.8901 173.692C87.7657 177.308 86.9637 181.043 86.8245 184.841C86.7655 186.451 86.7095 188.761 87.8655 190.116C90.4657 193.162 93.0759 187.845 94.211 186.043" stroke="#37BFA8" stroke-width="1.7" stroke-linecap="round"/>
<path d="M96.7103 182.666C94.4612 184.029 92.0562 191.565 95.7353 192.73C98.9995 193.765 100.515 188.495 101.172 186.221C101.672 184.49 102.413 180.946 99.3542 181.364C97.189 181.66 95.1107 184.622 94.6282 186.572" stroke="#37BFA8" stroke-width="1.7" stroke-linecap="round"/>
<path d="M101.396 185.117C101.844 182.684 103.881 182.248 104.908 181.528C105.831 180.882 105.947 181.203 105.8 182.296C105.565 184.053 105.147 185.792 104.908 187.554C104.79 188.422 104.667 194.575 106.428 192.411C108.115 190.338 109.74 187.574 110.774 185.117C111.438 183.54 111.584 181.562 111.584 184.649C111.584 186.955 111.224 189.69 111.947 191.91C112.94 194.955 115.384 189.908 115.996 188.872C117.597 186.161 118.755 183.184 119.912 180.26" stroke="#37BFA8" stroke-width="1.7" stroke-linecap="round"/>
<path d="M136.764 168.253C130.726 167.576 127.819 179.076 127.196 182.232C127.104 182.701 126.253 188.13 127.819 192.874" stroke="#37BFA8" stroke-width="1.7" stroke-linecap="round"/>
<path d="M136.762 168.26C140.142 169.125 141.274 172.606 139.127 175.797C137.731 177.873 135.207 179.784 132.878 179.908C131.824 179.965 129.313 179.652 131.159 177.948C132.178 177.008 134.699 176.771 135.982 176.562C137.614 176.296 139.888 177.003 140.889 178.57C143.516 182.68 141.274 188.975 140.075 193.077" stroke="#37BFA8" stroke-width="1.7" stroke-linecap="round"/>
<path d="M151.332 176.809C148.69 179.796 148.786 187.598 150.34 191.058C152.19 195.174 156.177 195.519 158.637 195.104C165.345 193.975 165.791 182.315 164.275 177.712" stroke="#37BFA8" stroke-width="1.7" stroke-linecap="round"/>
<path d="M172.275 176.903C170.616 175.681 178.791 165.748 180.861 174.527C181.908 178.964 176.645 182.582 177.795 187.2" stroke="#37BFA8" stroke-width="1.7" stroke-linecap="round"/>
<path d="M179.214 190.818L178.764 191.722" stroke="#37BFA8" stroke-width="1.7" stroke-linecap="round"/>
<defs>
<linearGradient id="paint0_linear_4132_88715" x1="91.4805" y1="105.32" x2="179.296" y2="105.32" gradientUnits="userSpaceOnUse">
<stop stop-color="#F7F7F7"/>
<stop offset="1" stop-color="#E6E6E6"/>
</linearGradient>
<linearGradient id="paint1_linear_4132_88715" x1="172.96" y1="80.0426" x2="172.365" y2="79.6658" gradientUnits="userSpaceOnUse">
<stop stop-color="#F6F6F6" stop-opacity="0"/>
<stop offset="0.5" stop-color="#D3D3D3" stop-opacity="0.51"/>
<stop offset="1" stop-color="#B3B3B3"/>
</linearGradient>
<linearGradient id="paint2_linear_4132_88715" x1="160.517" y1="76.1908" x2="154.224" y2="101.731" gradientUnits="userSpaceOnUse">
<stop stop-color="white" stop-opacity="0"/>
<stop offset="0.11" stop-color="#FEFEFE" stop-opacity="0.02"/>
<stop offset="0.24" stop-color="#FCFCFC" stop-opacity="0.09"/>
<stop offset="0.38" stop-color="#FAFAFA" stop-opacity="0.2"/>
<stop offset="0.54" stop-color="#F6F6F6" stop-opacity="0.35"/>
<stop offset="0.7" stop-color="#F1F1F1" stop-opacity="0.54"/>
<stop offset="0.86" stop-color="#EBEBEB" stop-opacity="0.77"/>
<stop offset="1" stop-color="#E6E6E6"/>
</linearGradient>
<linearGradient id="paint3_linear_4132_88715" x1="155.59" y1="82.9567" x2="154.869" y2="82.9444" gradientUnits="userSpaceOnUse">
<stop stop-color="#F6F6F6" stop-opacity="0"/>
<stop offset="0.02" stop-color="#F3F3F3" stop-opacity="0.03"/>
<stop offset="0.2" stop-color="#E0E0E0" stop-opacity="0.33"/>
<stop offset="0.38" stop-color="#CFCFCF" stop-opacity="0.57"/>
<stop offset="0.56" stop-color="#C3C3C3" stop-opacity="0.76"/>
<stop offset="0.72" stop-color="#BABABA" stop-opacity="0.89"/>
<stop offset="0.87" stop-color="#B4B4B4" stop-opacity="0.97"/>
<stop offset="1" stop-color="#B3B3B3"/>
</linearGradient>
<linearGradient id="paint4_linear_4132_88715" x1="140.162" y1="94.3994" x2="88.8589" y2="113.552" gradientUnits="userSpaceOnUse">
<stop stop-color="#CCCCCC" stop-opacity="0"/>
<stop offset="0.12" stop-color="#CCCCCC" stop-opacity="0.03"/>
<stop offset="0.26" stop-color="#CCCCCC" stop-opacity="0.1"/>
<stop offset="0.41" stop-color="#CCCCCC" stop-opacity="0.22"/>
<stop offset="0.58" stop-color="#CCCCCC" stop-opacity="0.39"/>
<stop offset="0.75" stop-color="#CCCCCC" stop-opacity="0.61"/>
<stop offset="0.92" stop-color="#CCCCCC" stop-opacity="0.87"/>
<stop offset="1" stop-color="#CCCCCC"/>
</linearGradient>
<linearGradient id="paint5_linear_4132_88715" x1="73.7168" y1="74.3434" x2="154.93" y2="74.3434" gradientUnits="userSpaceOnUse">
<stop stop-color="#F0F0F0"/>
<stop offset="1" stop-color="#E0E0E0"/>
</linearGradient>
<linearGradient id="paint6_linear_4132_88715" x1="147.755" y1="90.7636" x2="138.745" y2="100.235" gradientUnits="userSpaceOnUse">
<stop stop-color="white" stop-opacity="0"/>
<stop offset="0.08" stop-color="white" stop-opacity="0.03"/>
<stop offset="0.7" stop-color="white" stop-opacity="0.22"/>
<stop offset="1" stop-color="white" stop-opacity="0.3"/>
</linearGradient>
<linearGradient id="paint7_linear_4132_88715" x1="112.74" y1="105.137" x2="110.899" y2="102.138" gradientUnits="userSpaceOnUse">
<stop stop-color="#F6F6F6" stop-opacity="0"/>
<stop offset="0.2" stop-color="#EAEAEA" stop-opacity="0.13"/>
<stop offset="0.62" stop-color="#CECECE" stop-opacity="0.47"/>
<stop offset="1" stop-color="#B3B3B3" stop-opacity="0.8"/>
</linearGradient>
<linearGradient id="paint8_linear_4132_88715" x1="110.222" y1="114.077" x2="109.969" y2="109.521" gradientUnits="userSpaceOnUse">
<stop stop-color="#F6F6F6" stop-opacity="0"/>
<stop offset="0.19" stop-color="#EDEDED" stop-opacity="0.12"/>
<stop offset="0.59" stop-color="#D7D7D7" stop-opacity="0.45"/>
<stop offset="1" stop-color="#BFBFBF" stop-opacity="0.8"/>
</linearGradient>
<linearGradient id="paint9_linear_4132_88715" x1="142.706" y1="78.5352" x2="141.076" y2="77.2374" gradientUnits="userSpaceOnUse">
<stop stop-color="#F6F6F6" stop-opacity="0"/>
<stop offset="0.2" stop-color="#EAEAEA" stop-opacity="0.13"/>
<stop offset="0.62" stop-color="#CECECE" stop-opacity="0.47"/>
<stop offset="1" stop-color="#B3B3B3" stop-opacity="0.8"/>
</linearGradient>
<linearGradient id="paint10_linear_4132_88715" x1="151.924" y1="68.7711" x2="127.215" y2="64.2696" gradientUnits="userSpaceOnUse">
<stop stop-color="#CCCCCC" stop-opacity="0"/>
<stop offset="0.12" stop-color="#CCCCCC" stop-opacity="0.03"/>
<stop offset="0.26" stop-color="#CCCCCC" stop-opacity="0.1"/>
<stop offset="0.41" stop-color="#CCCCCC" stop-opacity="0.22"/>
<stop offset="0.58" stop-color="#CCCCCC" stop-opacity="0.39"/>
<stop offset="0.75" stop-color="#CCCCCC" stop-opacity="0.61"/>
<stop offset="0.92" stop-color="#CCCCCC" stop-opacity="0.87"/>
<stop offset="1" stop-color="#CCCCCC"/>
</linearGradient>
<linearGradient id="paint11_linear_4132_88715" x1="110.65" y1="47.9631" x2="121.485" y2="89.5283" gradientUnits="userSpaceOnUse">
<stop stop-color="#CCCCCC" stop-opacity="0"/>
<stop offset="0.1" stop-color="#CCCCCC" stop-opacity="0.02"/>
<stop offset="0.23" stop-color="#CFCFCF" stop-opacity="0.08"/>
<stop offset="0.37" stop-color="#D2D2D2" stop-opacity="0.19"/>
<stop offset="0.52" stop-color="#D7D7D7" stop-opacity="0.33"/>
<stop offset="0.68" stop-color="#DEDEDE" stop-opacity="0.52"/>
<stop offset="0.84" stop-color="#E6E6E6" stop-opacity="0.74"/>
<stop offset="1" stop-color="#F0F0F0"/>
</linearGradient>
<linearGradient id="paint12_linear_4132_88715" x1="119.83" y1="90.9841" x2="122.108" y2="87.5209" gradientUnits="userSpaceOnUse">
<stop stop-color="#F6F6F6" stop-opacity="0"/>
<stop offset="0.19" stop-color="#EDEDED" stop-opacity="0.12"/>
<stop offset="0.59" stop-color="#D7D7D7" stop-opacity="0.45"/>
<stop offset="1" stop-color="#BFBFBF" stop-opacity="0.8"/>
</linearGradient>
</defs>
</svg>
