<svg width="280" height="174" viewBox="0 0 280 174" fill="none" xmlns="http://www.w3.org/2000/svg">
<g clip-path="url(#clip0_4133_88601)">
<path fill-rule="evenodd" clip-rule="evenodd" d="M82.0522 174H82.0615H88V152H84.4918L84.9185 153.707C85.2989 155.232 84.9185 156.843 83.9074 158.013C82.5253 159.615 82.4232 162.012 83.6663 163.738L83.8982 164.055C84.6588 165.561 84.5846 167.373 83.7034 168.802L82.6737 170.471C82.1913 171.276 81.9594 172.216 82.0058 173.166L82.0522 174Z" fill="#26272E" fill-opacity="0.1"/>
<rect width="104" height="22" transform="translate(88 152)" fill="#26272E" fill-opacity="0.1"/>
<path d="M100.891 160.529V158.438H99.5917V160.529C99.5848 162.771 98.3134 165.123 96.4335 166.025L97.2401 167.078C98.6346 166.354 99.7079 164.884 100.255 163.147C100.795 164.781 101.827 166.148 103.16 166.846L103.967 165.807C102.141 164.918 100.877 162.696 100.891 160.529ZM104.883 169.662H106.182V163.4H108.15V162.293H106.182V157.412H104.883V169.662ZM115.49 158.725H109.229V159.777H114.205C114.198 160.796 114.164 162.225 113.85 164.18L115.135 164.275C115.484 162.088 115.484 160.509 115.49 159.477V158.725ZM108.545 165.971L108.696 167.023C110.869 167.037 113.72 166.982 116.27 166.572L116.201 165.602C114.978 165.759 113.645 165.841 112.346 165.896V162.225H111.061V165.937C110.165 165.957 109.311 165.964 108.545 165.971ZM116.899 169.662H118.211V163.578H120.084V162.471H118.211V157.412H116.899V169.662ZM130.241 157.412H128.956V169.662H130.241V163.455H132.209V162.375H130.241V157.412ZM120.629 160.393H127.889V159.326H124.95V157.576H123.651V159.326H120.629V160.393ZM121.258 164.139C121.258 165.82 122.543 166.989 124.307 166.996C126.064 166.989 127.349 165.82 127.356 164.139C127.349 162.471 126.064 161.295 124.307 161.295C122.543 161.295 121.258 162.471 121.258 164.139ZM122.502 164.139C122.496 163.093 123.261 162.368 124.307 162.361C125.346 162.368 126.105 163.093 126.112 164.139C126.105 165.205 125.346 165.916 124.307 165.902C123.261 165.916 122.496 165.205 122.502 164.139ZM142.639 160.994H135.489V157.85H134.204V162.033H142.639V160.994ZM132.714 164.617H143.925V163.578H132.714V164.617ZM134.108 169.375H142.722V168.309H135.407V165.779H134.108V169.375ZM157.648 157.412H156.349V169.689H157.648V163.223H159.617V162.156H157.648V157.412ZM148.624 166.641H149.609C151.885 166.647 153.512 166.586 155.433 166.244L155.269 165.15C153.519 165.465 151.981 165.554 149.923 165.561V159.641H154.353V158.588H148.624V166.641ZM169.76 157.426H168.461V164.713H169.76V161.568H171.551V160.475H169.76V157.426ZM160.627 159.107H164.933V160.543H160.64V164.139H161.625C163.976 164.139 165.596 164.07 167.49 163.729L167.353 162.689C165.569 162.99 164.065 163.052 161.939 163.059V161.527H166.205V158.068H160.627V159.107ZM161.912 169.512H169.76V165.287H161.912V169.512ZM163.183 168.459V166.299H168.502V168.459H163.183ZM176.908 159.49V159.312H179.506V158.26H172.916V159.312H175.514V159.49C175.521 160.673 174.42 161.732 172.574 162.129L173.094 163.168C174.618 162.847 175.692 162.061 176.225 161.035C176.758 161.985 177.824 162.683 179.301 162.977L179.82 161.924C177.995 161.609 176.901 160.646 176.908 159.49ZM172.151 164.029L172.328 165.109C173.313 165.109 174.434 165.103 175.609 165.055V169.279H176.908V164.986C178.036 164.911 179.192 164.795 180.313 164.604L180.217 163.646C177.551 164.016 174.475 164.029 172.151 164.029ZM181.065 169.662H182.35V157.426H181.065V169.662Z" fill="#26272E" fill-opacity="0.7"/>
<path fill-rule="evenodd" clip-rule="evenodd" d="M192 152V155.5V174H194.623L197.518 171.133L194.503 169.761L198 166.27L193.418 164.65C193.418 164.65 197.397 161.907 197.397 161.533C197.397 161.533 193.566 159.739 192.982 159.413C192.982 159.413 197.193 157.418 197.981 157.332L192 155.5L194.948 152H192Z" fill="#26272E" fill-opacity="0.1"/>
<path d="M202.657 70.9849C200.351 69.4779 195.942 70.1848 192.283 71.9715C189.057 73.5475 186.147 75.5916 184.84 78.9483C183.972 81.1766 183.792 83.1746 185.108 84.4791C186.953 86.3087 192.595 84.1821 194.731 83.5776C198.004 82.6513 201.595 81.3561 204.416 83.6264C208.915 87.2471 203.873 94.1138 200.086 96.6942C195.492 99.825 188 100.765 184.322 96.47" stroke="white" stroke-width="1.6" stroke-linecap="round"/>
<path d="M216.208 81.0826C211.52 81.7349 207.481 94.6326 213.448 94.9579C218.16 95.2149 220.41 88.7305 220.427 85.1261C220.459 78.6376 211.58 80.4974 211.015 85.4118" stroke="white" stroke-width="1.6" stroke-linecap="round"/>
<path d="M224.371 78.6254C224.005 75.9949 225.665 83.7862 226.031 86.4167C226.13 87.1254 225.535 95.4357 224.079 93.0766C222.472 90.4751 225.266 86.0433 226.715 84.0626C229.879 80.9103 232.073 79.1019 235.876 77.9893" stroke="white" stroke-width="1.6" stroke-linecap="round"/>
<path d="M235.658 78.1268C234.298 82.3334 234.029 95.679 234.287 91.2802C234.724 83.8397 235.895 79.0549 243.475 77.039" stroke="white" stroke-width="1.6" stroke-linecap="round"/>
<path d="M243.845 77.6888C242.286 79.4301 242.667 87.5677 245.4 88.8596C249.317 90.7111 251.883 80.0426 251.945 76.5617C252.009 72.9824 252.099 86.8931 251.799 90.4337C251.209 97.4008 250.018 102.336 247.172 106.807" stroke="white" stroke-width="1.6" stroke-linecap="round"/>
<path d="M262.991 74.9028C261.944 75.9227 263.386 76.8344 263.998 75.7211C264.698 74.4496 262.75 75.1256 262.362 75.4833" stroke="white" stroke-width="1.6" stroke-linecap="round"/>
<path d="M263.742 83.9371C263.012 84.4254 262.17 86.4139 263.737 85.6747C265.159 85.0041 264.527 83.2325 263.116 84.7402" stroke="white" stroke-width="1.6" stroke-linecap="round"/>
<path d="M272.816 72.1625C268.769 73.5563 267.837 78.1405 268.268 81.9574C268.638 85.2316 271.59 85.991 274.395 86.1096" stroke="white" stroke-width="1.6" stroke-linecap="round"/>
<path d="M191 53.341V41.6754C190.975 38.0482 188.667 34.8132 185.223 33.6001L153.5 22.4491C153.315 22.3878 153.117 22.3266 152.932 22.2653C150.895 21.6526 148.71 21.7997 146.797 22.6819L137.231 20.2679C133.528 19.3244 129.639 20.9296 127.677 24.1892C127.43 24.5935 127.232 25.0102 127.06 25.4268C125.109 26.2846 123.505 27.8531 122.616 29.8872C121.233 33.0732 121.925 36.7616 124.356 39.2491L127.418 42.3738L108.161 62.5436L65.5017 28.9927C62.4405 26.5787 58.2066 26.4071 54.9602 28.5638C51.7262 30.7204 50.2696 34.6662 51.3559 38.3913L67.9087 95.4941C68.3654 97.0626 69.2665 98.4718 70.5009 99.5501L111.001 135C112.469 136.287 114.333 137.035 116.296 137.133L175.348 140C175.496 140 175.632 140 175.768 140C179.088 140 182.137 138.101 183.569 135.098C185.063 131.974 184.519 128.249 182.174 125.675L167.88 109.929L168.46 92.014L181.594 82.4561C184.729 80.1769 186.124 76.1576 185.075 72.4447C184.408 70.0797 182.828 68.1191 180.767 66.9305L188.432 59.4311C190.086 57.8136 191.012 55.608 191 53.3165V53.341Z" fill="white"/>
<path d="M175.817 74.5038L156.721 72.8128L157.424 66.0119L165.584 68.1931C166.053 68.3156 166.559 68.1931 166.917 67.85L181.803 53.2802V41.7861L150.524 30.8067L150.5 30.8434L150.265 31.0762L149.043 32.3629L135.23 28.8828L139.613 33.6005L130.762 33.5025L139.452 42.411L114.357 68.6955V68.72L113.95 69.0508L114.728 84.1353L109.198 74.5038L60.4155 35.941C60.1933 35.7572 59.8723 35.9778 59.9464 36.2474L76.6227 93.0806L117.122 127.404L175.064 130.933L158.943 113.275V111.559L159.757 87.358L176.088 75.5208C176.619 75.141 176.495 74.5405 175.841 74.4915L175.817 74.5038Z" fill="#26272E"/>
<g opacity="0.97">
<path d="M154.005 49.2842L135.033 28.8203L154.339 33.6973L157.017 40.2776L154.005 49.2842Z" fill="#D3D3D3"/>
<path d="M158.968 112.966L159.893 84.6839L113.95 69.0357L114.654 83.8629L109.334 74.3906L60.4034 35.9014C60.1689 35.7176 59.8479 35.9382 59.9343 36.22L76.4131 93.0532L116.728 128.332L175.508 131.187L158.955 112.966H158.968Z" fill="#F6F6F6"/>
<path d="M154.857 91.1428L176.237 75.5805C176.767 75.1884 176.533 74.3551 175.879 74.2938L155.08 72.5293L154.87 91.1428H154.857Z" fill="url(#paint0_linear_4133_88601)"/>
<path d="M182.075 53.4622V41.8456L150.487 30.7559L113.938 69.0368L154.857 91.1304L157.461 66.3287L165.707 68.5344C166.188 68.6569 166.694 68.5344 167.052 68.179L182.087 53.4622H182.075Z" fill="#F6F6F6"/>
<path d="M150.488 30.7676L149.032 39.5168L147.094 34.3825L150.488 30.7676Z" fill="url(#paint1_linear_4133_88601)"/>
<path d="M113.938 69.0504L139.477 42.668L147.031 50.4124L145.031 62.948L157.461 66.3423L157.017 69.945L154.857 91.1441L113.938 69.0504Z" fill="url(#paint2_linear_4133_88601)"/>
<path d="M147.031 50.4128L130.516 33.4902L146.723 33.674L148.957 38.6368L147.031 50.4128Z" fill="#F6F6F6"/>
<path opacity="0.5" d="M150.45 30.8052L144.834 62.7877L165.522 68.4735C165.979 68.596 166.46 68.4735 166.806 68.1426L181.865 53.389V41.7724L150.45 30.793V30.8052Z" fill="url(#paint3_linear_4133_88601)"/>
<path d="M113.938 69.0625L154.857 91.1561L159.77 87.5535L158.967 112.992L150.82 113.593L113.938 69.0625Z" fill="url(#paint4_linear_4133_88601)"/>
<path d="M154.857 91.1438L174.78 76.4883L157.042 78.694L154.857 91.1438Z" fill="url(#paint5_linear_4133_88601)"/>
<path d="M114.641 83.8623L116.727 128.344L109.309 74.4023L114.641 83.8623Z" fill="url(#paint6_linear_4133_88601)"/>
<path d="M116.729 128.346L150.822 113.58L175.521 131.201L116.729 128.346Z" fill="url(#paint7_linear_4133_88601)"/>
<path d="M175.52 131.201L150.82 113.58L159.399 94.6973L158.967 112.968L175.52 131.201Z" fill="url(#paint8_linear_4133_88601)"/>
<path opacity="0.1" d="M150.055 113.25L118.752 75.5821L113.938 69.0508L116.727 128.347L150.055 113.25Z" fill="url(#paint9_linear_4133_88601)"/>
</g>
</g>
<defs>
<linearGradient id="paint0_linear_4133_88601" x1="175.965" y1="82.3324" x2="154.29" y2="81.8101" gradientUnits="userSpaceOnUse">
<stop stop-color="#F6F6F6"/>
<stop offset="1" stop-color="#D9D9D9"/>
</linearGradient>
<linearGradient id="paint1_linear_4133_88601" x1="152.71" y1="32.8385" x2="148.169" y2="36.4366" gradientUnits="userSpaceOnUse">
<stop stop-color="#F6F6F6" stop-opacity="0"/>
<stop offset="0.09" stop-color="#F0F0F0" stop-opacity="0.19"/>
<stop offset="0.21" stop-color="#EAEAEA" stop-opacity="0.4"/>
<stop offset="0.32" stop-color="#E4E4E4" stop-opacity="0.59"/>
<stop offset="0.45" stop-color="#E0E0E0" stop-opacity="0.74"/>
<stop offset="0.57" stop-color="#DDDDDD" stop-opacity="0.85"/>
<stop offset="0.7" stop-color="#DADADA" stop-opacity="0.94"/>
<stop offset="0.84" stop-color="#D9D9D9" stop-opacity="0.98"/>
<stop offset="1" stop-color="#D9D9D9"/>
</linearGradient>
<linearGradient id="paint2_linear_4133_88601" x1="138.756" y1="74.3436" x2="158.549" y2="56.1229" gradientUnits="userSpaceOnUse">
<stop stop-color="#F6F6F6" stop-opacity="0"/>
<stop offset="0.03" stop-color="#F2F2F2" stop-opacity="0.03"/>
<stop offset="0.2" stop-color="#DFDFDF" stop-opacity="0.2"/>
<stop offset="0.38" stop-color="#D1D1D1" stop-opacity="0.33"/>
<stop offset="0.57" stop-color="#C7C7C7" stop-opacity="0.43"/>
<stop offset="0.77" stop-color="#C0C0C0" stop-opacity="0.48"/>
<stop offset="1" stop-color="#BFBFBF" stop-opacity="0.5"/>
</linearGradient>
<linearGradient id="paint3_linear_4133_88601" x1="175.915" y1="35.0328" x2="142.36" y2="63.5072" gradientUnits="userSpaceOnUse">
<stop stop-color="#E6E6E6"/>
<stop offset="0.73" stop-color="#E7E7E7"/>
<stop offset="1" stop-color="#F6F6F6"/>
</linearGradient>
<linearGradient id="paint4_linear_4133_88601" x1="148.08" y1="114.573" x2="135.778" y2="74.2567" gradientUnits="userSpaceOnUse">
<stop stop-color="#F6F6F6" stop-opacity="0"/>
<stop offset="0.13" stop-color="#EAEAEA" stop-opacity="0.16"/>
<stop offset="0.28" stop-color="#DFDFDF" stop-opacity="0.32"/>
<stop offset="0.44" stop-color="#D6D6D6" stop-opacity="0.44"/>
<stop offset="0.61" stop-color="#D0D0D0" stop-opacity="0.53"/>
<stop offset="0.79" stop-color="#CDCDCD" stop-opacity="0.58"/>
<stop offset="0.99" stop-color="#CCCCCC" stop-opacity="0.6"/>
</linearGradient>
<linearGradient id="paint5_linear_4133_88601" x1="166.386" y1="85.5684" x2="159.286" y2="77.4661" gradientUnits="userSpaceOnUse">
<stop stop-color="white" stop-opacity="0.6"/>
<stop offset="1" stop-color="#EFEFEF" stop-opacity="0"/>
</linearGradient>
<linearGradient id="paint6_linear_4133_88601" x1="125.466" y1="91.668" x2="106.293" y2="106.84" gradientUnits="userSpaceOnUse">
<stop stop-color="#E1E1E1" stop-opacity="0.5"/>
<stop offset="0.13" stop-color="#D7D7D7" stop-opacity="0.64"/>
<stop offset="0.33" stop-color="#CCCCCC" stop-opacity="0.8"/>
<stop offset="0.53" stop-color="#C5C5C5" stop-opacity="0.91"/>
<stop offset="0.75" stop-color="#C0C0C0" stop-opacity="0.98"/>
<stop offset="1" stop-color="#BFBFBF"/>
</linearGradient>
<linearGradient id="paint7_linear_4133_88601" x1="136.812" y1="145.465" x2="156.8" y2="111.308" gradientUnits="userSpaceOnUse">
<stop stop-color="#F6F6F6" stop-opacity="0"/>
<stop offset="0.15" stop-color="#E9E9E9" stop-opacity="0.12"/>
<stop offset="0.34" stop-color="#DCDCDC" stop-opacity="0.24"/>
<stop offset="0.54" stop-color="#D3D3D3" stop-opacity="0.33"/>
<stop offset="0.75" stop-color="#CDCDCD" stop-opacity="0.38"/>
<stop offset="1" stop-color="#CCCCCC" stop-opacity="0.4"/>
</linearGradient>
<linearGradient id="paint8_linear_4133_88601" x1="171.743" y1="107.564" x2="159.767" y2="122.844" gradientUnits="userSpaceOnUse">
<stop stop-color="#EFEFEF" stop-opacity="0"/>
<stop offset="1" stop-color="white" stop-opacity="0.6"/>
</linearGradient>
<linearGradient id="paint9_linear_4133_88601" x1="114.481" y1="98.6683" x2="146.66" y2="99.6506" gradientUnits="userSpaceOnUse">
<stop stop-color="white" stop-opacity="0.7"/>
<stop offset="1" stop-color="#E7E7E7"/>
</linearGradient>
<clipPath id="clip0_4133_88601">
<rect width="280" height="174" fill="white"/>
</clipPath>
</defs>
</svg>
