<svg width="256" height="213" viewBox="0 0 256 213" fill="none" xmlns="http://www.w3.org/2000/svg">
<path d="M203.052 99.0292L163.316 70.6344C162.376 69.964 161.316 69.468 160.204 69.1865L118.72 58.7831L98.7591 37.869C97.0108 36.0323 94.6002 35 92.0836 35H92.0703L75.5933 35.0268C72.9178 35.0268 70.3747 36.2066 68.6131 38.2444L48.2817 61.9068C46.4141 64.0786 45.6326 66.9878 46.1625 69.8166L48.7718 83.6923C49.3281 86.6417 51.2486 89.1487 53.9374 90.4357L62.5997 94.5649C64.9044 95.6642 67.5535 95.7447 69.9376 94.8062L71.1694 94.3102L75.1827 110.076C75.7257 112.194 76.9708 114.058 78.7324 115.345L79.3417 115.787L72.0966 129.556C70.282 132.988 70.7588 137.211 73.3019 140.147C75.8449 143.083 79.898 144.129 83.5007 142.775L105.143 134.664L109.422 137.801C111.223 139.128 113.435 139.745 115.66 139.544L160.442 135.589C161.621 135.481 162.76 135.16 163.82 134.61L177.33 127.692L185.211 140.562C186.919 143.364 189.926 145 193.091 145C193.688 145 194.297 144.946 194.906 144.812C198.694 144.048 201.621 140.978 202.244 137.104L206.88 108.172C207.449 104.633 205.966 101.08 203.078 99.0024L203.052 99.0292Z" fill="white"/>
<path d="M197.581 106.775L157.66 78.407L115.328 67.7891H115.315L114.017 67.4673L92.4274 44.8238L75.606 44.4082L55.5527 68.084L57.9766 81.8524L66.5198 86.0621L77.6192 81.5307L84.5597 107.553L91.6592 112.741L80.7054 133.534L106.732 123.788L106.666 123.815L108.692 125.222L114.931 129.794L159.289 125.879L180.799 115.261L193.025 135.425L197.581 106.775Z" fill="#26272E"/>
<g opacity="0.97">
<path d="M113.885 67.2366L92.0834 44.3652L75.6063 44.4055L55.2617 68.0544L57.8578 81.9301L66.5201 86.0593L113.885 67.2366Z" fill="#EFEFEF"/>
<path d="M77.5137 81.679L113.885 67.2402L157.965 78.3006L197.714 106.695L159.621 126.242L114.825 130.197L84.1363 107.728L77.5137 81.679Z" fill="url(#paint0_linear_4132_88756)"/>
<path d="M80.2422 133.974L129.236 115.621L115.21 67.5723L80.2422 133.974Z" fill="url(#paint1_linear_4132_88756)"/>
<path d="M113.885 67.2402L78.3349 84.8429L77.5137 81.679L113.885 67.2402Z" fill="url(#paint2_linear_4132_88756)"/>
<path d="M157.966 78.2984L159.621 126.24L138.164 128.05L137.74 73.2441L157.966 78.2984Z" fill="url(#paint3_linear_4132_88756)"/>
<path d="M159.621 126.241L179.409 94.293L189.78 110.81L159.621 126.241Z" fill="url(#paint4_linear_4132_88756)"/>
<path d="M157.965 78.2949L197.714 106.69L193.078 135.634L157.965 78.2949Z" fill="url(#paint5_linear_4132_88756)"/>
<path d="M180.694 115.391L174.866 118.394L157.965 78.2949L180.694 115.391Z" fill="url(#paint6_linear_4132_88756)"/>
<path d="M129.237 115.623L109.502 126.268L106.469 124.15L129.237 115.623Z" fill="url(#paint7_linear_4132_88756)"/>
<path d="M55.2617 68.0544L75.6063 44.4055L92.0834 44.3652L57.8578 81.9301L55.2617 68.0544Z" fill="url(#paint8_linear_4132_88756)"/>
</g>
<path d="M92.3427 168.204C93.5949 165.222 94.3163 159.365 89.0869 158.014C81.8241 157.517 77.6214 170.442 77.0656 176.903C76.5905 182.426 78.59 191.812 86.5283 191.122C90.8222 190.75 93.8666 186.554 95.5985 183.117" stroke="#F9F7D8" stroke-width="1.8" stroke-linecap="round"/>
<path d="M104.038 159.291C105.335 166.854 101.322 176.894 97.9824 183.438C97.9316 183.538 93.5326 191.459 93.8635 188.175C94.0748 186.078 95.2475 183.516 96.2912 181.733C97.7823 179.184 102.565 174.926 105.075 178.484C107.162 181.444 105.486 186.478 105.129 189.664" stroke="#F9F7D8" stroke-width="1.8" stroke-linecap="round"/>
<path d="M106.367 182.952C107.405 189.579 118.639 182.37 119.39 176.642C119.39 174.665 118.393 173.958 116.692 174.203C114.186 174.564 113.058 176.954 112.337 178.678C111.078 181.691 110.42 187.704 113.871 190.023C117.519 192.474 121.937 187.751 125.151 183.861C125.902 182.952 129.408 178.145 127.154 175.908C123.122 171.906 117.387 185.321 120.643 189.329C125.151 191.947 128.598 189.329 129.408 188.584C132.163 186.047 133.666 182.952 135.168 176.642" stroke="#F9F7D8" stroke-width="1.8" stroke-linecap="round"/>
<path d="M135.284 176.067C135.284 174.036 135.389 180.133 135.229 182.157C135.026 184.729 133.316 192.265 134.138 189.818C135.801 184.867 139.175 176.067 144.435 176.652" stroke="#F9F7D8" stroke-width="1.8" stroke-linecap="round"/>
<path d="M151.689 178.46C149.021 180.293 145.308 188.487 150.706 189.318C155.179 190.007 158.865 181.141 159.943 178.135C161.495 173.807 159.1 180.166 158.895 181.971C158.605 184.524 158.1 187.749 159.943 189.579" stroke="#F9F7D8" stroke-width="1.8" stroke-linecap="round"/>
<path d="M164.972 176.654C163.715 182.892 163.442 189.448 162.431 195.758C162.258 196.839 160.532 204 161.067 202.882" stroke="#F9F7D8" stroke-width="1.8" stroke-linecap="round"/>
<path d="M164.97 178.144C167.138 176.701 173.001 176.38 172.435 179.234C171.479 184.047 167.09 185.758 162.967 189.08" stroke="#F9F7D8" stroke-width="1.8" stroke-linecap="round"/>
<path d="M181.001 169.695C179.748 172.161 178.496 177.908 178.496 182.123" stroke="#F9F7D8" stroke-width="1.8" stroke-linecap="round"/>
<path d="M178.496 187.094V186.1" stroke="#F9F7D8" stroke-width="1.8" stroke-linecap="round"/>
<defs>
<linearGradient id="paint0_linear_4132_88756" x1="77.5137" y1="98.7186" x2="197.714" y2="98.7186" gradientUnits="userSpaceOnUse">
<stop stop-color="#F6F6F6"/>
<stop offset="1" stop-color="#CCCCCC"/>
</linearGradient>
<linearGradient id="paint1_linear_4132_88756" x1="73.262" y1="109.588" x2="119.533" y2="93.3047" gradientUnits="userSpaceOnUse">
<stop stop-color="#F6F6F6"/>
<stop offset="1" stop-color="#CCCCCC"/>
</linearGradient>
<linearGradient id="paint2_linear_4132_88756" x1="96.7589" y1="77.6302" x2="95.3933" y2="74.3707" gradientUnits="userSpaceOnUse">
<stop stop-color="#F6F6F6" stop-opacity="0"/>
<stop offset="1" stop-color="#B3B3B3"/>
</linearGradient>
<linearGradient id="paint3_linear_4132_88756" x1="137.74" y1="100.647" x2="159.621" y2="100.647" gradientUnits="userSpaceOnUse">
<stop stop-color="#F6F6F6" stop-opacity="0"/>
<stop offset="1" stop-color="white" stop-opacity="0.7"/>
</linearGradient>
<linearGradient id="paint4_linear_4132_88756" x1="165.303" y1="102.927" x2="176.087" y2="120.4" gradientUnits="userSpaceOnUse">
<stop stop-color="#F6F6F6"/>
<stop offset="1" stop-color="white" stop-opacity="0"/>
</linearGradient>
<linearGradient id="paint5_linear_4132_88756" x1="157.965" y1="106.958" x2="197.714" y2="106.958" gradientUnits="userSpaceOnUse">
<stop stop-color="#F6F6F6"/>
<stop offset="1" stop-color="#D9D9D9"/>
</linearGradient>
<linearGradient id="paint6_linear_4132_88756" x1="165.283" y1="99.148" x2="169.013" y2="97.1444" gradientUnits="userSpaceOnUse">
<stop stop-color="#F6F6F6" stop-opacity="0"/>
<stop offset="1" stop-color="#A6A6A6"/>
</linearGradient>
<linearGradient id="paint7_linear_4132_88756" x1="118.728" y1="122.023" x2="117.801" y2="119.825" gradientUnits="userSpaceOnUse">
<stop stop-color="#F6F6F6" stop-opacity="0"/>
<stop offset="1" stop-color="#B3B3B3"/>
</linearGradient>
<linearGradient id="paint8_linear_4132_88756" x1="78.0431" y1="66.9197" x2="66.4735" y2="51.773" gradientUnits="userSpaceOnUse">
<stop stop-color="#F6F6F6" stop-opacity="0"/>
<stop offset="1" stop-color="white" stop-opacity="0.6"/>
</linearGradient>
</defs>
</svg>
