<svg width="280" height="174" viewBox="0 0 280 174" fill="none" xmlns="http://www.w3.org/2000/svg">
<g clip-path="url(#clip0_4133_88751)">
<path fill-rule="evenodd" clip-rule="evenodd" d="M88.0522 174H88.0615H94V152H90.4918L90.9185 153.707C91.2989 155.232 90.9185 156.843 89.9074 158.013C88.5253 159.615 88.4232 162.012 89.6663 163.738L89.8982 164.055C90.6588 165.561 90.5846 167.373 89.7034 168.802L88.6737 170.471C88.1913 171.276 87.9594 172.216 88.0058 173.166L88.0522 174Z" fill="#26272E" fill-opacity="0.1"/>
<rect width="92" height="22" transform="translate(94 152)" fill="#26272E" fill-opacity="0.1"/>
<path d="M113.823 163.291H102.653V164.33H113.823V163.291ZM103.856 160.064C103.85 161.534 105.552 162.402 108.231 162.402C110.904 162.402 112.6 161.534 112.606 160.064C112.6 158.602 110.904 157.706 108.231 157.699C105.552 157.706 103.85 158.602 103.856 160.064ZM103.98 167.461C103.98 168.876 105.565 169.669 108.231 169.662C110.863 169.669 112.449 168.876 112.456 167.461C112.449 166.039 110.863 165.246 108.231 165.26C105.565 165.246 103.98 166.039 103.98 167.461ZM105.196 160.064C105.189 159.21 106.345 158.731 108.231 158.738C110.105 158.731 111.273 159.21 111.267 160.064C111.273 160.905 110.105 161.384 108.231 161.391C106.345 161.384 105.189 160.905 105.196 160.064ZM105.292 167.461C105.285 166.668 106.358 166.244 108.231 166.244C110.077 166.244 111.157 166.668 111.157 167.461C111.157 168.227 110.077 168.657 108.231 168.65C106.358 168.657 105.285 168.227 105.292 167.461ZM124.869 157.426H123.57V164.617H121.109V165.533H123.57V166.709H124.869V157.426ZM114.628 163.018L114.792 164.057C115.784 164.057 116.925 164.057 118.115 164.009V166.326H119.413V163.94C120.494 163.865 121.594 163.756 122.64 163.578L122.558 162.648C119.947 162.977 116.891 162.997 114.628 163.018ZM115.585 160.051C115.578 161.356 116.823 162.184 118.634 162.184C120.425 162.184 121.669 161.356 121.669 160.051C121.669 158.752 120.425 157.891 118.634 157.891C116.816 157.891 115.578 158.752 115.585 160.051ZM116.324 169.402H125.169V168.35H117.609V165.807H116.324V169.402ZM116.816 160.051C116.809 159.319 117.547 158.848 118.634 158.861C119.68 158.848 120.432 159.319 120.439 160.051C120.432 160.775 119.68 161.227 118.634 161.227C117.547 161.227 116.809 160.775 116.816 160.051ZM136.256 157.412H134.97V169.662H136.256V163.455H138.224V162.375H136.256V157.412ZM126.644 160.393H133.904V159.326H130.965V157.576H129.666V159.326H126.644V160.393ZM127.273 164.139C127.273 165.82 128.558 166.989 130.322 166.996C132.079 166.989 133.364 165.82 133.371 164.139C133.364 162.471 132.079 161.295 130.322 161.295C128.558 161.295 127.273 162.471 127.273 164.139ZM128.517 164.139C128.51 163.093 129.276 162.368 130.322 162.361C131.361 162.368 132.12 163.093 132.127 164.139C132.12 165.205 131.361 165.916 130.322 165.902C129.276 165.916 128.51 165.205 128.517 164.139ZM148.654 160.994H141.504V157.85H140.219V162.033H148.654V160.994ZM138.729 164.617H149.939V163.578H138.729V164.617ZM140.123 169.375H148.736V168.309H141.422V165.779H140.123V169.375ZM165.29 162.484H154.12V163.523H159.042V164.59H155.46V165.588H162.596V166.518H155.473V169.539H164.223V168.541H156.745V167.461H163.881V164.59H160.34V163.523H165.29V162.484ZM155.555 161.582H163.854V157.809H155.555V161.582ZM156.827 160.557V158.834H162.555V160.557H156.827ZM176.636 157.412H175.392V162.252H173.874V157.74H172.657V169.074H173.874V163.305H175.392V169.662H176.636V157.412ZM166.108 166.162L166.86 167.064C170.367 165.089 171.434 162.19 171.44 158.971H166.628V160.037H170.176C169.971 162.532 168.829 164.617 166.108 166.162Z" fill="#26272E" fill-opacity="0.7"/>
<path fill-rule="evenodd" clip-rule="evenodd" d="M186 152V155.5V174H188.623L191.518 171.133L188.503 169.761L192 166.27L187.418 164.65C187.418 164.65 191.397 161.907 191.397 161.533C191.397 161.533 187.566 159.739 186.982 159.413C186.982 159.413 191.193 157.418 191.981 157.332L186 155.5L188.948 152H186Z" fill="#26272E" fill-opacity="0.1"/>
<path d="M218.758 91.1038L176.06 60.902C175.05 60.189 173.911 59.6614 172.716 59.362L128.14 48.2965L106.692 26.0516C104.813 24.098 102.223 23 99.5184 23H99.5041L81.799 23.0285C78.9241 23.0285 76.1914 24.2834 74.2985 26.4508L52.4518 51.619C50.445 53.9291 49.6053 57.0234 50.1746 60.0322L52.9783 74.7909C53.5761 77.928 55.6398 80.5945 58.529 81.9634L67.837 86.3554C70.3134 87.5247 73.1599 87.6102 75.7218 86.6121L77.0454 86.0845L81.3578 102.854C81.9413 105.107 83.2792 107.089 85.1721 108.458L85.8268 108.928L78.0416 123.573C76.0918 127.223 76.6042 131.715 79.3368 134.838C82.0694 137.961 86.4245 139.073 90.2958 137.633L113.552 129.006L118.149 132.343C120.084 133.754 122.461 134.41 124.852 134.196L172.972 129.99C174.239 129.876 175.463 129.533 176.601 128.949L191.118 121.591L199.587 135.28C201.422 138.26 204.653 140 208.055 140C208.695 140 209.35 139.943 210.005 139.8C214.075 138.988 217.22 135.722 217.889 131.601L222.871 100.829C223.483 97.0643 221.889 93.2856 218.786 91.0753L218.758 91.1038Z" fill="white"/>
<path d="M212.88 99.3454L169.983 69.1721L124.497 57.8785H124.482L123.088 57.5363L99.8887 33.4518L81.8135 33.0098L60.2656 58.1922L62.8702 72.8368L72.0501 77.3143L83.9768 72.4946L91.4346 100.172L99.0632 105.691L87.293 127.808L115.26 117.441L115.189 117.469L117.366 118.967L124.07 123.829L171.734 119.665L194.847 108.372L207.984 129.818L212.88 99.3454Z" fill="#26272E"/>
<g opacity="0.97">
<path d="M122.946 57.2937L99.5192 32.9668L81.8141 33.0096L59.9531 58.1635L62.7427 72.9222L72.0507 77.3141L122.946 57.2937Z" fill="#EFEFEF"/>
<path d="M83.8633 72.6506L122.945 57.293L170.311 69.0571L213.022 99.259L172.09 120.049L123.956 124.256L90.9795 100.357L83.8633 72.6506Z" fill="url(#paint0_linear_4133_88751)"/>
<path d="M86.7949 128.276L139.441 108.755L124.369 57.6484L86.7949 128.276Z" fill="url(#paint1_linear_4133_88751)"/>
<path d="M122.945 57.293L84.7457 76.0158L83.8633 72.6506L122.945 57.293Z" fill="url(#paint2_linear_4133_88751)"/>
<path d="M170.311 69.0575L172.09 120.05L149.034 121.975L148.578 63.6816L170.311 69.0575Z" fill="url(#paint3_linear_4133_88751)"/>
<path d="M172.09 120.051L193.353 86.0703L204.497 103.638L172.09 120.051Z" fill="url(#paint4_linear_4133_88751)"/>
<path d="M170.312 69.0566L213.024 99.2585L208.043 130.045L170.312 69.0566Z" fill="url(#paint5_linear_4133_88751)"/>
<path d="M194.735 108.513L188.473 111.707L170.312 69.0566L194.735 108.513Z" fill="url(#paint6_linear_4133_88751)"/>
<path d="M139.442 108.758L118.236 120.08L114.977 117.827L139.442 108.758Z" fill="url(#paint7_linear_4133_88751)"/>
<path d="M59.9531 58.1635L81.8141 33.0096L99.5192 32.9668L62.7427 72.9222L59.9531 58.1635Z" fill="url(#paint8_linear_4133_88751)"/>
</g>
<path d="M177.703 34.7921C179.148 31.3454 179.98 24.577 173.946 23.0161C165.566 22.4417 160.717 37.3779 160.076 44.8447C159.528 51.227 161.835 62.073 170.994 61.2764C175.949 60.8455 179.462 55.9975 181.46 52.0252" stroke="white" stroke-width="2" stroke-linecap="round"/>
<path d="M191.198 24.4922C192.695 33.2325 188.064 44.8338 184.211 52.3965C184.152 52.5116 179.076 61.6652 179.458 57.871C179.702 55.4478 181.055 52.4871 182.259 50.4257C183.98 47.4805 189.498 42.5602 192.394 46.6717C194.803 50.092 192.868 55.91 192.457 59.5915" stroke="white" stroke-width="2" stroke-linecap="round"/>
<path d="M193.887 51.8343C195.084 59.4926 208.046 51.1618 208.913 44.5424C208.913 42.258 207.763 41.4404 205.799 41.7239C202.908 42.1415 201.607 44.9032 200.775 46.8955C199.323 50.3769 198.563 57.3263 202.545 60.0053C206.754 62.8377 211.852 57.3798 215.56 52.8851C216.427 51.8343 220.472 46.2791 217.872 43.6941C213.219 39.0698 206.602 54.5721 210.358 59.2039C215.56 62.2289 219.538 59.2039 220.472 58.3422C223.651 55.4113 225.385 51.8343 227.119 44.5424" stroke="white" stroke-width="2" stroke-linecap="round"/>
<path d="M227.252 43.8801C227.252 41.5338 227.373 48.5796 227.189 50.9187C226.954 53.8899 224.982 62.5992 225.93 59.7718C227.849 54.0505 231.742 43.8801 237.811 44.5571" stroke="white" stroke-width="2" stroke-linecap="round"/>
<path d="M246.18 46.6412C243.102 48.7594 238.817 58.2286 245.046 59.1895C250.207 59.9856 254.46 49.7391 255.704 46.2655C257.495 41.2647 254.731 48.6131 254.495 50.6987C254.16 53.6486 253.577 57.3754 255.704 59.49" stroke="white" stroke-width="2" stroke-linecap="round"/>
<path d="M261.506 44.5547C260.056 51.7635 259.741 59.3396 258.574 66.6314C258.375 67.8798 256.384 76.1553 257.001 74.8634" stroke="white" stroke-width="2" stroke-linecap="round"/>
<path d="M261.505 46.2804C264.007 44.6129 270.772 44.2425 270.118 47.5404C269.015 53.1026 263.95 55.0791 259.193 58.918" stroke="white" stroke-width="2" stroke-linecap="round"/>
<path d="M279.999 36.5137C278.554 39.3626 277.109 46.0042 277.109 50.8746" stroke="white" stroke-width="2" stroke-linecap="round"/>
<path d="M277.109 56.6196V55.4707" stroke="white" stroke-width="2" stroke-linecap="round"/>
</g>
<defs>
<linearGradient id="paint0_linear_4133_88751" x1="83.8633" y1="90.7745" x2="213.022" y2="90.7745" gradientUnits="userSpaceOnUse">
<stop stop-color="#F6F6F6"/>
<stop offset="1" stop-color="#CCCCCC"/>
</linearGradient>
<linearGradient id="paint1_linear_4133_88751" x1="79.2944" y1="102.338" x2="128.901" y2="84.7017" gradientUnits="userSpaceOnUse">
<stop stop-color="#F6F6F6"/>
<stop offset="1" stop-color="#CCCCCC"/>
</linearGradient>
<linearGradient id="paint2_linear_4133_88751" x1="104.543" y1="68.3442" x2="103.101" y2="64.8668" gradientUnits="userSpaceOnUse">
<stop stop-color="#F6F6F6" stop-opacity="0"/>
<stop offset="1" stop-color="#B3B3B3"/>
</linearGradient>
<linearGradient id="paint3_linear_4133_88751" x1="148.578" y1="92.8283" x2="172.09" y2="92.8283" gradientUnits="userSpaceOnUse">
<stop stop-color="#F6F6F6" stop-opacity="0"/>
<stop offset="1" stop-color="white" stop-opacity="0.7"/>
</linearGradient>
<linearGradient id="paint4_linear_4133_88751" x1="178.196" y1="95.2535" x2="189.613" y2="113.943" gradientUnits="userSpaceOnUse">
<stop stop-color="#F6F6F6"/>
<stop offset="1" stop-color="white" stop-opacity="0"/>
</linearGradient>
<linearGradient id="paint5_linear_4133_88751" x1="170.312" y1="99.5437" x2="213.024" y2="99.5437" gradientUnits="userSpaceOnUse">
<stop stop-color="#F6F6F6"/>
<stop offset="1" stop-color="#D9D9D9"/>
</linearGradient>
<linearGradient id="paint6_linear_4133_88751" x1="178.176" y1="91.2367" x2="182.166" y2="89.0717" gradientUnits="userSpaceOnUse">
<stop stop-color="#F6F6F6" stop-opacity="0"/>
<stop offset="1" stop-color="#A6A6A6"/>
</linearGradient>
<linearGradient id="paint7_linear_4133_88751" x1="128.149" y1="115.565" x2="127.17" y2="113.22" gradientUnits="userSpaceOnUse">
<stop stop-color="#F6F6F6" stop-opacity="0"/>
<stop offset="1" stop-color="#B3B3B3"/>
</linearGradient>
<linearGradient id="paint8_linear_4133_88751" x1="84.4325" y1="56.9566" x2="72.1602" y2="40.7253" gradientUnits="userSpaceOnUse">
<stop stop-color="#F6F6F6" stop-opacity="0"/>
<stop offset="1" stop-color="white" stop-opacity="0.6"/>
</linearGradient>
<clipPath id="clip0_4133_88751">
<rect width="280" height="174" fill="white"/>
</clipPath>
</defs>
</svg>
