<svg width="224" height="48" viewBox="0 0 224 48" fill="none" xmlns="http://www.w3.org/2000/svg">
<path fill-rule="evenodd" clip-rule="evenodd" d="M15.3968 40.6878V47.8673C23.9759 47.8673 30.9329 40.842 30.9329 32.1787V0.00390625H23.6915V2.44456C21.2988 0.899764 18.4552 0.00434392 15.4045 0.00434392C6.89646 0.00434392 0 6.96846 0 15.5599C0 24.1514 6.89646 31.1155 15.4045 31.1155C18.4552 31.1155 21.2988 30.2201 23.6915 28.6753V32.3117C23.6915 36.9385 19.9786 40.6878 15.3968 40.6878ZM23.6915 15.1955V15.9244C23.5026 20.382 19.8654 23.936 15.4045 23.936C10.8226 23.936 7.10975 20.1867 7.10975 15.5599C7.10975 10.9331 10.8226 7.18385 15.4045 7.18385C19.8654 7.18385 23.5026 10.7378 23.6915 15.1955Z" fill="white"/>
<path fill-rule="evenodd" clip-rule="evenodd" d="M30.748 15.5595C30.748 6.96803 37.6444 0.00390625 46.1524 0.00390625C49.207 0.00390625 52.0538 0.901555 54.4484 2.44989V0.00390625H61.6898V32.1787C61.6898 40.842 54.7328 47.8673 46.1537 47.8673V40.6878C50.7355 40.6878 54.4484 36.9385 54.4484 32.3117V28.6691C52.0538 30.2174 49.207 31.1151 46.1524 31.1151C37.6444 31.1151 30.748 24.151 30.748 15.5595ZM37.8577 15.5595C37.8577 20.1863 41.5706 23.9356 46.1524 23.9356C50.7343 23.9356 54.4472 20.1863 54.4472 15.5595C54.4472 10.9327 50.7343 7.18341 46.1524 7.18341C41.5706 7.18341 37.8577 10.9327 37.8577 15.5595Z" fill="white"/>
<path d="M76.9558 0.00244141C68.4478 0.00244141 61.5513 6.96656 61.5513 15.558C61.5513 24.1495 68.4478 31.1136 76.9558 31.1136C85.4638 31.1136 92.3603 24.1495 92.3603 15.558C92.3603 6.96656 85.4638 0.00244141 76.9558 0.00244141ZM76.9558 23.9341C72.374 23.9341 68.6611 20.1848 68.6611 15.558C68.6611 10.9312 72.374 7.18195 76.9558 7.18195C81.5376 7.18195 85.2505 10.9312 85.2505 15.558C85.2505 20.1848 81.5376 23.9341 76.9558 23.9341Z" fill="white"/>
<path fill-rule="evenodd" clip-rule="evenodd" d="M109.886 15.6923C109.886 7.10084 116.782 0.136719 125.29 0.136719C128.341 0.136719 131.184 1.03243 133.577 2.57769V0.136719H140.819V32.3116C140.819 40.9748 133.862 48.0001 125.283 48.0001V40.8206C129.864 40.8206 133.577 37.0713 133.577 32.4445V28.8077C131.185 30.3525 128.341 31.2479 125.29 31.2479C116.782 31.2479 109.886 24.2838 109.886 15.6923ZM133.577 15.328V16.0566C133.388 20.5143 129.751 24.0684 125.29 24.0684C120.708 24.0684 116.995 20.3191 116.995 15.6923C116.995 11.0655 120.708 7.31622 125.29 7.31622C129.751 7.31622 133.388 10.8703 133.577 15.328Z" fill="white"/>
<path fill-rule="evenodd" clip-rule="evenodd" d="M171.26 19.0151C171.26 19.0159 171.259 19.0168 171.259 19.0177L171.262 19.0151H171.26ZM171.607 14.4973C171.709 16.0094 171.594 17.5321 171.26 19.0151H159.986H148.711C150.014 21.9161 152.903 23.9343 156.26 23.9343C158.449 23.9343 160.439 23.0755 161.919 21.6741H170.411C168.526 26.1254 164.647 29.5078 159.907 30.6724C159.886 30.6804 159.863 30.6857 159.839 30.6911C159.705 30.7229 159.568 30.7522 159.431 30.7814L159.431 30.7815C159.408 30.7861 159.384 30.7913 159.36 30.7966C159.329 30.8033 159.298 30.8101 159.267 30.816C159.176 30.8346 159.082 30.8511 158.99 30.8673C158.976 30.8697 158.962 30.8721 158.949 30.8745C158.921 30.8795 158.893 30.8847 158.865 30.8899C158.802 30.9015 158.739 30.9132 158.678 30.9224C158.641 30.9277 158.605 30.933 158.569 30.9383C158.532 30.9436 158.496 30.949 158.459 30.9543C158.33 30.9729 158.198 30.9915 158.069 31.0075C158.051 31.0101 158.032 31.0121 158.014 31.0141C157.996 31.0161 157.977 31.0181 157.959 31.0208C153.469 31.526 148.806 30.0476 145.364 26.5721C141.367 22.5383 140.034 16.8346 141.354 11.6787C141.354 11.6748 141.356 11.6712 141.357 11.6678C141.359 11.6618 141.361 11.6561 141.361 11.6494C141.419 11.4261 141.48 11.2027 141.548 10.982L141.604 10.8065C141.659 10.6336 141.714 10.4635 141.775 10.2933C141.809 10.1976 141.846 10.1019 141.883 10.0062L141.883 10.0061C141.933 9.87581 141.983 9.74551 142.036 9.61522C142.073 9.52277 142.113 9.43166 142.153 9.34094C142.169 9.3038 142.185 9.26673 142.201 9.22965C142.241 9.1366 142.283 9.04355 142.325 8.9505L142.325 8.95045C142.402 8.78559 142.481 8.62338 142.562 8.46384C142.569 8.45062 142.575 8.43725 142.582 8.42378C142.602 8.38307 142.622 8.3416 142.644 8.30164C142.749 8.09689 142.862 7.8948 142.978 7.69537C142.981 7.69138 142.983 7.68673 142.986 7.68207C142.989 7.67742 142.991 7.67276 142.994 7.66878C145.669 3.07921 150.607 0 156.258 0C161.227 0 165.643 2.38253 168.455 6.07599L168.581 6.24351C168.647 6.33126 168.713 6.42167 168.776 6.51208C168.842 6.6024 168.905 6.69538 168.968 6.78836L168.968 6.78862C168.993 6.82718 169.019 6.86507 169.045 6.90296C169.07 6.94085 169.096 6.97874 169.121 7.0173C169.226 7.17951 169.329 7.33905 169.426 7.50391C169.44 7.5265 169.453 7.54975 169.466 7.57301C169.479 7.59629 169.492 7.61957 169.505 7.64219L169.506 7.64229C169.59 7.7885 169.674 7.93472 169.753 8.08359C169.779 8.12971 169.803 8.17583 169.827 8.22194C169.839 8.24496 169.851 8.26798 169.864 8.291C169.929 8.41847 169.992 8.54595 170.056 8.67342L170.056 8.67391C170.064 8.69129 170.073 8.7085 170.082 8.72563C170.107 8.77663 170.132 8.8269 170.156 8.87866C170.24 9.05415 170.319 9.23231 170.396 9.41047C170.432 9.49556 170.467 9.58065 170.501 9.66574C170.512 9.69465 170.524 9.72375 170.536 9.75293C170.567 9.83116 170.598 9.91003 170.627 9.98749L170.738 10.2906C170.765 10.3672 170.791 10.4455 170.816 10.5228C170.823 10.5421 170.829 10.5613 170.835 10.5805C170.896 10.7639 170.954 10.9501 171.009 11.1389C171.035 11.224 171.059 11.3064 171.083 11.3915C171.114 11.5085 171.146 11.6281 171.175 11.7478C171.183 11.7797 171.191 11.809 171.199 11.8382L171.214 11.918C171.27 12.1546 171.322 12.394 171.367 12.6359C171.378 12.6865 171.388 12.737 171.396 12.7875C171.444 13.0401 171.48 13.298 171.515 13.556C171.516 13.5706 171.518 13.5845 171.52 13.5985C171.522 13.6125 171.524 13.6264 171.525 13.6411C171.559 13.9229 171.588 14.2101 171.607 14.4973ZM150.386 9.65777C149.735 10.3146 149.219 11.0511 148.829 11.8382H163.67C163.283 11.0485 162.762 10.3092 162.111 9.65245C158.875 6.38444 153.624 6.3871 150.386 9.65777ZM202.084 19.0177L202.084 19.0158H197.689V19.0151H179.535C180.839 21.9161 183.727 23.9343 187.085 23.9343C189.273 23.9343 191.264 23.0755 192.744 21.6741H201.236C199.35 26.1254 195.472 29.5078 190.732 30.6724C190.711 30.6804 190.687 30.6857 190.663 30.6911C190.529 30.7229 190.392 30.7521 190.256 30.7813L190.256 30.7814L190.255 30.7815C190.232 30.7861 190.208 30.7913 190.184 30.7966C190.154 30.8033 190.123 30.8101 190.092 30.816C190 30.8346 189.907 30.8511 189.814 30.8673L189.773 30.8745C189.758 30.8773 189.742 30.8802 189.726 30.8831C189.714 30.8854 189.702 30.8876 189.689 30.8899L189.689 30.8899C189.627 30.9015 189.564 30.9132 189.502 30.9224L189.393 30.9384L189.283 30.9543C189.154 30.9729 189.023 30.9915 188.894 31.0075C188.883 31.0091 188.872 31.0104 188.861 31.0116C188.854 31.0125 188.846 31.0133 188.838 31.0141C188.82 31.0161 188.802 31.0181 188.783 31.0208C184.294 31.526 179.63 30.0476 176.188 26.5721C172.191 22.5383 170.859 16.8346 172.178 11.6787C172.179 11.6748 172.18 11.6712 172.182 11.6678L172.182 11.6678C172.184 11.6618 172.186 11.6562 172.186 11.6494C172.244 11.4261 172.304 11.2027 172.373 10.982L172.428 10.8065C172.483 10.6336 172.539 10.4635 172.599 10.2933C172.633 10.1979 172.67 10.1025 172.707 10.0071L172.707 10.0061L172.708 10.0044L172.708 10.0041C172.758 9.8745 172.808 9.74486 172.86 9.61522C172.897 9.52277 172.937 9.43165 172.977 9.34093C172.994 9.30379 173.01 9.26672 173.026 9.22965C173.065 9.13691 173.107 9.04416 173.149 8.95142L173.149 8.95137L173.15 8.95045C173.226 8.78559 173.305 8.62338 173.387 8.46384L173.406 8.42378C173.426 8.38307 173.446 8.3416 173.468 8.30164C173.574 8.09689 173.687 7.8948 173.803 7.69537C173.805 7.69138 173.808 7.68672 173.811 7.68207C173.813 7.67742 173.816 7.67276 173.818 7.66878C176.494 3.07921 181.431 0 187.082 0C192.051 0 196.467 2.38253 199.279 6.07599L199.406 6.24351C199.472 6.33126 199.537 6.42167 199.601 6.51208C199.666 6.60245 199.73 6.69547 199.793 6.7885L199.793 6.78862C199.818 6.82718 199.843 6.86507 199.869 6.90296L199.869 6.90335C199.895 6.94111 199.921 6.97888 199.945 7.0173C200.051 7.17951 200.154 7.33905 200.251 7.50391C200.264 7.5265 200.277 7.54975 200.29 7.573C200.304 7.59629 200.317 7.61957 200.33 7.64218C200.414 7.78843 200.498 7.93468 200.577 8.08359C200.604 8.12963 200.628 8.17567 200.652 8.22171L200.652 8.22196C200.664 8.24497 200.676 8.26799 200.688 8.291C200.754 8.4184 200.817 8.54581 200.88 8.67321L200.88 8.6737L200.88 8.67391L200.906 8.72558C200.932 8.7766 200.957 8.82688 200.98 8.87866C201.065 9.05415 201.144 9.23231 201.22 9.41047C201.257 9.49556 201.291 9.58065 201.325 9.66574L201.36 9.75275L201.36 9.75283C201.391 9.83109 201.423 9.91 201.452 9.98749L201.562 10.2906C201.59 10.3672 201.615 10.4456 201.641 10.5229L201.66 10.5805C201.72 10.7639 201.778 10.9501 201.834 11.1389C201.86 11.224 201.884 11.3064 201.907 11.3915C201.939 11.5085 201.97 11.6281 201.999 11.7478C202.007 11.779 202.015 11.8077 202.023 11.8363H207.166V0.136598H214.275V11.8363H223.495V19.0158H214.275V23.8742C214.275 28.7536 218.194 32.7103 223.026 32.7103H224V39.8898H222.984C214.246 39.8898 207.166 32.7395 207.166 23.9167V19.0158H202.086L202.084 19.0177ZM179.654 11.8382C180.043 11.0511 180.56 10.3146 181.21 9.65776C184.449 6.3871 189.7 6.38444 192.936 9.65245C193.586 10.3092 194.108 11.0485 194.495 11.8382H179.654Z" fill="white"/>
<rect x="95.7018" y="13.0894" width="10.8738" height="7.17763" fill="white"/>
</svg>
