<svg width="256" height="213" viewBox="0 0 256 213" fill="none" xmlns="http://www.w3.org/2000/svg">
<path d="M208.921 84.3289L203.979 78.7704L195.764 57.4459C195.137 55.8289 194.171 54.4519 192.967 53.3781C192.829 52.4559 192.528 51.559 192.076 50.7126L184.312 36.2984C182.419 32.7738 178.279 31.1441 174.504 32.4453L164.156 36.0078C161.585 36.8921 159.616 39.0145 158.914 41.6674L156.618 50.3841L145.957 50.182L113.309 39.5703C111.578 39.0018 109.721 39.0397 108.016 39.6714L90.2177 46.19L84.9498 41.4905C81.8016 38.6734 77.0354 38.7492 73.9625 41.6547L65.5714 49.5882C62.9751 52.0517 62.2602 55.9174 63.8155 59.1514L67.6284 67.0849C68.5315 68.9672 70.1119 70.42 72.0434 71.178L72.5075 71.3548L69.1963 92.7045C69.0708 93.4878 69.0708 94.2963 69.1712 95.0795L73.7492 128.873C74.2635 132.637 77.2612 135.556 81.0114 135.935L103.889 138.234C106.674 138.512 109.395 137.337 111.126 135.126C112.431 133.446 113.02 131.336 112.82 129.252L113.723 129.315C116.683 129.542 119.517 128.115 121.148 125.626C122.527 123.504 122.841 120.876 122.051 118.514C124.748 119.537 127.733 119.613 130.517 118.678C130.718 118.615 130.919 118.539 131.119 118.45L135.81 116.467L135.848 118.046C135.885 119.461 136.287 120.851 137.002 122.076L145.894 137.008C147.362 139.484 150.021 141 152.881 141H171.657C174.68 141 177.452 139.32 178.856 136.629C179.985 134.469 180.098 131.942 179.22 129.732C180.211 128.999 181.051 128.026 181.641 126.877C183.209 123.832 182.72 120.131 180.437 117.591L172.071 108.306L175.357 101.345L195.149 104.933C197.934 105.439 200.781 104.453 202.662 102.331L208.921 95.2943C211.693 92.1739 211.693 87.4618 208.921 84.3415V84.3289Z" fill="white"/>
<path d="M171.055 92.0086L196.366 96.5944L202.562 89.621L196.693 83.0139L188.026 60.5273C187.599 59.4029 186.357 58.885 185.291 59.264L183.46 59.2387L184.802 54.7919L177.114 40.5293L166.866 44.0665L163.354 57.3817L164.496 58.8976H164.057L144.892 58.5186L110.776 47.5027L88.1863 55.8025L79.4817 47.9575L71.4043 55.6509L74.9664 63.5086L79.5319 64.9867L81.8272 65.8963L77.5627 94.0551L82.0028 127.646L104.567 129.907L100.817 120.016L114.012 120.963L109.283 111.817L104.492 109.733L110.7 101.774L124.133 110.238C125.262 110.92 127.169 110.895 128.423 110.478L143.963 103.909L144.289 117.376L153.094 132.156L171.356 132.624L163.994 121.721L174.078 123.048L162.075 109.707L170.867 91.5917L171.055 92.0086Z" fill="#26272E" fill-opacity="0.5"/>
<g opacity="0.97">
<path d="M161.671 121.572L174.402 123.1L161.169 108.408L155.738 115.761L161.671 121.572Z" fill="#D3D3D3"/>
<path d="M98.9089 119.98L114.311 121.129L109.344 111.655L104.704 109.671L111.514 100.828L99.837 92.7051L87.332 113.941L98.9089 119.98Z" fill="#D3D3D3"/>
<path d="M144.602 58.392L110.8 47.3887L88.4361 55.5748L79.5434 47.6413L71.1523 55.5748L74.9653 63.5083L81.5753 66.0728L77.2606 93.979L81.8387 127.772L104.716 130.071L100.038 116.845L94.8454 114.52L102.145 106.966L102.722 97.0867L124.157 110.452C125.299 111.147 126.691 111.299 127.958 110.882L143.661 104.25L143.987 117.855L152.88 132.787H171.656L159.804 115.202L186.231 59.2005L144.602 58.392Z" fill="url(#paint0_linear_4132_88592)"/>
<path d="M172.107 69.0443L163.252 57.2451L166.789 43.8036L177.149 40.2285L184.913 54.6427L181.639 65.4818L172.107 69.0443Z" fill="url(#paint1_linear_4132_88592)"/>
<path d="M159.792 115.195L152.881 132.78L162.024 118.707L159.792 115.195Z" fill="url(#paint2_linear_4132_88592)"/>
<path d="M94.8206 114.512L81.8516 127.713L97.4295 115.712L94.8206 114.512Z" fill="url(#paint3_linear_4132_88592)"/>
<path d="M143.65 104.252L144.603 58.3947L139.498 56.8535L142.082 104.859L143.65 104.252Z" fill="url(#paint4_linear_4132_88592)"/>
<path d="M175.531 65.4429L174.227 55.3744L176.183 55.0586L176.748 64.8365L175.531 65.4429Z" fill="url(#paint5_linear_4132_88592)"/>
<path d="M174.151 55.377L175.456 65.4454L171.329 67.7573L163.252 57.2466L174.151 55.377Z" fill="url(#paint6_linear_4132_88592)"/>
<path d="M163.252 57.243L174.252 55.2723L184.913 54.6406L184.035 57.4199L165.685 60.4013L163.252 57.243Z" fill="url(#paint7_linear_4132_88592)"/>
<path d="M166.789 43.8036L184.913 54.6427L177.149 40.2285L166.789 43.8036Z" fill="url(#paint8_linear_4132_88592)"/>
<path d="M183.548 59.1289L182.908 61.3397L186.558 59.1542L183.548 59.1289Z" fill="#D8D8D8"/>
<path d="M172.107 69.0418L164.394 58.7712L160.48 58.7207L170.301 70.7094L172.107 69.0418Z" fill="url(#paint9_linear_4132_88592)"/>
<path d="M170.779 91.832L162.613 73.8301L169.311 94.9018L170.779 91.832Z" fill="url(#paint10_linear_4132_88592)"/>
<path d="M162.612 73.8321L171.028 92.2131L196.59 96.8494L202.849 89.8128L196.916 83.1426L188.161 60.4286C187.672 59.14 186.13 58.6347 184.976 59.3674L162.6 73.8448L162.612 73.8321Z" fill="url(#paint11_linear_4132_88592)"/>
<path d="M196.929 83.1414L184.512 94.6374L196.252 81.5117L196.929 83.1414Z" fill="url(#paint12_linear_4132_88592)"/>
<path d="M184.512 94.6425L196.929 83.1465L202.849 89.8041L196.603 96.8532L184.512 94.6425Z" fill="url(#paint13_linear_4132_88592)"/>
<path d="M110.799 47.3809L102.709 97.0915L112.492 47.9493L110.799 47.3809Z" fill="url(#paint14_linear_4132_88592)"/>
<path d="M143.648 104.255L144.602 58.3973L142.52 57.7656L143.648 104.255Z" fill="url(#paint15_linear_4132_88592)"/>
<path d="M96.9023 115.611L100.013 116.837L104.704 130.063L99.9126 129.571L96.9023 115.611Z" fill="url(#paint16_linear_4132_88592)"/>
<path d="M81.575 66.0781L88.4358 55.5801L78.5898 64.9158L81.575 66.0781Z" fill="url(#paint17_linear_4132_88592)"/>
<path d="M102.133 106.955L102.71 97.0888L78.9162 83.8242L77.248 93.9685L81.8386 127.496L102.133 106.955Z" fill="url(#paint18_linear_4132_88592)"/>
</g>
<path d="M57.0009 161.204C64.8241 158.244 85.4823 155.24 93.7084 158.183" stroke="#9E8AFF" stroke-width="1.7" stroke-linecap="round"/>
<path d="M80.0393 156.778C75.2414 168.2 69.5384 190.371 85.1095 187.674" stroke="#9E8AFF" stroke-width="1.7"/>
<path d="M97.4629 158.754C95.3431 164.582 92.3989 174.886 92.7052 181.567M95.1485 187.489C93.5463 186.572 92.8348 184.394 92.7052 181.567M92.7052 181.567C93.2691 177.923 97.4629 172.793 101.108 175.2C104.754 177.607 100.665 183.32 102.712 186.589" stroke="#9E8AFF" stroke-width="1.7" stroke-linecap="round"/>
<path d="M112.193 183.596C112.639 182.434 113.023 179.317 112.193 178.06C109.914 175.571 106.215 180.905 105.843 182.287C105.124 184.062 104.801 186.199 106.918 187.222C108.663 188.066 110.208 186.479 111.177 185.225C112.232 183.857 112.764 182.481 113.049 180.824C113.129 180.361 113.246 179.895 113.358 179.437C113.498 178.866 113.318 180.61 113.3 181.196C113.244 183.086 113.637 187.456 116.546 185.533" stroke="#9E8AFF" stroke-width="1.7" stroke-linecap="round"/>
<path d="M116.461 181.795C115.356 181.106 118.334 178.018 119.09 177.651C120.945 176.749 120.504 179.3 120.319 180.221C119.968 181.97 119.631 183.709 119.388 185.474C119.315 186.007 119.376 185.684 119.418 185.395C119.519 184.718 119.634 184.056 119.858 183.404C120.361 181.939 120.924 180.501 122.083 179.393C122.913 178.601 124.612 177.384 125.441 178.832C126.798 181.2 125.634 183.889 126.058 186.357" stroke="#9E8AFF" stroke-width="1.7" stroke-linecap="round"/>
<path d="M132.477 164.719C133.95 167.377 133.243 170.657 132.609 173.458C131.773 177.146 130.34 180.666 129.335 184.309C129.123 185.077 128.928 185.84 128.663 186.593C128.49 187.083 128.634 186.805 128.827 186.598" stroke="#9E8AFF" stroke-width="1.7" stroke-linecap="round"/>
<path d="M141.819 167.216C141.883 167.118 142.362 166.411 141.979 167.04C141.485 167.852 140.967 168.649 140.385 169.406C138.564 171.775 136.448 173.941 134.273 176.009C133.881 176.383 132.353 178.15 131.683 178.073C131.243 178.022 133.042 176.335 133.213 176.212C133.73 175.839 134.655 175.122 134.964 175.997C135.519 177.567 135.645 179.264 136.09 180.867C136.553 182.537 137.221 183.853 138.266 185.244C138.727 185.856 139.59 186.079 139.865 186.658" stroke="#9E8AFF" stroke-width="1.7" stroke-linecap="round"/>
<path d="M148.118 176.827C147.306 178.062 145.349 185.14 147.785 185.329C149.564 185.466 150.85 183.848 151.69 182.565C152.75 180.947 154.045 178.871 154.14 176.915C154.199 175.689 153.656 176.342 153.55 177.057C152.927 181.27 151.74 185.673 150.508 189.756C149.621 192.693 148.878 195.763 147.302 198.44C146.764 199.353 146.411 200.364 145.35 200.556" stroke="#9E8AFF" stroke-width="1.7" stroke-linecap="round"/>
<path d="M153.864 179.684C155.609 179.261 157.144 178.903 158.648 178.141C158.903 178.013 161.656 175.856 160.009 175.819C157.906 175.772 157.548 177.881 157.319 179.07C156.969 180.893 156.255 184.973 159.597 186.288C163.609 187.866 165.311 180.854 164.674 178.869C164.271 177.612 162.435 174.36 160.358 175.522C158.931 176.321 157.447 177.454 157.76 178.971" stroke="#9E8AFF" stroke-width="1.7" stroke-linecap="round"/>
<path d="M164.912 180.588C165.579 179.03 167.171 178.009 168.253 176.725C168.58 176.338 169.668 175.307 169.213 175.546C168.758 175.784 168.554 176.383 168.388 176.814C167.018 182.177 168.388 186.234 171.219 185.332C173.553 184.589 174.411 180.814 174.954 177.669C175.187 176.317 175.484 174.097 174.487 174.74C173.787 175.19 173.556 179.789 173.553 179.923C173.528 180.937 173.78 184.993 175.572 185.028C177.245 185.06 178.417 182.899 179.16 181.77" stroke="#9E8AFF" stroke-width="1.7" stroke-linecap="round"/>
<path d="M187.69 174.285C187.144 174.833 186.388 176.74 187.655 175.584C188.366 174.937 188.218 174.172 187.38 175.184" stroke="#9E8AFF" stroke-width="1.7" stroke-linecap="round"/>
<path d="M188 180.582C186.952 183.998 189.804 179.74 187.689 181.781" stroke="#9E8AFF" stroke-width="1.7" stroke-linecap="round"/>
<path d="M194.672 173.385C199.201 173.615 196.14 181.133 193.74 182.678" stroke="#9E8AFF" stroke-width="1.7" stroke-linecap="round"/>
<defs>
<linearGradient id="paint0_linear_4132_88592" x1="71.1523" y1="90.0754" x2="186.218" y2="90.0754" gradientUnits="userSpaceOnUse">
<stop stop-color="#F0F0F0"/>
<stop offset="1" stop-color="#E6E6E6"/>
</linearGradient>
<linearGradient id="paint1_linear_4132_88592" x1="163.252" y1="54.6427" x2="184.913" y2="54.6427" gradientUnits="userSpaceOnUse">
<stop stop-color="#F6F6F6"/>
<stop offset="1" stop-color="#CCCCCC"/>
</linearGradient>
<linearGradient id="paint2_linear_4132_88592" x1="157.589" y1="124.851" x2="155.037" y2="123.234" gradientUnits="userSpaceOnUse">
<stop stop-color="#F6F6F6" stop-opacity="0"/>
<stop offset="0.03" stop-color="#F1F1F1" stop-opacity="0.06"/>
<stop offset="0.2" stop-color="#DADADA" stop-opacity="0.34"/>
<stop offset="0.37" stop-color="#C7C7C7" stop-opacity="0.58"/>
<stop offset="0.54" stop-color="#B8B8B8" stop-opacity="0.76"/>
<stop offset="0.7" stop-color="#AEAEAE" stop-opacity="0.89"/>
<stop offset="0.86" stop-color="#A8A8A8" stop-opacity="0.97"/>
<stop offset="1" stop-color="#A6A6A6"/>
</linearGradient>
<linearGradient id="paint3_linear_4132_88592" x1="89.9355" y1="122.068" x2="88.6492" y2="120.81" gradientUnits="userSpaceOnUse">
<stop stop-color="#F6F6F6" stop-opacity="0"/>
<stop offset="0.47" stop-color="#CFCFCF" stop-opacity="0.48"/>
<stop offset="1" stop-color="#A6A6A6"/>
</linearGradient>
<linearGradient id="paint4_linear_4132_88592" x1="141.869" y1="80.8435" x2="143.863" y2="80.8186" gradientUnits="userSpaceOnUse">
<stop stop-color="#D9D9D9" stop-opacity="0"/>
<stop offset="0.13" stop-color="#D9D9D9" stop-opacity="0.02"/>
<stop offset="0.26" stop-color="#D9D9D9" stop-opacity="0.08"/>
<stop offset="0.4" stop-color="#D9D9D9" stop-opacity="0.17"/>
<stop offset="0.54" stop-color="#D9D9D9" stop-opacity="0.31"/>
<stop offset="0.69" stop-color="#D9D9D9" stop-opacity="0.49"/>
<stop offset="0.83" stop-color="#D9D9D9" stop-opacity="0.7"/>
<stop offset="0.97" stop-color="#D9D9D9" stop-opacity="0.95"/>
<stop offset="1" stop-color="#D9D9D9"/>
</linearGradient>
<linearGradient id="paint5_linear_4132_88592" x1="176.484" y1="60.1749" x2="174.954" y2="60.3493" gradientUnits="userSpaceOnUse">
<stop stop-color="#CCCCCC" stop-opacity="0"/>
<stop offset="0.11" stop-color="#CCCCCC" stop-opacity="0.03"/>
<stop offset="0.24" stop-color="#CDCDCD" stop-opacity="0.1"/>
<stop offset="0.4" stop-color="#CECECE" stop-opacity="0.22"/>
<stop offset="0.56" stop-color="#D1D1D1" stop-opacity="0.38"/>
<stop offset="0.73" stop-color="#D3D3D3" stop-opacity="0.6"/>
<stop offset="0.91" stop-color="#D7D7D7" stop-opacity="0.86"/>
<stop offset="1" stop-color="#D9D9D9"/>
</linearGradient>
<linearGradient id="paint6_linear_4132_88592" x1="165.673" y1="62.4388" x2="174.291" y2="61.3925" gradientUnits="userSpaceOnUse">
<stop stop-color="white" stop-opacity="0"/>
<stop offset="0.08" stop-color="white" stop-opacity="0.03"/>
<stop offset="0.7" stop-color="white" stop-opacity="0.22"/>
<stop offset="1" stop-color="white" stop-opacity="0.3"/>
</linearGradient>
<linearGradient id="paint7_linear_4132_88592" x1="174.402" y1="58.7716" x2="174.033" y2="55.5129" gradientUnits="userSpaceOnUse">
<stop stop-color="#F6F6F6" stop-opacity="0"/>
<stop offset="0.17" stop-color="#E9E9E9" stop-opacity="0.08"/>
<stop offset="0.47" stop-color="#C9C9C9" stop-opacity="0.3"/>
<stop offset="0.86" stop-color="#949494" stop-opacity="0.66"/>
<stop offset="1" stop-color="#808080" stop-opacity="0.8"/>
</linearGradient>
<linearGradient id="paint8_linear_4132_88592" x1="179.708" y1="44.4479" x2="175.976" y2="49.0075" gradientUnits="userSpaceOnUse">
<stop stop-color="white" stop-opacity="0"/>
<stop offset="0.2" stop-color="white" stop-opacity="0.09"/>
<stop offset="0.72" stop-color="white" stop-opacity="0.31"/>
<stop offset="0.97" stop-color="white" stop-opacity="0.4"/>
<stop offset="0.99" stop-color="white" stop-opacity="0.28"/>
<stop offset="1" stop-color="white" stop-opacity="0.2"/>
</linearGradient>
<linearGradient id="paint9_linear_4132_88592" x1="165.573" y1="64.5824" x2="167.652" y2="63.131" gradientUnits="userSpaceOnUse">
<stop stop-color="#CCCCCC" stop-opacity="0"/>
<stop offset="0.12" stop-color="#CACACA" stop-opacity="0.04"/>
<stop offset="0.29" stop-color="#C5C5C5" stop-opacity="0.16"/>
<stop offset="0.5" stop-color="#BEBEBE" stop-opacity="0.36"/>
<stop offset="0.73" stop-color="#B3B3B3" stop-opacity="0.64"/>
<stop offset="0.99" stop-color="#A6A6A6" stop-opacity="0.98"/>
<stop offset="1" stop-color="#A6A6A6"/>
</linearGradient>
<linearGradient id="paint10_linear_4132_88592" x1="165.159" y1="84.7576" x2="167.335" y2="83.7338" gradientUnits="userSpaceOnUse">
<stop stop-color="#CCCCCC" stop-opacity="0"/>
<stop offset="0.12" stop-color="#CACACA" stop-opacity="0.04"/>
<stop offset="0.29" stop-color="#C5C5C5" stop-opacity="0.16"/>
<stop offset="0.5" stop-color="#BEBEBE" stop-opacity="0.36"/>
<stop offset="0.73" stop-color="#B3B3B3" stop-opacity="0.64"/>
<stop offset="0.99" stop-color="#A6A6A6" stop-opacity="0.98"/>
<stop offset="1" stop-color="#A6A6A6"/>
</linearGradient>
<linearGradient id="paint11_linear_4132_88592" x1="162.612" y1="77.9252" x2="202.849" y2="77.9252" gradientUnits="userSpaceOnUse">
<stop stop-color="#F6F6F6"/>
<stop offset="1" stop-color="#EBEBEB"/>
</linearGradient>
<linearGradient id="paint12_linear_4132_88592" x1="190.269" y1="87.9545" x2="190.913" y2="88.6574" gradientUnits="userSpaceOnUse">
<stop stop-color="#CCCCCC" stop-opacity="0"/>
<stop offset="0.12" stop-color="#CBCBCB" stop-opacity="0.03"/>
<stop offset="0.28" stop-color="#C9C9C9" stop-opacity="0.11"/>
<stop offset="0.44" stop-color="#C5C5C5" stop-opacity="0.25"/>
<stop offset="0.62" stop-color="#C0C0C0" stop-opacity="0.45"/>
<stop offset="0.81" stop-color="#BABABA" stop-opacity="0.69"/>
<stop offset="1" stop-color="#B3B3B3"/>
</linearGradient>
<linearGradient id="paint13_linear_4132_88592" x1="194.809" y1="96.5248" x2="191.58" y2="84.3833" gradientUnits="userSpaceOnUse">
<stop stop-color="#CCCCCC" stop-opacity="0"/>
<stop offset="0.11" stop-color="#CCCCCC" stop-opacity="0.02"/>
<stop offset="0.24" stop-color="#CECECE" stop-opacity="0.09"/>
<stop offset="0.38" stop-color="#D1D1D1" stop-opacity="0.2"/>
<stop offset="0.54" stop-color="#D5D5D5" stop-opacity="0.35"/>
<stop offset="0.7" stop-color="#DADADA" stop-opacity="0.54"/>
<stop offset="0.86" stop-color="#E0E0E0" stop-opacity="0.77"/>
<stop offset="1" stop-color="#E6E6E6"/>
</linearGradient>
<linearGradient id="paint14_linear_4132_88592" x1="107.768" y1="72.4397" x2="106.716" y2="72.2595" gradientUnits="userSpaceOnUse">
<stop stop-color="#F6F6F6" stop-opacity="0"/>
<stop offset="0.47" stop-color="#CFCFCF" stop-opacity="0.48"/>
<stop offset="1" stop-color="#A6A6A6"/>
</linearGradient>
<linearGradient id="paint15_linear_4132_88592" x1="143.097" y1="80.9181" x2="143.988" y2="80.9223" gradientUnits="userSpaceOnUse">
<stop stop-color="#F6F6F6" stop-opacity="0"/>
<stop offset="0.47" stop-color="#CFCFCF" stop-opacity="0.48"/>
<stop offset="1" stop-color="#A6A6A6"/>
</linearGradient>
<linearGradient id="paint16_linear_4132_88592" x1="98.9593" y1="123.482" x2="101.71" y2="122.534" gradientUnits="userSpaceOnUse">
<stop stop-color="white" stop-opacity="0"/>
<stop offset="0.08" stop-color="white" stop-opacity="0.03"/>
<stop offset="0.7" stop-color="white" stop-opacity="0.22"/>
<stop offset="1" stop-color="white" stop-opacity="0.3"/>
</linearGradient>
<linearGradient id="paint17_linear_4132_88592" x1="83.2066" y1="59.989" x2="84.7807" y2="61.1225" gradientUnits="userSpaceOnUse">
<stop stop-color="#F6F6F6" stop-opacity="0"/>
<stop offset="0.47" stop-color="#CFCFCF" stop-opacity="0.48"/>
<stop offset="1" stop-color="#A6A6A6"/>
</linearGradient>
<linearGradient id="paint18_linear_4132_88592" x1="79.882" y1="126.132" x2="92.1541" y2="91.1935" gradientUnits="userSpaceOnUse">
<stop stop-color="#CCCCCC" stop-opacity="0"/>
<stop offset="0.11" stop-color="#CCCCCC" stop-opacity="0.02"/>
<stop offset="0.25" stop-color="#CECECE" stop-opacity="0.08"/>
<stop offset="0.38" stop-color="#D0D0D0" stop-opacity="0.18"/>
<stop offset="0.53" stop-color="#D4D4D4" stop-opacity="0.32"/>
<stop offset="0.68" stop-color="#D9D9D9" stop-opacity="0.5"/>
<stop offset="0.83" stop-color="#DEDEDE" stop-opacity="0.72"/>
<stop offset="0.99" stop-color="#E5E5E5" stop-opacity="0.98"/>
<stop offset="1" stop-color="#E6E6E6"/>
</linearGradient>
</defs>
</svg>
