<svg width="20" height="18" viewBox="0 0 20 18" fill="none" xmlns="http://www.w3.org/2000/svg">
<path fill-rule="evenodd" clip-rule="evenodd" d="M18.1433 7.79974H4.14628L9.58214 2.34874C10.0498 1.87974 10.0498 1.11974 9.58214 0.651738C9.11444 0.182738 8.35755 0.182738 7.88985 0.651738L0.410684 8.15174C0.407692 8.15374 0.406695 8.15774 0.403703 8.16074C0.297 8.26974 0.211239 8.39874 0.152403 8.54074C0.0307419 8.83474 0.0307419 9.16474 0.152403 9.45874C0.211239 9.60174 0.297 9.72974 0.403703 9.83874C0.406695 9.84174 0.407692 9.84574 0.410684 9.84874L7.88985 17.3487C8.1232 17.5827 8.42935 17.6997 8.73549 17.6997C9.04264 17.6997 9.34879 17.5827 9.58214 17.3487C10.0498 16.8797 10.0498 16.1197 9.58214 15.6517L4.14628 10.1997H18.1433C18.8044 10.1997 19.34 9.66274 19.34 8.99974C19.34 8.33774 18.8044 7.79974 18.1433 7.79974Z" fill="#767C8D"/>
</svg>
