<svg width="12" height="13" viewBox="0 0 12 13" fill="none" xmlns="http://www.w3.org/2000/svg">
<path d="M2.24049 7.67904L1.04802 8.97067C0.895564 9.27397 1.12426 9.62433 1.47818 9.62433H10.5224C10.8709 9.62433 11.105 9.27397 10.9526 8.97067L9.7601 7.67904V5.09579C9.7601 3.11912 8.17559 1.39347 6.11736 1.33594C4.05914 1.27842 2.24049 2.91518 2.24049 4.94937V7.68427V7.67904Z" fill="#A4A9B8" stroke="#A4A9B8" stroke-miterlimit="10" stroke-linejoin="round"/>
<path d="M8.22228 10.3636C8.22228 11.2647 7.2291 12 6.00005 12C4.77721 12 3.77783 11.2698 3.77783 10.3636" fill="#A4A9B8"/>
<path d="M8.22228 10.3636C8.22228 11.2647 7.2291 12 6.00005 12C4.77721 12 3.77783 11.2698 3.77783 10.3636" stroke="#A4A9B8" stroke-miterlimit="10"/>
<path d="M6.00317 0V1.36364" stroke="#A4A9B8" stroke-miterlimit="10"/>
</svg>
