<svg width="8" height="6" viewBox="0 0 8 6" fill="none" xmlns="http://www.w3.org/2000/svg">
<path d="M0.72 5.44L1.776 1.6L2.128 3.056C1.66933 3.056 1.29067 2.92267 0.992 2.656C0.704 2.37867 0.56 2.00533 0.56 1.536C0.56 1.07733 0.709333 0.709333 1.008 0.431999C1.30667 0.143999 1.67467 -9.53674e-07 2.112 -9.53674e-07C2.56 -9.53674e-07 2.928 0.143999 3.216 0.431999C3.504 0.709333 3.648 1.07733 3.648 1.536C3.648 1.67467 3.63733 1.81333 3.616 1.952C3.60533 2.08 3.568 2.23467 3.504 2.416C3.45067 2.59733 3.36 2.83733 3.232 3.136L2.304 5.44H0.72ZM4.496 5.44L5.552 1.6L5.904 3.056C5.44533 3.056 5.06667 2.92267 4.768 2.656C4.48 2.37867 4.336 2.00533 4.336 1.536C4.336 1.07733 4.48533 0.709333 4.784 0.431999C5.08267 0.143999 5.45067 -9.53674e-07 5.888 -9.53674e-07C6.336 -9.53674e-07 6.704 0.143999 6.992 0.431999C7.28 0.709333 7.424 1.07733 7.424 1.536C7.424 1.67467 7.41333 1.81333 7.392 1.952C7.38133 2.08 7.344 2.23467 7.28 2.416C7.22667 2.59733 7.136 2.83733 7.008 3.136L6.08 5.44H4.496Z" fill="#9E8AFF"/>
</svg>
