<svg width="14" height="14" viewBox="0 0 14 14" fill="none" xmlns="http://www.w3.org/2000/svg">
<path d="M1 2.5L7.75 2.5M1 7H3.625M3.625 7C3.625 7.82843 4.29657 8.5 5.125 8.5C5.95343 8.5 6.625 7.82843 6.625 7M3.625 7C3.625 6.17157 4.29657 5.5 5.125 5.5C5.95343 5.5 6.625 6.17157 6.625 7M1 11.5H2.5H7.375M7.375 11.5C7.375 12.3284 8.04657 13 8.875 13C9.70343 13 10.375 12.3284 10.375 11.5M7.375 11.5C7.375 10.6716 8.04657 10 8.875 10C9.70343 10 10.375 10.6716 10.375 11.5M10.375 11.5L13 11.5M6.625 7H13M10.75 2.5L13 2.5M10.75 2.5C10.75 3.32843 10.0784 4 9.25 4C8.42157 4 7.75 3.32843 7.75 2.5M10.75 2.5C10.75 1.67157 10.0784 1 9.25 1C8.42157 1 7.75 1.67157 7.75 2.5" stroke="white" stroke-linecap="round" stroke-linejoin="round"/>
</svg>
