<svg width="18" height="18" viewBox="0 0 18 18" fill="none" xmlns="http://www.w3.org/2000/svg">
<path d="M3 4.5L9.75 4.5M3 9H5.625M5.625 9C5.625 9.82843 6.29657 10.5 7.125 10.5C7.95343 10.5 8.625 9.82843 8.625 9M5.625 9C5.625 8.17157 6.29657 7.5 7.125 7.5C7.95343 7.5 8.625 8.17157 8.625 9M3 13.5H4.5H9.375M9.375 13.5C9.375 14.3284 10.0466 15 10.875 15C11.7034 15 12.375 14.3284 12.375 13.5M9.375 13.5C9.375 12.6716 10.0466 12 10.875 12C11.7034 12 12.375 12.6716 12.375 13.5M12.375 13.5L15 13.5M8.625 9H15M12.75 4.5L15 4.5M12.75 4.5C12.75 5.32843 12.0784 6 11.25 6C10.4216 6 9.75 5.32843 9.75 4.5M12.75 4.5C12.75 3.67157 12.0784 3 11.25 3C10.4216 3 9.75 3.67157 9.75 4.5" stroke="white" stroke-linecap="round" stroke-linejoin="round"/>
</svg>
