<svg width="20" height="18" viewBox="0 0 20 18" fill="none" xmlns="http://www.w3.org/2000/svg">
<path fill-rule="evenodd" clip-rule="evenodd" d="M2.11797 3.19999H18.118C18.4362 3.19999 18.7415 3.07356 18.9665 2.84852C19.1915 2.62347 19.318 2.31825 19.318 1.99999C19.318 1.68173 19.1915 1.3765 18.9665 1.15146C18.7415 0.926416 18.4362 0.799988 18.118 0.799988H2.11797C1.79971 0.799988 1.49448 0.926416 1.26944 1.15146C1.0444 1.3765 0.917969 1.68173 0.917969 1.99999C0.917969 2.31825 1.0444 2.62347 1.26944 2.84852C1.49448 3.07356 1.79971 3.19999 2.11797 3.19999ZM18.118 7.79999H2.11797C1.79971 7.79999 1.49448 7.92642 1.26944 8.15146C1.0444 8.3765 0.917969 8.68173 0.917969 8.99999C0.917969 9.31825 1.0444 9.62347 1.26944 9.84852C1.49448 10.0736 1.79971 10.2 2.11797 10.2H18.118C18.4362 10.2 18.7415 10.0736 18.9665 9.84852C19.1915 9.62347 19.318 9.31825 19.318 8.99999C19.318 8.68173 19.1915 8.3765 18.9665 8.15146C18.7415 7.92642 18.4362 7.79999 18.118 7.79999ZM18.118 14.8H2.11797C1.96038 14.8 1.80434 14.831 1.65875 14.8913C1.51316 14.9516 1.38087 15.04 1.26944 15.1515C1.15801 15.2629 1.06962 15.3952 1.00931 15.5408C0.949008 15.6864 0.917969 15.8424 0.917969 16C0.917969 16.1576 0.949008 16.3136 1.00931 16.4592C1.06962 16.6048 1.15801 16.7371 1.26944 16.8485C1.38087 16.9599 1.51316 17.0483 1.65875 17.1086C1.80434 17.169 1.96038 17.2 2.11797 17.2H18.118C18.2756 17.2 18.4316 17.169 18.5772 17.1086C18.7228 17.0483 18.8551 16.9599 18.9665 16.8485C19.0779 16.7371 19.1663 16.6048 19.2266 16.4592C19.2869 16.3136 19.318 16.1576 19.318 16C19.318 15.8424 19.2869 15.6864 19.2266 15.5408C19.1663 15.3952 19.0779 15.2629 18.9665 15.1515C18.8551 15.04 18.7228 14.9516 18.5772 14.8913C18.4316 14.831 18.2756 14.8 18.118 14.8Z" fill="#767C8D"/>
</svg>
