<svg width="36" height="24" viewBox="0 0 36 24" fill="none" xmlns="http://www.w3.org/2000/svg">
<path d="M10.0511 6.89453H8.94953V11.1367H11.9261V12.168H7.69563V13.082H17.2698V12.168H13.0277V11.1367H16.0277V6.89453H14.9144V8.13672H10.0511V6.89453ZM8.90266 16.7734H16.1917V15.8711H10.0277V13.832H8.90266V16.7734ZM10.0511 10.2344V9.00391H14.9144V10.2344H10.0511ZM27.3044 11.8047H17.695V12.707H22.0309V14.7461H23.1325V12.707H27.3044V11.8047ZM18.8903 16.7734H26.238V15.8711H20.0036V13.75H18.8903V16.7734ZM18.9255 10.7148H26.0622V6.98828H18.9255V10.7148ZM20.0153 9.83594V7.86719H24.9606V9.83594H20.0153Z" fill="#767C8D"/>
</svg>
