<svg width="36" height="24" viewBox="0 0 36 24" fill="none" xmlns="http://www.w3.org/2000/svg">
<path d="M14.6979 6.49609H13.6315V16.9961H14.6979V6.49609ZM5.53383 14.1016L6.21352 14.9336C7.23891 14.2949 7.95375 13.123 8.32875 11.752C8.69789 13.0176 9.38344 14.0898 10.3854 14.6875L11.0534 13.8672C9.5768 13.0176 8.85023 11.2188 8.85023 9.42578V8.58203H10.6549V7.67969H5.85023V8.58203H7.78383V9.42578C7.77797 11.2949 7.02211 13.2051 5.53383 14.1016ZM9.88148 11.125H11.5104V16.4688H12.5651V6.71875H11.5104V10.2109H9.88148V11.125ZM24.0527 6.92969H16.916V10.5273H19.9277V11.7461H15.6973V12.6484H25.2715V11.7461H21.0293V10.5273H24.0527V6.92969ZM16.7637 14.5234H22.9746V16.9961H24.0996V13.6445H16.7637V14.5234ZM18.0059 9.63672V7.80859H22.9512V9.63672H18.0059ZM29.2943 7.51562H28.0287L25.9193 8.89844V10.1289L27.9466 8.80469H27.9935V16H29.2943V7.51562Z" fill="#767C8D"/>
</svg>
