<svg width="24" height="24" viewBox="0 0 24 24" fill="none" xmlns="http://www.w3.org/2000/svg">
<path d="M6.9668 19H12.627C15.4482 19 17.0391 17.4971 17.0391 15.4492C17.0391 13.6035 15.7031 12.4434 14.1738 12.373V12.25C15.5625 11.96 16.5469 10.958 16.5469 9.50781C16.5469 7.57422 15.0791 6.27344 12.2227 6.27344H6.9668V19ZM9.95508 16.5742V13.4805H11.9766C13.1719 13.4717 13.9102 14.1133 13.9102 15.1152C13.9102 16.0205 13.2861 16.5742 11.9238 16.5742H9.95508ZM9.95508 11.5293V8.66406H11.7656C12.8291 8.66406 13.4883 9.20898 13.4883 10.0703C13.4883 10.9844 12.75 11.5205 11.7305 11.5293H9.95508Z" fill="#767C8D"/>
</svg>
