<svg width="24" height="24" viewBox="0 0 24 24" fill="none" xmlns="http://www.w3.org/2000/svg">
<path d="M4.84375 17L5.69531 14.3906H9.78906L10.6406 17H13.1562L9.25 5.6875H6.23438L2.3125 17H4.84375ZM6.28906 12.5625L7.70312 8.23438H7.78125L9.19531 12.5625H6.28906ZM13.5044 14.625C13.5122 16.3047 14.7075 17.1641 16.3325 17.1562C17.5903 17.1641 18.4028 16.6094 18.8169 15.8281H18.8794V17H21.0669V11.2812C21.0747 9.23438 19.3247 8.40625 17.4731 8.40625C15.2231 8.40625 13.9419 9.5625 13.8013 11.0312H16.0044C16.1294 10.4531 16.6216 10.1016 17.4106 10.0938C18.2778 10.1016 18.7622 10.5078 18.77 11.2188V11.9062C18.4106 11.9219 17.27 11.9766 16.6606 12.0156C15.0278 12.1172 13.5122 12.7344 13.5044 14.625ZM15.7231 14.5625C15.7231 13.9062 16.2309 13.5234 17.0356 13.4531C17.4263 13.4219 18.4184 13.3672 18.77 13.3516V13.9688C18.7778 14.8672 18.0434 15.5547 16.9888 15.5625C16.2466 15.5547 15.7231 15.2109 15.7231 14.5625Z" fill="#767C8D"/>
</svg>
