<svg width="58" height="34" viewBox="0 0 58 34" fill="none" xmlns="http://www.w3.org/2000/svg">
<path d="M27.3991 1.38199L3.23222 6.57499C1.44711 6.95857 0.31367 8.70412 0.700602 10.4738L2.80923 20.1177C3.19616 21.8874 4.95694 23.011 6.74204 22.6274L30.909 17.4344C32.6941 17.0509 33.8275 15.3053 33.4406 13.5357L31.3319 3.89171C30.945 2.12205 29.1842 0.998409 27.3991 1.38199Z" fill="#767C8D"/>
<path d="M54.7875 16.5783L26.2896 9.68094C24.5151 9.25147 22.7255 10.3293 22.2922 12.0884L19.9314 21.6748C19.4982 23.4338 20.5854 25.208 22.3599 25.6375L50.8578 32.5349C52.6323 32.9643 54.4219 31.8865 54.8551 30.1274L57.216 20.5411C57.6492 18.782 56.5619 17.0078 54.7875 16.5783Z" fill="#767C8D"/>
<path d="M25.1753 17.0916C25.2718 16.6967 25.4287 16.3218 25.642 15.9708C25.8552 15.6198 26.1168 15.3206 26.4266 15.0773C26.7364 14.834 27.0904 14.6585 27.4887 14.5588C27.8871 14.4591 28.3176 14.463 28.7763 14.5747C29.1062 14.6545 29.412 14.7941 29.6976 14.9935C29.9833 15.193 30.1965 15.4562 30.3333 15.7753L30.3695 15.7833L30.5224 15.165L33.0693 15.7833L31.7174 21.2756C31.5524 21.9417 31.307 22.4722 30.9771 22.8591C30.6512 23.246 30.273 23.5292 29.8425 23.7007C29.416 23.8723 28.9573 23.956 28.4705 23.948C27.9836 23.9401 27.5008 23.8802 27.022 23.7646C26.4346 23.621 25.8673 23.4056 25.3161 23.1104C24.7649 22.8153 24.3102 22.4683 23.9441 22.0694L25.5696 20.5776C25.811 20.8728 26.0846 21.1161 26.3863 21.2996C26.6881 21.4831 26.9898 21.6107 27.2876 21.6825C27.4847 21.7304 27.6738 21.7503 27.8629 21.7423C28.052 21.7343 28.225 21.6984 28.382 21.6346C28.5389 21.5708 28.6757 21.4751 28.7883 21.3514C28.901 21.2278 28.9814 21.0722 29.0257 20.8848L29.0901 20.6175L29.0539 20.6095C28.8648 20.7452 28.6032 20.8409 28.2773 20.9047C27.9514 20.9685 27.6014 20.9486 27.2232 20.8608C26.7444 20.7452 26.3541 20.5617 26.0403 20.3104C25.7305 20.0591 25.4931 19.764 25.3282 19.4209C25.1632 19.0819 25.0707 18.7109 25.0465 18.3121C25.0264 17.9132 25.0626 17.5064 25.1672 17.0956L25.1753 17.0916ZM27.6859 17.6978C27.6135 17.993 27.6376 18.2602 27.7623 18.4996C27.8871 18.7389 28.1124 18.8984 28.4423 18.9782C28.7642 19.054 29.0458 19.0181 29.2872 18.8625C29.5286 18.707 29.6856 18.4876 29.754 18.2004C29.8224 17.9292 29.7821 17.6699 29.6413 17.4226C29.5005 17.1753 29.2671 17.0118 28.9452 16.936C28.6153 16.8562 28.3417 16.8961 28.1204 17.0557C27.8991 17.2152 27.7543 17.4306 27.6859 17.7018V17.6978Z" fill="white"/>
<path d="M40.022 20.773C39.9979 20.8727 39.9697 20.9764 39.9415 21.0801C39.9134 21.1838 39.8852 21.2676 39.8611 21.3394L35.7089 20.3342C35.6888 20.4459 35.7048 20.5496 35.7491 20.6533C35.7934 20.753 35.8577 20.8488 35.9422 20.9325C36.0267 21.0203 36.1233 21.0921 36.2359 21.1519C36.3486 21.2117 36.4693 21.2596 36.594 21.2875C36.8435 21.3474 37.0648 21.3553 37.2539 21.3075C37.443 21.2596 37.5959 21.1918 37.7085 21.104L39.3943 22.536C39.0121 22.9109 38.5293 23.1662 37.9459 23.2938C37.3625 23.4254 36.7268 23.4055 36.0388 23.238C35.5922 23.1303 35.1738 22.9548 34.7875 22.7115C34.4012 22.4682 34.0753 22.173 33.8219 21.818C33.5644 21.463 33.3873 21.0562 33.2948 20.6015C33.1982 20.1428 33.2184 19.6442 33.3552 19.0978C33.4799 18.5952 33.6811 18.1604 33.9627 17.7975C34.2443 17.4345 34.5743 17.1473 34.9525 16.9399C35.3307 16.7325 35.7491 16.6009 36.2038 16.545C36.6624 16.4932 37.1291 16.5211 37.6039 16.6368C38.0908 16.7524 38.5092 16.9439 38.8673 17.2071C39.2254 17.4704 39.511 17.7855 39.7202 18.1525C39.9335 18.5194 40.0663 18.9302 40.1226 19.377C40.1789 19.8277 40.1467 20.2904 40.026 20.773H40.022ZM37.9016 19.3371C37.954 19.1217 37.9177 18.9223 37.793 18.7428C37.6683 18.5633 37.4671 18.4436 37.1935 18.3758C36.8958 18.304 36.6463 18.328 36.4411 18.4516C36.2359 18.5752 36.1032 18.7188 36.0348 18.8824L37.9016 19.3331V19.3371Z" fill="white"/>
<path d="M47.4134 22.56C47.3892 22.6597 47.3611 22.7634 47.3329 22.8671C47.3047 22.9708 47.2766 23.0546 47.2524 23.1264L43.1002 22.1213C43.0801 22.2329 43.0962 22.3366 43.1405 22.4404C43.1847 22.5401 43.2491 22.6358 43.3336 22.7196C43.4181 22.8073 43.5146 22.8791 43.6273 22.9389C43.74 22.9988 43.8607 23.0466 43.9854 23.0745C44.2348 23.1344 44.4561 23.1424 44.6452 23.0945C44.8343 23.0466 44.9872 22.9788 45.0999 22.8911L46.7857 24.323C46.4035 24.6979 45.9207 24.9532 45.3373 25.0808C44.7539 25.2125 44.1182 25.1925 43.4302 25.025C42.9836 24.9173 42.5691 24.7418 42.1789 24.4985C41.7886 24.2552 41.4667 23.96 41.2132 23.605C40.9598 23.25 40.7787 22.8472 40.6862 22.3885C40.5936 21.9298 40.6137 21.4312 40.7465 20.8888C40.8712 20.3862 41.0724 19.9514 41.3541 19.5885C41.6357 19.2255 41.9656 18.9383 42.3438 18.7309C42.722 18.5235 43.1405 18.3919 43.5991 18.336C44.0538 18.2842 44.5205 18.3121 44.9993 18.4278C45.4861 18.5435 45.9046 18.7349 46.2627 18.9982C46.6207 19.2614 46.9064 19.5765 47.1156 19.9435C47.3289 20.3104 47.4616 20.7212 47.518 21.168C47.5743 21.6147 47.5421 22.0814 47.4214 22.564L47.4134 22.56ZM45.293 21.1241C45.3453 20.9087 45.3091 20.7093 45.1844 20.5298C45.0596 20.3503 44.8585 20.2307 44.5849 20.1628C44.2871 20.091 44.0377 20.115 43.8325 20.2386C43.6273 20.3623 43.4945 20.5059 43.4261 20.6694L45.293 21.1201V21.1241Z" fill="white"/>
<path d="M50.2738 26.6045C49.445 26.405 48.8736 26.078 48.5638 25.6272C48.25 25.1765 48.1856 24.5822 48.3707 23.8363L48.9098 21.6506L48.0408 21.4392L48.5115 19.5206L49.3685 19.728L49.7065 18.356L52.3338 18.9902L51.9958 20.3622L53.3316 20.6853L52.8609 22.6039L51.5211 22.2808L51.1187 23.9081C51.0463 24.2033 51.0624 24.4187 51.167 24.5543C51.2716 24.6899 51.4366 24.7856 51.6619 24.8415C51.7464 24.8614 51.8389 24.8774 51.9355 24.8814C52.032 24.8893 52.1125 24.8933 52.1688 24.8893L51.7182 26.7281C51.5613 26.756 51.3521 26.76 51.0865 26.7361C50.821 26.7122 50.5514 26.6683 50.2698 26.6005L50.2738 26.6045Z" fill="white"/>
<path d="M5.05808 13.41C4.96956 13.0112 4.94542 12.6083 4.98566 12.2015C5.02589 11.7946 5.12648 11.4117 5.29949 11.0567C5.46847 10.7017 5.70988 10.3946 6.02371 10.1314C6.33754 9.8681 6.72781 9.68463 7.19051 9.58491C7.52043 9.51312 7.8584 9.50514 8.20442 9.56098C8.55043 9.61682 8.85622 9.76041 9.12176 9.98776L9.15797 9.97978L9.02118 9.35756L11.5841 8.80713L12.7911 14.3314C12.936 15.0015 12.9481 15.5838 12.8274 16.0744C12.7026 16.565 12.4894 16.9838 12.1796 17.3229C11.8698 17.6619 11.4956 17.9371 11.053 18.1405C10.6104 18.344 10.1518 18.4995 9.67298 18.6032C9.08153 18.7309 8.47801 18.7787 7.85438 18.7548C7.23074 18.7309 6.66746 18.6152 6.1605 18.4158L6.96117 16.3696C7.31121 16.5331 7.66125 16.6288 8.01531 16.6647C8.36938 16.7006 8.69528 16.6847 8.99301 16.6209C9.19016 16.577 9.37122 16.5132 9.53618 16.4254C9.70114 16.3377 9.84196 16.23 9.95462 16.1023C10.0673 15.9747 10.1477 15.8311 10.196 15.6716C10.2443 15.512 10.2443 15.3365 10.2041 15.1491L10.1437 14.8818L10.1075 14.8898C9.99485 15.0932 9.80575 15.2927 9.5402 15.4881C9.27465 15.6835 8.95278 15.8231 8.57457 15.9029C8.09578 16.0066 7.65723 16.0106 7.26695 15.9189C6.87668 15.8271 6.53066 15.6636 6.23293 15.4323C5.93519 15.1969 5.68574 14.9058 5.49261 14.5548C5.29546 14.2038 5.15464 13.8248 5.0621 13.41H5.05808ZM7.5848 12.8676C7.64918 13.1627 7.79 13.3941 8.00727 13.5536C8.22453 13.7171 8.49813 13.761 8.82805 13.6892C9.14993 13.6214 9.38731 13.4619 9.53618 13.2186C9.68505 12.9753 9.72528 12.708 9.66493 12.4208C9.60458 12.1496 9.45571 11.9302 9.21833 11.7707C8.98094 11.6111 8.6993 11.5633 8.37742 11.6311C8.0475 11.7029 7.81816 11.8584 7.68941 12.0978C7.56066 12.3371 7.52445 12.5963 7.5848 12.8676Z" fill="white"/>
<path d="M13.2815 11.6394C13.193 11.2406 13.1688 10.8377 13.209 10.4309C13.2453 10.024 13.3499 9.64112 13.5229 9.28613C13.6919 8.93114 13.9333 8.62402 14.2471 8.36077C14.5609 8.09752 14.9512 7.91803 15.4139 7.81831C15.7438 7.74652 16.0818 7.73854 16.4278 7.79438C16.7738 7.85022 17.0796 7.99381 17.3452 8.22117L17.3814 8.21319L17.2446 7.59096L19.8075 7.04053L21.0145 12.5648C21.1634 13.2349 21.1715 13.8172 21.0507 14.3078C20.926 14.7984 20.7128 15.2172 20.403 15.5563C20.0932 15.8953 19.719 16.1705 19.2764 16.3739C18.8338 16.5774 18.3752 16.7329 17.8964 16.8366C17.3049 16.9643 16.6974 17.0161 16.0778 16.9882C15.4541 16.9643 14.8908 16.8486 14.3839 16.6492L15.1846 14.603C15.5346 14.7665 15.8846 14.8622 16.2387 14.8981C16.5928 14.934 16.9187 14.9181 17.2164 14.8543C17.4135 14.8104 17.5946 14.7466 17.7596 14.6588C17.9245 14.5711 18.0653 14.4634 18.178 14.3358C18.2907 14.2081 18.3711 14.0645 18.4154 13.905C18.4637 13.7454 18.4637 13.5699 18.4234 13.3825L18.3631 13.1152L18.3269 13.1232C18.2142 13.3266 18.0251 13.5261 17.7596 13.7215C17.494 13.9169 17.1721 14.0565 16.7939 14.1363C16.3151 14.24 15.8766 14.244 15.4863 14.1523C15.096 14.0605 14.75 13.897 14.4523 13.6657C14.1546 13.4303 13.9051 13.1392 13.712 12.7882C13.5148 12.4372 13.374 12.0582 13.2815 11.6434V11.6394ZM15.8082 11.097C15.8726 11.3921 16.0134 11.6235 16.2307 11.783C16.4479 11.9466 16.7215 11.9904 17.0514 11.9186C17.3733 11.8508 17.6107 11.6913 17.7596 11.448C17.9084 11.2047 17.9487 10.9374 17.8883 10.6502C17.828 10.379 17.6791 10.1596 17.4417 10.0001C17.2043 9.84055 16.9227 9.79269 16.6008 9.8605C16.2709 9.93229 16.0416 10.0879 15.9128 10.3272C15.7841 10.5665 15.7478 10.8257 15.8082 11.097Z" fill="white"/>
<path d="M28.5911 8.35264C28.7078 8.88312 28.7158 9.37771 28.6112 9.83242C28.5106 10.2871 28.3255 10.694 28.06 11.045C27.7944 11.4 27.4645 11.6991 27.0702 11.9384C26.6759 12.1777 26.2414 12.3493 25.7666 12.453C25.3039 12.5527 24.8412 12.5726 24.3785 12.5168C23.9158 12.4609 23.4934 12.3253 23.1071 12.1099C22.7209 11.8945 22.3869 11.5994 22.1053 11.2284C21.8236 10.8575 21.6225 10.4068 21.5058 9.87629C21.3931 9.35378 21.3851 8.86717 21.4897 8.41645C21.5943 7.96573 21.7754 7.56687 22.0369 7.21587C22.2984 6.86487 22.6283 6.5737 23.0267 6.33438C23.425 6.09905 23.8555 5.93153 24.3182 5.83181C24.7889 5.7321 25.2556 5.70417 25.7183 5.75603C26.181 5.80788 26.6035 5.93951 26.9897 6.1509C27.376 6.3623 27.714 6.64948 27.9956 7.02043C28.2773 7.38738 28.4784 7.83411 28.5911 8.35662V8.35264ZM24.8171 8.10933C24.5194 8.17315 24.2981 8.3287 24.1572 8.56802C24.0164 8.81133 23.9762 9.0666 24.0365 9.34182C24.1009 9.629 24.2458 9.85635 24.4791 10.0199C24.7125 10.1834 24.978 10.2313 25.2798 10.1675C25.5775 10.1036 25.7988 9.94809 25.9437 9.70478C26.0885 9.46148 26.1287 9.19424 26.0644 8.90706C26.004 8.63583 25.8551 8.41645 25.6178 8.25691C25.3804 8.09736 25.1148 8.04551 24.8131 8.10933H24.8171Z" fill="white"/>
</svg>
