<svg width="39" height="24" viewBox="0 0 39 24" fill="none" xmlns="http://www.w3.org/2000/svg">
<path d="M13.9453 5.32812H12.5234V19.3281H13.9453V5.32812ZM1.72656 15.4688L2.63281 16.5781C4 15.7266 4.95312 14.1641 5.45312 12.3359C5.94531 14.0234 6.85938 15.4531 8.19531 16.25L9.08594 15.1562C7.11719 14.0234 6.14844 11.625 6.14844 9.23438V8.10938H8.55469V6.90625H2.14844V8.10938H4.72656V9.23438C4.71875 11.7266 3.71094 14.2734 1.72656 15.4688ZM7.52344 11.5H9.69531V18.625H11.1016V5.625H9.69531V10.2812H7.52344V11.5ZM26.3984 5.90625H16.8828V10.7031H20.8984V12.3281H15.2578V13.5312H28.0234V12.3281H22.3672V10.7031H26.3984V5.90625ZM16.6797 16.0312H24.9609V19.3281H26.4609V14.8594H16.6797V16.0312ZM18.3359 9.51562V7.07812H24.9297V9.51562H18.3359ZM29.0703 18H36.6797V16.5312H31.4609V16.4375L33.7578 14.1094C35.8828 12.0234 36.4766 11.0156 36.4922 9.75C36.4766 7.91406 34.9688 6.53125 32.7891 6.53125C30.6328 6.53125 29.0547 7.89844 29.0703 9.96875H30.6953C30.7031 8.76562 31.5 7.96875 32.7578 7.96875C33.9453 7.96875 34.8516 8.67969 34.8516 9.79688C34.8516 10.7891 34.2344 11.5078 32.9922 12.7969L29.0703 16.75V18Z" fill="#1C1D22"/>
</svg>
