<svg width="24" height="24" viewBox="0 0 24 24" fill="none" xmlns="http://www.w3.org/2000/svg">
<path fill-rule="evenodd" clip-rule="evenodd" d="M20.1325 10.7998H6.0965L11.5475 5.3488C12.0165 4.8798 12.0165 4.1198 11.5475 3.6518C11.0785 3.1828 10.3195 3.1828 9.8505 3.6518L2.3505 11.1518C2.3475 11.1538 2.3465 11.1578 2.3435 11.1608C2.2365 11.2698 2.1505 11.3988 2.0915 11.5408C1.9695 11.8348 1.9695 12.1648 2.0915 12.4588C2.1505 12.6018 2.2365 12.7298 2.3435 12.8388C2.3465 12.8418 2.3475 12.8458 2.3505 12.8488L9.8505 20.3488C10.0845 20.5828 10.3915 20.6998 10.6985 20.6998C11.0065 20.6998 11.3135 20.5828 11.5475 20.3488C12.0165 19.8798 12.0165 19.1198 11.5475 18.6518L6.0965 13.1998H20.1325C20.7955 13.1998 21.3325 12.6628 21.3325 11.9998C21.3325 11.3378 20.7955 10.7998 20.1325 10.7998Z" fill="#767C8D"/>
</svg>
