<svg width="41" height="24" viewBox="0 0 41 24" fill="none" xmlns="http://www.w3.org/2000/svg">
<path d="M15.5968 4.74414H13.9972V20.4941H15.5968V4.74414ZM1.85074 16.1523L2.87027 17.4004C4.40836 16.4424 5.48063 14.6846 6.04313 12.6279C6.59684 14.5264 7.62516 16.1348 9.12809 17.0312L10.13 15.8008C7.9152 14.5264 6.82535 11.8281 6.82535 9.13867V7.87305H9.53238V6.51953H2.32535V7.87305H5.22574V9.13867C5.21695 11.9424 4.08316 14.8076 1.85074 16.1523ZM8.37223 11.6875H10.8156V19.7031H12.3976V5.07812H10.8156V10.3164H8.37223V11.6875ZM30.0791 5.39453H19.374V10.791H23.8916V12.6191H17.5459V13.9727H31.9072V12.6191H25.5439V10.791H30.0791V5.39453ZM19.1455 16.7852H28.4619V20.4941H30.1494V15.4668H19.1455V16.7852ZM21.0088 9.45508V6.71289H28.4268V9.45508H21.0088ZM38.3914 6.27344H36.493L33.3289 8.34766V10.1934L36.37 8.20703H36.4403V19H38.3914V6.27344Z" fill="#1C1D22"/>
</svg>
