<svg width="25" height="24" viewBox="0 0 25 24" fill="none" xmlns="http://www.w3.org/2000/svg">
<path d="M3.63461 6.37695H2.34945V11.3262H5.82211V12.5293H0.886562V13.5957H12.0565V12.5293H7.10727V11.3262H10.6073V6.37695H9.30844V7.82617H3.63461V6.37695ZM2.29477 17.9023H10.7987V16.8496H3.60727V14.4707H2.29477V17.9023ZM3.63461 10.2734V8.83789H9.30844V10.2734H3.63461ZM24.1134 12.1055H12.9025V13.1582H17.9611V15.5371H19.2463V13.1582H24.1134V12.1055ZM14.297 17.9023H22.8693V16.8496H15.5959V14.375H14.297V17.9023ZM14.338 10.834H22.6642V6.48633H14.338V10.834ZM15.6095 9.80859V7.51172H21.3791V9.80859H15.6095Z" fill="#1C1D22"/>
</svg>
