<svg width="24" height="24" viewBox="0 0 24 24" fill="none" xmlns="http://www.w3.org/2000/svg">
<rect width="24" height="24" rx="4" fill="#E3E3E7"/>
<path fill-rule="evenodd" clip-rule="evenodd" d="M4 2C2.89543 2 2 2.89543 2 4V20C2 21.1046 2.89543 22 4 22H20C21.1046 22 22 21.1046 22 20V4C22 2.89543 21.1046 2 20 2H4ZM7.83744 5.5C7.08789 5.5 6.5 6.11864 6.5 6.85714V8.11765C6.5 8.39379 6.72386 8.61765 7 8.61765C7.27614 8.61765 7.5 8.39379 7.5 8.11765V6.85714C7.5 6.64887 7.66197 6.5 7.83744 6.5H11.6724V17.5H9.51232C9.23617 17.5 9.01232 17.7239 9.01232 18C9.01232 18.2761 9.23617 18.5 9.51232 18.5H12.1724H14.9557C15.2318 18.5 15.4557 18.2761 15.4557 18C15.4557 17.7239 15.2318 17.5 14.9557 17.5H12.6724V6.5H16.1626C16.338 6.5 16.5 6.64887 16.5 6.85714V8.47059C16.5 8.74673 16.7239 8.97059 17 8.97059C17.2761 8.97059 17.5 8.74673 17.5 8.47059V6.85714C17.5 6.11864 16.9121 5.5 16.1626 5.5H12.1724H7.83744Z" fill="#5B5D68"/>
</svg>
