<svg width="22" height="22" viewBox="0 0 22 22" fill="none" xmlns="http://www.w3.org/2000/svg">
<mask id="path-1-inside-1_1839_34756" fill="white">
<path fill-rule="evenodd" clip-rule="evenodd" d="M19.3224 4.86751L11.9066 0.586679C11.7633 0.50405 11.6008 0.460559 11.4353 0.460571C11.2699 0.460583 11.1074 0.504097 10.9641 0.586748C10.8208 0.669398 10.7018 0.788278 10.619 0.931461C10.5361 1.07464 10.4924 1.23709 10.4922 1.40251V2.72251C10.4924 3.5497 10.2747 4.36235 9.86118 5.07874C9.44763 5.79513 8.85274 6.39 8.13633 6.80351L2.67941 9.95501C2.53606 10.0377 2.41701 10.1567 2.33424 10.3C2.25146 10.4433 2.20789 10.6058 2.20789 10.7713C2.20789 10.9368 2.25146 11.0994 2.33424 11.2427C2.41701 11.3859 2.53606 11.5049 2.67941 11.5876L7.62483 14.4421C7.58174 14.4925 7.52949 14.5301 7.49649 14.5888L4.32849 20.075C4.18892 20.3272 4.15392 20.6242 4.23104 20.9019C4.30816 21.1797 4.49122 21.4161 4.74085 21.5602C4.99048 21.7044 5.28672 21.7448 5.56584 21.6727C5.84496 21.6007 6.08464 21.422 6.23333 21.175L9.40133 15.6897C9.43524 15.6301 9.44166 15.5659 9.46274 15.5045L14.4091 18.359C14.5523 18.4417 14.7148 18.4852 14.8802 18.4853C15.0456 18.4853 15.2081 18.4418 15.3513 18.3591C15.4945 18.2764 15.6135 18.1575 15.6962 18.0143C15.779 17.871 15.8225 17.7086 15.8226 17.5432V11.242C15.8226 9.55809 16.72 8.00251 18.1784 7.16101L19.3224 6.50101C19.466 6.4184 19.5852 6.2994 19.6681 6.15601C19.7511 6.01262 19.7947 5.8499 19.7947 5.68426C19.7947 5.51862 19.7511 5.35591 19.6681 5.21252C19.5852 5.06913 19.466 4.95013 19.3224 4.86751Z"/>
</mask>
<path d="M11.9066 0.586679L12.4065 -0.279382L12.4061 -0.279626L11.9066 0.586679ZM10.4922 1.40251L9.49216 1.40112V1.40251H10.4922ZM10.4922 2.72251H9.49216V2.72275L10.4922 2.72251ZM8.13633 6.80351L7.63643 5.93743L7.63622 5.93755L8.13633 6.80351ZM2.67941 9.95501L3.17903 10.8213L3.17952 10.821L2.67941 9.95501ZM2.67941 11.5876L3.17931 10.7215L3.17903 10.7213L2.67941 11.5876ZM7.62483 14.4421L8.38506 15.0917L9.16648 14.1773L8.12473 13.576L7.62483 14.4421ZM7.49649 14.5888L8.36254 15.0889L8.36807 15.079L7.49649 14.5888ZM4.32849 20.075L3.4625 19.575L3.45795 19.5828L3.45354 19.5908L4.32849 20.075ZM6.23333 21.175L7.09004 21.6908L7.09473 21.683L7.09928 21.6751L6.23333 21.175ZM9.40133 15.6897L10.2673 16.1898L10.2704 16.1844L9.40133 15.6897ZM9.46274 15.5045L9.96258 14.6384L8.91109 14.0316L8.51692 15.1798L9.46274 15.5045ZM14.4091 18.359L14.9091 17.493L14.9089 17.4929L14.4091 18.359ZM15.8226 17.5432L16.8226 17.5434V17.5432H15.8226ZM18.1784 7.16101L17.6787 6.29483L17.6786 6.29485L18.1784 7.16101ZM19.3224 6.50101L18.8236 5.63428L18.8227 5.63483L19.3224 6.50101ZM19.8223 4.00145L12.4065 -0.279382L11.4066 1.45274L18.8225 5.73357L19.8223 4.00145ZM12.4061 -0.279626C12.1109 -0.449857 11.7761 -0.539454 11.4353 -0.539429L11.4354 1.46057C11.4255 1.46057 11.4157 1.45796 11.4071 1.45298L12.4061 -0.279626ZM11.4353 -0.539429C11.0945 -0.539404 10.7597 -0.449758 10.4645 -0.279485L11.4638 1.45298C11.4551 1.45795 11.4454 1.46057 11.4354 1.46057L11.4353 -0.539429ZM10.4645 -0.279485C10.1693 -0.109211 9.92404 0.135701 9.75338 0.430681L11.4845 1.43224C11.4795 1.44085 11.4724 1.44801 11.4638 1.45298L10.4645 -0.279485ZM9.75338 0.430681C9.58272 0.72566 9.49263 1.06033 9.49216 1.40112L11.4922 1.4039C11.4921 1.41385 11.4895 1.42363 11.4845 1.43224L9.75338 0.430681ZM9.49216 1.40251V2.72251H11.4922V1.40251H9.49216ZM9.49216 2.72275C9.49231 3.37434 9.32089 4.01448 8.99513 4.5788L10.7272 5.57869C11.2286 4.71023 11.4924 3.72506 11.4922 2.72228L9.49216 2.72275ZM8.99513 4.5788C8.66937 5.14311 8.20076 5.6117 7.63643 5.93743L8.63623 7.66959C9.50472 7.1683 10.2259 6.44716 10.7272 5.57869L8.99513 4.5788ZM7.63622 5.93755L2.1793 9.08905L3.17952 10.821L8.63644 7.66947L7.63622 5.93755ZM2.17979 9.08877C1.88432 9.25918 1.63893 9.50441 1.46832 9.79977L3.20015 10.8001C3.19509 10.8089 3.1878 10.8162 3.17903 10.8213L2.17979 9.08877ZM1.46832 9.79977C1.29771 10.0951 1.20789 10.4302 1.20789 10.7713H3.20789C3.20789 10.7814 3.20522 10.7914 3.20015 10.8001L1.46832 9.79977ZM1.20789 10.7713C1.20789 11.1124 1.29771 11.4475 1.46832 11.7428L3.20015 10.7425C3.20522 10.7512 3.20789 10.7612 3.20789 10.7713H1.20789ZM1.46832 11.7428C1.63894 12.0382 1.88432 12.2834 2.17979 12.4538L3.17903 10.7213C3.1878 10.7264 3.19509 10.7337 3.20015 10.7425L1.46832 11.7428ZM2.17951 12.4537L7.12492 15.3082L8.12473 13.576L3.17931 10.7215L2.17951 12.4537ZM6.8646 13.7924C6.87782 13.777 6.88679 13.7682 6.88237 13.7727C6.87978 13.7753 6.87757 13.7775 6.86999 13.785C6.86383 13.7911 6.85375 13.8011 6.8427 13.8124C6.8005 13.8554 6.70625 13.9539 6.62492 14.0985L8.36807 15.079C8.3432 15.1232 8.31842 15.1568 8.30034 15.179C8.29141 15.19 8.28397 15.1984 8.27905 15.2038C8.2742 15.2091 8.2711 15.2123 8.27106 15.2123C8.27099 15.2124 8.27142 15.2119 8.27262 15.2107C8.27386 15.2095 8.27547 15.2079 8.27799 15.2054C8.2799 15.2035 8.28402 15.1994 8.28718 15.1963C8.29081 15.1927 8.29526 15.1882 8.30011 15.1834C8.30973 15.1737 8.32239 15.1608 8.33649 15.1458C8.35071 15.1307 8.36726 15.1126 8.38506 15.0917L6.8646 13.7924ZM6.6305 14.0887L3.4625 19.575L5.19448 20.5751L8.36249 15.0888L6.6305 14.0887ZM3.45354 19.5908C3.18707 20.0723 3.12026 20.6392 3.26749 21.1694L5.19459 20.6344C5.18758 20.6091 5.19076 20.5821 5.20345 20.5592L3.45354 19.5908ZM3.26749 21.1694C3.41471 21.6997 3.7642 22.151 4.24077 22.4262L5.24094 20.6942C5.21824 20.6811 5.2016 20.6596 5.19459 20.6344L3.26749 21.1694ZM4.24077 22.4262C4.71733 22.7014 5.28289 22.7785 5.81575 22.641L5.31593 20.7045C5.29056 20.711 5.26363 20.7073 5.24094 20.6942L4.24077 22.4262ZM5.81575 22.641C6.34861 22.5035 6.80619 22.1623 7.09004 21.6908L5.37662 20.6592C5.3631 20.6817 5.34131 20.6979 5.31593 20.7045L5.81575 22.641ZM7.09928 21.6751L10.2673 16.1898L8.53537 15.1896L5.36737 20.6749L7.09928 21.6751ZM10.2704 16.1844C10.3495 16.0454 10.3858 15.9192 10.4018 15.8603C10.4059 15.8451 10.4094 15.8314 10.4116 15.8228C10.4144 15.8121 10.4151 15.8091 10.4162 15.8052C10.4179 15.7985 10.4151 15.8103 10.4086 15.8292L8.51692 15.1798C8.50818 15.2053 8.50108 15.2283 8.49542 15.2477C8.48981 15.267 8.48523 15.284 8.48188 15.2967C8.48019 15.3032 8.47866 15.3091 8.47744 15.3139C8.47682 15.3163 8.47623 15.3186 8.47572 15.3206C8.47518 15.3227 8.47476 15.3243 8.47433 15.326C8.47348 15.3293 8.47292 15.3315 8.47249 15.3331C8.47207 15.3347 8.47191 15.3353 8.47192 15.3353C8.47194 15.3352 8.47221 15.3342 8.4727 15.3325C8.47319 15.3308 8.47395 15.3282 8.47497 15.3249C8.47699 15.3184 8.48022 15.3085 8.48479 15.2962C8.49407 15.2712 8.50908 15.2357 8.53226 15.195L10.2704 16.1844ZM8.96291 16.3706L13.9092 19.2251L14.9089 17.4929L9.96258 14.6384L8.96291 16.3706ZM13.9091 19.225C14.2043 19.3955 14.5392 19.4852 14.8801 19.4853L14.8802 17.4853C14.8904 17.4853 14.9003 17.4879 14.9091 17.493L13.9091 19.225ZM14.8801 19.4853C15.221 19.4853 15.5559 19.3956 15.8512 19.2252L14.8514 17.493C14.8602 17.4879 14.8701 17.4853 14.8802 17.4853L14.8801 19.4853ZM15.8512 19.2252C16.1464 19.0548 16.3916 18.8096 16.5622 18.5144L14.8303 17.5141C14.8354 17.5053 14.8426 17.498 14.8514 17.493L15.8512 19.2252ZM16.5622 18.5144C16.7327 18.2192 16.8225 17.8844 16.8226 17.5434L14.8226 17.5429C14.8226 17.5328 14.8252 17.5228 14.8303 17.5141L16.5622 18.5144ZM16.8226 17.5432V11.242H14.8226V17.5432H16.8226ZM16.8226 11.242C16.8226 9.91504 17.5297 8.68986 18.6782 8.02717L17.6786 6.29485C15.9103 7.31516 14.8226 9.20115 14.8226 11.242H16.8226ZM18.6781 8.0272L19.8221 7.3672L18.8227 5.63483L17.6787 6.29483L18.6781 8.0272ZM19.8212 7.36774C20.1171 7.19745 20.3629 6.95217 20.5338 6.65662L18.8025 5.65539C18.8075 5.64662 18.8148 5.63934 18.8236 5.63428L19.8212 7.36774ZM20.5338 6.65662C20.7047 6.36107 20.7947 6.02568 20.7947 5.68426H18.7947C18.7947 5.67412 18.7974 5.66417 18.8025 5.65539L20.5338 6.65662ZM20.7947 5.68426C20.7947 5.34284 20.7047 5.00746 20.5338 4.71191L18.8025 5.71313C18.7974 5.70436 18.7947 5.6944 18.7947 5.68426H20.7947ZM20.5338 4.71191C20.3629 4.41636 20.1171 4.17107 19.8212 4.00078L18.8236 5.73424C18.8148 5.72919 18.8075 5.7219 18.8025 5.71313L20.5338 4.71191Z" fill="#767C8D" mask="url(#path-1-inside-1_1839_34756)"/>
</svg>
