<svg width="24" height="24" viewBox="0 0 24 24" fill="none" xmlns="http://www.w3.org/2000/svg">
<rect width="24" height="24" rx="4" fill="#E3E3E7"/>
<path d="M6 11.3636V6C6 5.44772 6.44772 5 7 5H12.4737C14.1305 5 15.4737 6.34362 15.4737 8.00047C15.4737 8.06262 15.4737 8.12318 15.4737 8.18182C15.4737 9.375 15.4737 11.3636 12.8571 11.3636M6 11.3636V18C6 18.5523 6.44772 19 7 19H14.1818C16.2905 19 18 17.2905 18 15.1818V15.1818C18 13.0731 16.2903 11.3636 14.1816 11.3636C13.7175 11.3636 13.2642 11.3636 12.8571 11.3636M6 11.3636H11.0526C11.0526 11.3636 11.0526 11.3636 11.0526 11.3636C11.0526 11.3636 12.1524 11.3636 12.8571 11.3636" stroke="#1C1D22" stroke-linecap="round" stroke-linejoin="round"/>
</svg>
