<svg width="24" height="24" viewBox="0 0 24 24" fill="none" xmlns="http://www.w3.org/2000/svg">
<path d="M13.9805 9.91211H16.5117C16.4766 7.66211 14.6221 6.09766 11.8008 6.09766C9.01465 6.09766 6.97559 7.63574 6.98438 9.94727C6.98438 11.8105 8.30273 12.8828 10.4473 13.4102L11.8359 13.7441C13.2246 14.0869 14.0156 14.4912 14.0156 15.3613C14.0156 16.3105 13.1191 16.9609 11.7305 16.9609C10.3242 16.9609 9.30469 16.3105 9.2168 15.0273H6.65039C6.72949 17.7607 8.68945 19.1846 11.7656 19.1758C14.8682 19.1846 16.6787 17.6904 16.6875 15.3613C16.6787 13.2432 15.0527 12.1357 12.873 11.6348L11.7305 11.3535C10.6318 11.1074 9.68262 10.6943 9.69141 9.77148C9.7002 8.92773 10.4473 8.3125 11.7832 8.3125C13.0752 8.3125 13.875 8.90137 13.9805 9.91211Z" fill="#767C8D"/>
<rect x="4" y="12" width="16" height="1" fill="#767C8D"/>
</svg>
