<svg xmlns="http://www.w3.org/2000/svg" width="320" height="56" fill="none" viewBox="0 0 320 56">
  <rect width="320" height="56" fill="#FEE500" rx="28"/>
  <path fill="#1C1D22" d="M102.499 21.333c-4.05 0-7.333 2.55-7.333 5.696 0 2.034 1.373 3.819 3.437 4.827-.112.381-.721 2.455-.746 2.618 0 0-.014.122.066.169.08.046.175.01.175.01.23-.032 2.676-1.723 3.099-2.017.423.059.858.09 1.302.09 4.05 0 7.334-2.55 7.334-5.697 0-3.145-3.284-5.696-7.334-5.696Z"/>
  <path fill="#191919" d="M122.531 22.75h-6.39v1.203h4.898a10.65 10.65 0 0 1-.383 2.274l-5.25.351.219 1.281 4.57-.43c-.828 1.774-2.336 3.282-4.867 4.524l.813 1.11c5.109-2.516 6.375-6.18 6.39-10.313Zm2.141 12.563h1.484V28.14h2.172v-1.22h-2.172v-5.593h-1.484v13.985Zm11.187-12.563h-6.39v1.203h4.898a10.65 10.65 0 0 1-.383 2.274l-5.25.351.219 1.281 4.57-.43c-.828 1.774-2.335 3.282-4.867 4.524l.813 1.11c5.109-2.516 6.375-6.18 6.39-10.313ZM138 35.313h1.484V28.14h2.172v-1.22h-2.172v-5.593H138v13.985Zm10.281-13.141c-2.976.008-5.164 1.484-5.156 3.719-.008 2.093 1.828 3.492 4.422 3.703v2.75h-5.641v1.234h12.813v-1.234h-5.703v-2.75c2.609-.211 4.437-1.61 4.437-3.703 0-2.235-2.18-3.711-5.172-3.72Zm-3.719 3.719c0-1.516 1.563-2.516 3.719-2.5 2.172-.016 3.727.984 3.735 2.5-.008 1.57-1.563 2.547-3.735 2.562-2.156-.015-3.719-.992-3.719-2.562Zm23.485 6.515h-5.703v-2.453h4.468v-1.219h-8.546v-2.047h8.218v-4.375h-9.718v1.22h8.25V25.5h-8.219v4.453h4.078v2.453h-5.641v1.25h12.813v-1.25Zm9.062-7.515V22.5h-1.5v2.39c0 2.672-1.547 5.352-3.75 6.329l.907 1.25c1.679-.82 2.968-2.508 3.617-4.563.656 1.914 1.929 3.485 3.539 4.25l.89-1.172c-2.171-.96-3.718-3.539-3.703-6.093Zm4.969 10.468h1.484V21.33h-1.484v14.03Zm8.11-11.515v-.39h3.015V22.25h-7.578v1.203h3.078v.375c-.008 1.93-1.328 3.742-3.515 4.485l.796 1.156c1.641-.578 2.86-1.774 3.469-3.282.609 1.375 1.774 2.47 3.359 3.016l.75-1.156c-2.14-.719-3.382-2.414-3.374-4.203Zm-3.141 7.812h7.765v3.672h1.485v-4.875h-9.25v1.203Zm7.765-1.89h1.485v-3.594h2.031v-1.25h-2.031v-3.594h-1.485v8.438Zm14.719-8.438h-1.469v14h1.469v-7.094h2.25V27h-2.25v-5.672Zm-10.984 3.406h8.297v-1.218h-3.36v-2H202v2h-3.453v1.218Zm.719 4.282c0 1.922 1.468 3.257 3.484 3.265 2.008-.008 3.477-1.343 3.484-3.265-.007-1.907-1.476-3.25-3.484-3.25-2.016 0-3.484 1.343-3.484 3.25Zm1.422 0c-.008-1.196.867-2.024 2.062-2.032 1.188.008 2.055.836 2.062 2.032-.007 1.218-.874 2.03-2.062 2.015-1.195.016-2.07-.797-2.062-2.015Zm22.906-7.688h-1.5v14h1.5v-14Zm-11.5 10.25.781 1.203c4.805-2.304 6.547-5.851 6.547-9.953h-6.656v1.188h5.156c-.289 3.265-2.11 5.789-5.828 7.562Z"/>
</svg>
