<svg width="24" height="24" viewBox="0 0 24 24" fill="none" xmlns="http://www.w3.org/2000/svg">
<path fill-rule="evenodd" clip-rule="evenodd" d="M4.99982 8C4.99982 7.44772 5.44753 7 5.99982 7H18.4998C19.0521 7 19.4998 7.44772 19.4998 8C19.4998 8.55228 19.0521 9 18.4998 9H5.99982C5.44753 9 4.99982 8.55228 4.99982 8ZM7.99982 13C7.99982 12.4477 8.44753 12 8.99982 12H15.2498C15.8021 12 16.2498 12.4477 16.2498 13C16.2498 13.5523 15.8021 14 15.2498 14H8.99982C8.44753 14 7.99982 13.5523 7.99982 13ZM5.99982 17C5.44753 17 4.99982 17.4477 4.99982 18C4.99982 18.5523 5.44753 19 5.99982 19H18.4998C19.0521 19 19.4998 18.5523 19.4998 18C19.4998 17.4477 19.0521 17 18.4998 17H5.99982Z" fill="#767C8D"/>
</svg>
