<svg xmlns="http://www.w3.org/2000/svg" width="226" height="111" fill="none" viewBox="0 0 226 111">
  <g opacity=".9">
    <path fill="#fff" d="m245.515 62.847-39.321-27.772a10.692 10.692 0 0 0-3.527-1.616l-40.702-10.08L142.48 3.203A10.494 10.494 0 0 0 134.942 0h-.015l-16.31.03a10.48 10.48 0 0 0-7.891 3.6L90.581 26.758a10.47 10.47 0 0 0-2.395 8.846l2.571 13.563a10.508 10.508 0 0 0 5.834 7.538l8.566 4.026a10.51 10.51 0 0 0 8.141.338l3.6 13.989a10.545 10.545 0 0 0 3.688 5.642l-6.642 12.46a10.482 10.482 0 0 0 12.887 14.767l20.763-7.684 3.659 2.645a10.523 10.523 0 0 0 7.067 1.955l44.333-3.865a10.57 10.57 0 0 0 3.82-1.087l12.299-6.216 7.171 11.564a10.489 10.489 0 0 0 8.919 4.967 10.494 10.494 0 0 0 10.359-8.817l4.585-28.3a10.47 10.47 0 0 0-4.305-10.242h.014Z"/>
    <path fill="#26272E" d="m239.344 71.501-39.513-27.728-41.892-10.389-1.293-.323-21.38-22.13-16.634-.41-19.837 23.157 2.38 13.46 8.464 4.1 10.977-4.408 6.876 25.435 7.024 5.07-10.829 20.322 25.744-9.522-.059.03 2.013 1.38 6.172 4.467 43.876-3.835 21.292-10.374 12.108 19.705 4.511-28.007Z"/>
    <g opacity=".97">
      <path fill="#EFEFEF" d="m156.514 32.84-21.585-22.349-16.296.03-20.131 23.128 2.571 13.563 8.567 4.026 46.874-18.397Z"/>
      <path fill="url(#a)" d="m120.529 46.963 35.986-14.12 43.627 10.814 39.321 27.757-37.69 19.117-44.332 3.865-30.358-21.968-6.554-25.465Z"/>
      <path fill="url(#b)" d="m123.217 98.097 48.49-17.941-13.886-46.992-34.604 64.933Z"/>
      <path fill="url(#c)" d="m156.515 32.842-35.192 17.222-.794-3.1 35.986-14.122Z"/>
      <path fill="url(#d)" d="m200.139 43.657 1.631 46.874-21.233 1.778-.426-53.589 20.028 4.937Z"/>
      <path fill="url(#e)" d="m201.771 90.531 19.588-31.24 10.256 16.164-29.844 15.076Z"/>
      <path fill="url(#f)" d="m200.141 43.656 39.321 27.757-4.585 28.301-34.736-56.058Z"/>
      <path fill="url(#g)" d="m222.623 79.936-5.76 2.924-16.722-39.204 22.482 36.28Z"/>
      <path fill="url(#h)" d="m171.709 80.156-19.543 10.403-2.998-2.071 22.541-8.332Z"/>
      <path fill="url(#i)" d="m98.502 33.65 20.131-23.13 16.296-.029-33.856 36.72-2.571-13.562Z"/>
    </g>
  </g>
  <path stroke="#F9F7D8" stroke-linecap="round" stroke-width="1.7" d="M16.58 69.442c1.272-3.052 2.005-9.045-3.305-10.428-7.376-.508-11.644 12.718-12.208 19.33-.483 5.65 1.548 15.255 9.61 14.55 4.36-.382 7.451-4.675 9.21-8.192"/>
  <path stroke="#F9F7D8" stroke-linecap="round" stroke-width="1.7" d="M28.458 60.32c1.317 7.739-2.759 18.012-6.15 24.708-.051.102-4.518 8.208-4.183 4.848.215-2.146 1.406-4.767 2.466-6.593 1.514-2.608 6.371-6.965 8.92-3.324 2.12 3.029.417 8.18.055 11.44m1.258-6.865c1.054 6.782 12.462-.595 13.225-6.457 0-2.023-1.012-2.747-2.74-2.495-2.545.37-3.69 2.815-4.422 4.579-1.279 3.083-1.947 9.236 1.557 11.609 3.705 2.508 8.191-2.325 11.455-6.305.763-.93 4.324-5.85 2.035-8.139-4.095-4.095-9.92 9.633-6.613 13.734 4.578 2.679 8.08 0 8.902-.763 2.797-2.595 4.323-5.763 5.85-12.22"/>
  <path stroke="#F9F7D8" stroke-linecap="round" stroke-width="1.7" d="M60.188 77.49c0-2.078.107 4.16-.056 6.232-.206 2.631-1.942 10.343-1.108 7.84 1.689-5.067 5.116-14.073 10.457-13.473m7.368 1.848c-2.71 1.875-6.48 10.26-.998 11.111 4.542.705 8.286-8.368 9.38-11.444 1.576-4.428-.856 2.079-1.064 3.926-.294 2.612-.808 5.912 1.064 7.784m5.106-13.224c-1.276 6.382-1.553 13.091-2.58 19.548-.177 1.105-1.929 8.433-1.385 7.289"/>
  <path stroke="#F9F7D8" stroke-linecap="round" stroke-width="1.7" d="M90.337 79.615c2.202-1.476 8.156-1.804 7.58 1.116-.97 4.925-5.427 6.675-9.614 10.075m18.311-19.838c-1.272 2.522-2.544 8.404-2.544 12.716m0 5.087v-1.017"/>
  <defs>
    <linearGradient id="a" x1="120.529" x2="239.463" y1="63.626" y2="63.626" gradientUnits="userSpaceOnUse">
      <stop stop-color="#F6F6F6"/>
      <stop offset="1" stop-color="#CCC"/>
    </linearGradient>
    <linearGradient id="b" x1="116.311" x2="161.98" y1="74.249" y2="57.982" gradientUnits="userSpaceOnUse">
      <stop stop-color="#F6F6F6"/>
      <stop offset="1" stop-color="#CCC"/>
    </linearGradient>
    <linearGradient id="c" x1="139.558" x2="138.25" y1="43.011" y2="39.807" gradientUnits="userSpaceOnUse">
      <stop stop-color="#F6F6F6" stop-opacity="0"/>
      <stop offset="1" stop-color="#B3B3B3"/>
    </linearGradient>
    <linearGradient id="d" x1="180.111" x2="201.77" y1="65.507" y2="65.507" gradientUnits="userSpaceOnUse">
      <stop stop-color="#F6F6F6" stop-opacity="0"/>
      <stop offset="1" stop-color="#fff" stop-opacity=".7"/>
    </linearGradient>
    <linearGradient id="e" x1="207.399" x2="217.876" y1="67.741" y2="84.933" gradientUnits="userSpaceOnUse">
      <stop stop-color="#F6F6F6"/>
      <stop offset="1" stop-color="#fff" stop-opacity="0"/>
    </linearGradient>
    <linearGradient id="f" x1="200.141" x2="239.462" y1="71.693" y2="71.693" gradientUnits="userSpaceOnUse">
      <stop stop-color="#F6F6F6"/>
      <stop offset="1" stop-color="#D9D9D9"/>
    </linearGradient>
    <linearGradient id="g" x1="207.389" x2="211.052" y1="64.057" y2="62.055" gradientUnits="userSpaceOnUse">
      <stop stop-color="#F6F6F6" stop-opacity="0"/>
      <stop offset="1" stop-color="#A6A6A6"/>
    </linearGradient>
    <linearGradient id="h" x1="161.283" x2="160.395" y1="86.412" y2="84.251" gradientUnits="userSpaceOnUse">
      <stop stop-color="#F6F6F6" stop-opacity="0"/>
      <stop offset="1" stop-color="#B3B3B3"/>
    </linearGradient>
    <linearGradient id="i" x1="121.077" x2="109.801" y1="32.493" y2="17.55" gradientUnits="userSpaceOnUse">
      <stop stop-color="#F6F6F6" stop-opacity="0"/>
      <stop offset="1" stop-color="#fff" stop-opacity=".6"/>
    </linearGradient>
  </defs>
</svg>
