<svg width="36" height="24" viewBox="0 0 36 24" fill="none" xmlns="http://www.w3.org/2000/svg">
<path d="M13.819 6.49609H12.7526V16.9961H13.819V6.49609ZM4.65492 14.1016L5.33461 14.9336C6.36 14.2949 7.07484 13.123 7.44984 11.752C7.81898 13.0176 8.50453 14.0898 9.50648 14.6875L10.1745 13.8672C8.69789 13.0176 7.97133 11.2188 7.97133 9.42578V8.58203H9.77602V7.67969H4.97133V8.58203H6.90492V9.42578C6.89906 11.2949 6.1432 13.2051 4.65492 14.1016ZM9.00258 11.125H10.6315V16.4688H11.6862V6.71875H10.6315V10.2109H9.00258V11.125ZM23.1738 6.92969H16.0371V10.5273H19.0488V11.7461H14.8184V12.6484H24.3926V11.7461H20.1504V10.5273H23.1738V6.92969ZM15.8848 14.5234H22.0957V16.9961H23.2207V13.6445H15.8848V14.5234ZM17.127 9.63672V7.80859H22.0723V9.63672H17.127ZM25.1927 16H30.8998V14.8984H26.9857V14.8281L28.7084 13.082C30.3021 11.5176 30.7474 10.7617 30.7591 9.8125C30.7474 8.43555 29.6166 7.39844 27.9818 7.39844C26.3646 7.39844 25.181 8.42383 25.1927 9.97656H26.4115C26.4173 9.07422 27.015 8.47656 27.9584 8.47656C28.849 8.47656 29.5287 9.00977 29.5287 9.84766C29.5287 10.5918 29.0658 11.1309 28.1341 12.0977L25.1927 15.0625V16Z" fill="#767C8D"/>
</svg>
