<svg width="83" height="22" viewBox="0 0 83 22" fill="none" xmlns="http://www.w3.org/2000/svg">
<path fill-rule="evenodd" clip-rule="evenodd" d="M0.052195 22H0.0614712H6L6 0L2.49184 0L2.91855 1.70706C3.29888 3.23191 2.91855 4.84307 1.90744 6.01308C0.525283 7.61465 0.423244 10.0122 1.66626 11.7384L1.89816 12.0549C2.65882 13.5606 2.58461 15.3731 1.70336 16.8021L0.673702 18.4708C0.191339 19.2764 -0.0405673 20.2162 0.00581385 21.1656L0.052195 22Z" fill="#9E8AFF"/>
<rect width="71" height="22" transform="translate(6)" fill="#9E8AFF"/>
<path d="M22.8941 5.49609H21.7809V11.4258H22.8941V8.89453H24.4176V7.96875H22.8941V5.49609ZM14.5973 10.6875L15.0426 11.5781C18.1715 10.7344 19.9937 8.8418 19.9996 6.15234H15.0895V7.06641H18.7926C18.5875 8.70703 17.1109 10.0254 14.5973 10.6875ZM16.1676 15.8555H22.8941V11.8711H16.1676V15.8555ZM17.2809 14.9648V12.7969H21.7926V14.9648H17.2809ZM34.5412 10.6055H30.2873V9.49219H33.4279V8.60156H27.2521V6.85547L33.3576 6.85547V5.97656H26.1505V9.49219H29.2091V10.6055H24.9552V11.4961H34.5412V10.6055ZM26.092 14.0859C26.092 15.3047 27.4572 15.9902 29.7365 15.9961C31.9982 15.9902 33.3517 15.3047 33.3576 14.0859C33.3517 12.8672 31.9982 12.1816 29.7365 12.1758C27.4572 12.1816 26.092 12.8672 26.092 14.0859ZM27.217 14.0859C27.2111 13.4238 28.131 13.043 29.7365 13.043C31.3185 13.043 32.2443 13.4238 32.2443 14.0859C32.2443 14.7598 31.3185 15.1289 29.7365 15.1172C28.131 15.1289 27.2111 14.7598 27.217 14.0859ZM43.5163 5.49609H42.403V11.625H43.5163V8.90625H45.0398V7.98047H43.5163V5.49609ZM35.6765 11.0156H40.6218V6.09375H39.5202V7.61719H36.7663V6.09375H35.6765V11.0156ZM36.7663 10.1367V8.49609H39.5202V10.1367H36.7663ZM36.8249 15.8438H43.7859V14.9648H37.9382V13.0664H43.5984V12.1758H36.8249V15.8438ZM55.1516 10.9805L45.5774 10.9805V11.8711L55.1516 11.8711V10.9805ZM46.6087 7.94531C46.6028 9.26953 48.0735 10.0723 50.3587 10.0781C52.6321 10.0723 54.1028 9.26953 54.1087 7.94531C54.1028 6.62695 52.6321 5.8418 50.3587 5.84766C48.0735 5.8418 46.6028 6.62695 46.6087 7.94531ZM46.7845 15.7734H54.0735V14.8711H47.9095V12.7266H46.7845V15.7734ZM47.7571 7.94531C47.7512 7.19531 48.7473 6.73828 50.3587 6.73828C51.9641 6.73828 52.9661 7.19531 52.9602 7.94531C52.9661 8.72461 51.9641 9.16406 50.3587 9.16406C48.7473 9.16406 47.7512 8.72461 47.7571 7.94531ZM67.1371 12.1172H59.9066V15.8672H67.1371V12.1172ZM58.7699 11.0508H68.3207V10.1602H63.6918V8.20312H62.602V10.1602H58.7699V11.0508ZM59.8832 6.84375L66.0238 6.84375C66.0238 7.65234 66.0238 8.42578 65.7426 9.49219L66.8559 9.59766C67.1254 8.51953 67.1254 7.6582 67.1371 6.83203V5.96484H59.8832V6.84375ZM61.0082 14.9648V12.9961H66.0473V14.9648H61.0082Z" fill="#26272E" fill-opacity="0.7"/>
<path fill-rule="evenodd" clip-rule="evenodd" d="M77 0V3.5V22H79.6235L82.5176 19.1325L79.5029 17.7611L83 14.2703L78.4175 12.6495C78.4175 12.6495 82.397 9.90671 82.397 9.53269C82.397 9.53269 78.566 7.73932 77.9816 7.41325C77.9816 7.41325 82.193 5.41848 82.9815 5.33217L77 3.5L79.9481 0L77 0Z" fill="#9E8AFF"/>
</svg>
