<svg width="28" height="28" viewBox="0 0 28 28" fill="none" xmlns="http://www.w3.org/2000/svg">
<path d="M10.6733 4.96475L12.1206 2.78095C12.3058 2.50144 12.6188 2.33337 12.9541 2.33337H15.0466C15.3807 2.33337 15.6928 2.50025 15.8783 2.77813L17.3107 4.92375M10.6733 4.96475C10.2879 5.54207 9.64734 5.82496 8.9674 5.77452M10.6733 4.96475C10.2861 5.54069 9.64734 5.8273 8.9674 5.77452M8.9674 5.77452L6.4286 5.60717C6.09832 5.5854 5.77867 5.72846 5.57487 5.98927L4.20888 7.73732C4.00727 7.99532 3.94474 8.33568 4.04147 8.64849L4.80348 11.1126M4.80348 11.1126C4.90228 11.449 4.91493 11.8094 4.84422 12.1497M4.80348 11.1126C4.90369 11.4484 4.91586 11.808 4.84375 12.1532M4.84422 12.1497C4.77257 12.486 4.61898 12.8036 4.39092 13.0608M4.84422 12.1497L4.84375 12.1532M4.39092 13.0608L2.67452 14.9991C2.4604 15.2409 2.37625 15.5713 2.44859 15.886L2.94096 18.0284C3.01544 18.3525 3.2461 18.6183 3.5564 18.7377L5.88707 19.6346C6.20363 19.7633 6.4771 19.9724 6.68408 20.2357M4.39092 13.0608C4.62038 12.8057 4.77257 12.4892 4.84375 12.1532M6.68408 20.2357C6.88965 20.4998 7.02967 20.8186 7.08399 21.1638M6.68408 20.2357C6.89153 20.4998 7.03201 20.8178 7.08399 21.1638M6.68408 20.2357L6.6808 20.2319C6.66722 20.2147 6.6527 20.1966 6.63866 20.1799M7.08399 21.1638L7.48482 23.749C7.53499 24.0726 7.74044 24.3512 8.0348 24.4947L9.94062 25.4238C10.2418 25.5706 10.5965 25.5568 10.8853 25.3871L13.0447 24.1186M13.0447 24.1186C13.3392 23.9449 13.668 23.8578 13.9967 23.8574M13.0447 24.1186C13.1613 24.049 13.2835 23.9933 13.409 23.9516C13.5996 23.8882 13.7982 23.857 13.9967 23.8574M13.9967 23.8574C14.1676 23.8577 14.3385 23.8815 14.5053 23.9284C14.6603 23.972 14.811 24.0355 14.9539 24.1186M13.9967 23.8574C14.3268 23.8569 14.6574 23.944 14.9539 24.1186M14.9539 24.1186L17.2127 25.4026C17.503 25.5676 17.8566 25.5768 18.1551 25.4271L20.0526 24.4755C20.3456 24.3286 20.5479 24.0475 20.5943 23.7231L20.9539 21.2077M20.9539 21.2077C21.0059 20.8606 21.144 20.5394 21.3491 20.273M20.9539 21.2077C21.004 20.8598 21.1431 20.5391 21.3491 20.273M21.3491 20.273C21.5528 20.0093 21.823 19.7992 22.1377 19.6693M21.3491 20.273C21.5524 20.0082 21.8216 19.7975 22.1377 19.6693M22.1377 19.6693L24.4918 18.7005C24.7955 18.5755 25.0186 18.3093 25.0884 17.9883L25.5593 15.8238C25.6268 15.5133 25.5428 15.1893 25.333 14.9507L23.6081 12.9897M23.6081 12.9897C23.3758 12.7316 23.2138 12.4233 23.1351 12.0957M23.6081 12.9897C23.499 12.8691 23.4053 12.7374 23.329 12.5977C23.2419 12.439 23.1768 12.2702 23.1351 12.0957M23.1351 12.0957C23.0579 11.7705 23.0626 11.4258 23.1604 11.0922L23.9106 8.56732C24.0028 8.25687 23.939 7.92098 23.7394 7.66599L22.4051 5.96199C22.1989 5.69861 21.8746 5.5558 21.5411 5.58145L19.0307 5.77452M19.0307 5.77452C18.6926 5.79959 18.3601 5.73196 18.0642 5.58649M19.0307 5.77452C18.6921 5.80103 18.3601 5.73287 18.0642 5.58649M18.0642 5.58649C17.7663 5.43916 17.505 5.21259 17.3107 4.92375M18.0642 5.58649C17.7659 5.4397 17.5041 5.21373 17.3107 4.92375M4.84375 12.1532L4.84469 12.1481M17.7621 14.0124C17.7621 16.1882 16.0445 17.952 13.926 17.952C11.8075 17.952 10.0899 16.1882 10.0899 14.0124C10.0899 11.8366 11.8075 10.0729 13.926 10.0729C16.0445 10.0729 17.7621 11.8366 17.7621 14.0124Z" stroke="white"/>
</svg>
