<svg width="24" height="24" viewBox="0 0 24 24" fill="none" xmlns="http://www.w3.org/2000/svg">
<path fill-rule="evenodd" clip-rule="evenodd" d="M4.11797 6.1998H20.118C20.4362 6.1998 20.7415 6.07338 20.9665 5.84833C21.1915 5.62329 21.318 5.31806 21.318 4.9998C21.318 4.68154 21.1915 4.37632 20.9665 4.15128C20.7415 3.92623 20.4362 3.7998 20.118 3.7998H4.11797C3.79971 3.7998 3.49448 3.92623 3.26944 4.15128C3.0444 4.37632 2.91797 4.68154 2.91797 4.9998C2.91797 5.31806 3.0444 5.62329 3.26944 5.84833C3.49448 6.07338 3.79971 6.1998 4.11797 6.1998ZM20.118 10.7998H4.11797C3.79971 10.7998 3.49448 10.9262 3.26944 11.1513C3.0444 11.3763 2.91797 11.6815 2.91797 11.9998C2.91797 12.3181 3.0444 12.6233 3.26944 12.8483C3.49448 13.0734 3.79971 13.1998 4.11797 13.1998H20.118C20.4362 13.1998 20.7415 13.0734 20.9665 12.8483C21.1915 12.6233 21.318 12.3181 21.318 11.9998C21.318 11.6815 21.1915 11.3763 20.9665 11.1513C20.7415 10.9262 20.4362 10.7998 20.118 10.7998ZM20.118 17.7998H4.11797C3.96038 17.7998 3.80434 17.8308 3.65875 17.8911C3.51316 17.9515 3.38087 18.0398 3.26944 18.1513C3.15801 18.2627 3.06962 18.395 3.00931 18.5406C2.94901 18.6862 2.91797 18.8422 2.91797 18.9998C2.91797 19.1574 2.94901 19.3134 3.00931 19.459C3.06962 19.6046 3.15801 19.7369 3.26944 19.8483C3.38087 19.9598 3.51316 20.0482 3.65875 20.1085C3.80434 20.1688 3.96038 20.1998 4.11797 20.1998H20.118C20.2756 20.1998 20.4316 20.1688 20.5772 20.1085C20.7228 20.0482 20.8551 19.9598 20.9665 19.8483C21.0779 19.7369 21.1663 19.6046 21.2266 19.459C21.2869 19.3134 21.318 19.1574 21.318 18.9998C21.318 18.8422 21.2869 18.6862 21.2266 18.5406C21.1663 18.395 21.0779 18.2627 20.9665 18.1513C20.8551 18.0398 20.7228 17.9515 20.5772 17.8911C20.4316 17.8308 20.2756 17.7998 20.118 17.7998Z" fill="#767C8D"/>
</svg>
