<svg width="24" height="24" viewBox="0 0 24 24" fill="none" xmlns="http://www.w3.org/2000/svg">
<rect width="24" height="24" rx="12" fill="#E4E7EF"/>
<path fill-rule="evenodd" clip-rule="evenodd" d="M15.401 16.8152C15.7915 17.2057 16.4247 17.2057 16.8152 16.8152C17.2057 16.4247 17.2057 15.7915 16.8152 15.401L13.4683 12.0541L16.8152 8.70711C17.2057 8.31658 17.2057 7.68342 16.8152 7.29289C16.4247 6.90237 15.7915 6.90237 15.401 7.29289L12.0541 10.6398L8.70711 7.29289C8.31658 6.90237 7.68342 6.90237 7.29289 7.29289C6.90237 7.68342 6.90237 8.31658 7.29289 8.70711L10.6398 12.0541L7.29289 15.401C6.90237 15.7915 6.90237 16.4247 7.29289 16.8152C7.68342 17.2057 8.31658 17.2057 8.70711 16.8152L12.0541 13.4683L15.401 16.8152Z" fill="#989FB3"/>
</svg>
