<svg width="24" height="24" viewBox="0 0 24 24" fill="none" xmlns="http://www.w3.org/2000/svg">
<path d="M12.5093 18.3737C11.4648 18.3737 10.5198 18.1626 9.67432 17.7404C8.84122 17.3182 8.18843 16.7346 7.71593 15.9895C7.24342 15.2445 7.00717 14.4001 7.00717 13.4563V6.84401C7.00717 6.24796 7.21856 5.79472 7.64132 5.48428C8.06408 5.16143 8.6858 5 9.50646 5V13.4563C9.50646 14.2883 9.78001 14.9527 10.3271 15.4494C10.8742 15.9461 11.6016 16.1944 12.5093 16.1944C13.417 16.1944 14.1444 15.9461 14.6915 15.4494C15.2386 14.9527 15.5122 14.2883 15.5122 13.4563V6.84401C15.5122 6.23555 15.7236 5.7761 16.1463 5.46566C16.5691 5.15522 17.1908 5 18.0115 5V13.4563C18.0115 14.4001 17.7752 15.2445 17.3027 15.9895C16.8302 16.7346 16.1712 17.3182 15.3257 17.7404C14.4926 18.1626 13.5538 18.3737 12.5093 18.3737Z" fill="#767C8D"/>
<path d="M6 20.0687H19V21H6V20.0687Z" fill="#767C8D"/>
</svg>
