<svg width="16" height="16" viewBox="0 0 16 16" fill="none" xmlns="http://www.w3.org/2000/svg">
<path d="M2.63382 11.725H13.4422C14.4039 11.725 13.8679 10.5778 13.6911 10.3168C13.2816 9.71242 12.8839 8.82154 12.8839 7.74722L12.9015 6.27776C12.9015 3.36293 10.7038 1 7.99279 1C5.32115 1 3.15536 3.32863 3.15536 6.20115L3.13776 7.74722C3.13776 8.81421 2.72578 9.70026 2.29896 10.3044C2.11502 10.5647 1.58171 11.725 2.63382 11.725Z" fill="#FFF53E" stroke="#FFF53E" stroke-linecap="round" stroke-linejoin="round"/>
<path fill-rule="evenodd" clip-rule="evenodd" d="M10.2822 13H5.71313C5.73069 13.085 5.7501 13.1701 5.77142 13.2518C5.81401 13.4151 5.8763 13.6143 5.97228 13.7689C6.41792 14.4866 7.24238 14.8025 7.99982 14.8025C8.75726 14.8025 9.58172 14.4866 10.0274 13.7689C10.1245 13.6125 10.1857 13.4114 10.227 13.2479C10.2473 13.1674 10.2656 13.0837 10.2822 13Z" fill="#FFF53E"/>
</svg>
