<svg width="20" height="17" viewBox="0 0 20 17" fill="none" xmlns="http://www.w3.org/2000/svg">
<g clip-path="url(#clip0_3717_73179)">
<path d="M10 0.266846C4.47856 0.266846 0 3.32772 0 7.10356C0 9.55767 1.8931 11.7103 4.7371 12.9007L3.78177 15.9925C3.76893 16.0329 3.77055 16.076 3.78637 16.1156C3.8022 16.1553 3.83148 16.1897 3.87025 16.2142C3.90902 16.2387 3.95534 16.252 4.00302 16.2525C4.0507 16.2529 4.09742 16.2404 4.13675 16.2166L8.15951 13.8089C8.76922 13.8851 9.38423 13.9238 10 13.9248C15.5215 13.9248 20 10.8639 20 7.0881C20 3.31225 15.5084 0.266846 10 0.266846Z" fill="#3B1F1E"/>
</g>
<defs>
<clipPath id="clip0_3717_73179">
<rect width="20" height="16" fill="white" transform="translate(0 0.246826)"/>
</clipPath>
</defs>
</svg>
