<svg width="24" height="24" viewBox="0 0 24 24" fill="none" xmlns="http://www.w3.org/2000/svg">
<path d="M4.125 17L5.15625 14.0156H9.5625L10.5938 17H12.4219L8.34375 5.6875H6.35938L2.29688 17H4.125ZM5.64844 12.5781L7.3125 7.75H7.39062L9.0625 12.5781H5.64844ZM12.8481 14.6094C12.8403 16.2656 14.0981 17.1875 15.7075 17.1875C17.1138 17.1875 17.895 16.4766 18.2231 15.8438H18.2856V17H19.9106V11.3594C19.9028 8.89844 17.9341 8.40625 16.5825 8.40625C14.5747 8.40625 13.2622 9.42188 13.1138 10.8281H14.77C14.9419 10.2031 15.5356 9.75 16.52 9.75C17.6528 9.75 18.2466 10.3047 18.2388 11.2656L18.2466 11.9453C17.8559 11.9609 16.5825 12.0312 16.02 12.0625C14.4888 12.1719 12.8403 12.6719 12.8481 14.6094ZM14.4731 14.625C14.4731 13.7891 15.1606 13.375 16.2544 13.2969C16.6528 13.2734 17.8638 13.1875 18.2466 13.1641L18.2544 13.9375C18.2544 14.9453 17.4419 15.8516 16.0825 15.8594C15.145 15.8516 14.4731 15.4375 14.4731 14.625Z" fill="#989FB3"/>
</svg>
