<svg width="24" height="24" viewBox="0 0 24 24" fill="none" xmlns="http://www.w3.org/2000/svg">
<path fill-rule="evenodd" clip-rule="evenodd" d="M4.99982 8C4.99982 7.44772 5.44753 7 5.99982 7H18.4998C19.0521 7 19.4998 7.44772 19.4998 8C19.4998 8.55228 19.0521 9 18.4998 9H5.99982C5.44753 9 4.99982 8.55228 4.99982 8ZM4.99982 13C4.99982 12.4477 5.44753 12 5.99982 12H12.2498C12.8021 12 13.2498 12.4477 13.2498 13C13.2498 13.5523 12.8021 14 12.2498 14H5.99982C5.44753 14 4.99982 13.5523 4.99982 13ZM5.99982 17C5.44753 17 4.99982 17.4477 4.99982 18C4.99982 18.5523 5.44753 19 5.99982 19H18.4998C19.0521 19 19.4998 18.5523 19.4998 18C19.4998 17.4477 19.0521 17 18.4998 17H5.99982Z" fill="#767C8D"/>
</svg>
