<svg width="24" height="24" viewBox="0 0 24 24" fill="none" xmlns="http://www.w3.org/2000/svg">
<path d="M19.0451 8.79342C19.0807 9.13451 18.8278 9.43771 18.4859 9.46401C18.1646 9.48872 17.8797 9.259 17.8356 8.93979L17.5731 7.03636C17.5048 6.54156 17.082 6.173 16.5825 6.173H14.199C13.6467 6.173 13.199 6.62072 13.199 7.173V17.777C13.199 18.3293 13.6467 18.777 14.199 18.777H15.3035C15.6274 18.777 15.89 19.0396 15.89 19.3635C15.89 19.6874 15.6274 19.95 15.3035 19.95H9.8295C9.50558 19.95 9.243 19.6874 9.243 19.3635C9.243 19.0396 9.50558 18.777 9.8295 18.777H10.888C11.4403 18.777 11.888 18.3293 11.888 17.777V7.173C11.888 6.62071 11.4403 6.173 10.888 6.173H8.50454C8.00505 6.173 7.58216 6.54156 7.51392 7.03636L7.2502 8.94828C7.20685 9.26259 6.92602 9.48863 6.60971 9.46382C6.275 9.43757 6.02716 9.14149 6.06023 8.80739L6.34779 5.90152C6.39842 5.38987 6.82878 5 7.34293 5H17.7488C18.2609 5 18.6903 5.38698 18.7434 5.89639L19.0451 8.79342Z" fill="#767C8D"/>
</svg>
