<svg width="24" height="24" viewBox="0 0 24 24" fill="none" xmlns="http://www.w3.org/2000/svg">
<path d="M13.92 9.05995C13.4666 9.05995 13.1 8.93995 12.82 8.69995C12.54 8.44661 12.4 8.12661 12.4 7.73995C12.4 7.20661 12.6066 6.75328 13.02 6.37995C13.4333 6.00661 13.9266 5.81995 14.5 5.81995C14.94 5.81995 15.3 5.94661 15.58 6.19995C15.86 6.43995 16 6.75328 16 7.13995C16 7.67328 15.7933 8.12661 15.38 8.49995C14.98 8.87328 14.4933 9.05995 13.92 9.05995ZM12.002 10.3328C12.0727 10.1331 12.2615 9.99963 12.4734 9.99963H14.4326C14.7777 9.99963 15.0191 10.3411 14.9039 10.6665L11.7179 19.6665C11.6472 19.8662 11.4584 19.9996 11.2466 19.9996H9.28736C8.94219 19.9996 8.70083 19.6582 8.81602 19.3328L12.002 10.3328Z" fill="#767C8D"/>
</svg>
