<svg width="24" height="24" viewBox="0 0 24 24" fill="none" xmlns="http://www.w3.org/2000/svg">
<rect width="24" height="24" rx="4" fill="#E3E3E7"/>
<path d="M7.01478 19H10.2069M10.2069 19H13.5468M10.2069 19V5M10.2069 5H5.00493C4.44992 5 4 5.44772 4 6V7.47059M10.2069 5H14.9951C15.5501 5 16 5.44772 16 6V7.88235" stroke="#1C1D22" stroke-linecap="round" stroke-linejoin="round"/>
<path d="M21 16.5385C21 17.8979 19.8807 19 18.5 19C17.1193 19 16 17.8979 16 16.5385C16 15.179 18.5 11 18.5 11C18.5 11 21 15.179 21 16.5385Z" fill="#9E8AFF"/>
</svg>
