<svg width="24" height="24" viewBox="0 0 24 24" fill="none" xmlns="http://www.w3.org/2000/svg">
<path d="M3 20V4C3 2.89543 3.89543 2 5 2H17H19C20.1046 2 21 2.89543 21 4V6V20C21 21.1046 20.1046 22 19 22H5C3.89543 22 3 21.1046 3 20Z" stroke="#767C8D"/>
<path d="M9.78906 9.78955L17.9996 9.78955" stroke="#767C8D" stroke-linecap="round"/>
<path d="M9.78906 13.579L17.9996 13.579" stroke="#767C8D" stroke-linecap="round"/>
<path d="M9.78906 17.3684L17.9996 17.3684" stroke="#767C8D" stroke-linecap="round"/>
<path d="M6.78947 14.3685C7.22549 14.3685 7.57895 14.015 7.57895 13.579C7.57895 13.143 7.22549 12.7896 6.78947 12.7896C6.35346 12.7896 6 13.143 6 13.579C6 14.015 6.35346 14.3685 6.78947 14.3685Z" fill="#767C8D"/>
<path d="M6.78947 10.5789C7.22549 10.5789 7.57895 10.2255 7.57895 9.78947C7.57895 9.35346 7.22549 9 6.78947 9C6.35346 9 6 9.35346 6 9.78947C6 10.2255 6.35346 10.5789 6.78947 10.5789Z" fill="#767C8D"/>
<path d="M6.78947 18.1579C7.22549 18.1579 7.57895 17.8045 7.57895 17.3685C7.57895 16.9324 7.22549 16.579 6.78947 16.579C6.35346 16.579 6 16.9324 6 17.3685C6 17.8045 6.35346 18.1579 6.78947 18.1579Z" fill="#767C8D"/>
</svg>
