<svg width="8" height="6" viewBox="0 0 8 6" fill="none" xmlns="http://www.w3.org/2000/svg">
<path d="M3.488 0.127999L2.432 3.968L2.08 2.528C2.53867 2.528 2.912 2.66133 3.2 2.928C3.488 3.19467 3.632 3.56267 3.632 4.032C3.632 4.49067 3.48267 4.864 3.184 5.152C2.896 5.42933 2.53333 5.568 2.096 5.568C1.648 5.568 1.27467 5.42933 0.976 5.152C0.688 4.864 0.544 4.49067 0.544 4.032C0.544 3.89333 0.554667 3.76 0.576 3.632C0.597333 3.49333 0.64 3.33333 0.704 3.152C0.768 2.97067 0.858667 2.73067 0.976 2.432L1.904 0.127999H3.488ZM7.264 0.127999L6.208 3.968L5.856 2.528C6.31467 2.528 6.688 2.66133 6.976 2.928C7.264 3.19467 7.408 3.56267 7.408 4.032C7.408 4.49067 7.25867 4.864 6.96 5.152C6.672 5.42933 6.30933 5.568 5.872 5.568C5.424 5.568 5.05067 5.42933 4.752 5.152C4.464 4.864 4.32 4.49067 4.32 4.032C4.32 3.89333 4.33067 3.76 4.352 3.632C4.37333 3.49333 4.416 3.33333 4.48 3.152C4.544 2.97067 4.63467 2.73067 4.752 2.432L5.68 0.127999H7.264Z" fill="#9E8AFF"/>
</svg>
