<svg width="16" height="16" viewBox="0 0 16 16" fill="none" xmlns="http://www.w3.org/2000/svg">
<path d="M6.06947 12.0102C6.06947 12.0102 6.18245 13.1592 6.39723 13.5051V13.5051C7.0574 14.5683 8.9426 14.5683 9.60277 13.5051V13.5051C9.81755 13.1592 9.91612 12.0102 9.91612 12.0102M2.63382 11.725C1.58171 11.725 2.11502 10.5647 2.29896 10.3044C2.72578 9.70026 3.13776 8.81421 3.13776 7.74722L3.15536 6.20115C3.15536 3.32863 5.32115 1 7.99279 1C10.7038 1 12.9015 3.36293 12.9015 6.27776L12.8839 7.74722C12.8839 8.82154 13.2816 9.71242 13.6911 10.3168C13.8679 10.5778 14.4039 11.725 13.4422 11.725H2.63382Z" stroke="#FFF53E" stroke-linecap="round" stroke-linejoin="round"/>
</svg>
